Khaenri'ahLanguage-Regular.ufo
<glyph name="comma" format="2">
  <advance width="405"/>
  <unicode hex="002C"/>
  <outline>
    <contour>
      <point x="266" y="530" type="curve" smooth="yes"/>
      <point x="256" y="516"/>
      <point x="244" y="503"/>
      <point x="231" y="493" type="curve" smooth="yes"/>
      <point x="201" y="469"/>
      <point x="186" y="438"/>
      <point x="186" y="400" type="curve"/>
      <point x="185" y="394"/>
      <point x="191" y="389"/>
      <point x="195" y="385" type="curve" smooth="yes"/>
      <point x="201" y="379"/>
      <point x="208" y="375"/>
      <point x="214" y="370" type="curve" smooth="yes"/>
      <point x="217" y="367"/>
      <point x="219" y="363"/>
      <point x="219" y="361" type="curve"/>
      <point x="218" y="359"/>
      <point x="216" y="358"/>
      <point x="208" y="358" type="curve" smooth="yes"/>
      <point x="161" y="358"/>
      <point x="124" y="358"/>
      <point x="79" y="358" type="curve"/>
      <point x="79" y="376"/>
      <point x="79" y="393"/>
      <point x="79" y="411" type="curve"/>
      <point x="80" y="460"/>
      <point x="111" y="485"/>
      <point x="153" y="499" type="curve" smooth="yes"/>
      <point x="187" y="511"/>
      <point x="222" y="522"/>
      <point x="251" y="544" type="curve"/>
      <point x="259" y="549"/>
      <point x="264" y="556"/>
      <point x="273" y="562" type="curve"/>
      <point x="275" y="562" type="line"/>
      <point x="273" y="551"/>
      <point x="272" y="538"/>
    </contour>
    <contour>
      <point x="120" y="151" type="curve"/>
      <point x="134" y="150"/>
      <point x="144" y="149"/>
      <point x="155" y="149" type="curve" smooth="yes"/>
      <point x="160" y="149"/>
      <point x="170" y="151"/>
      <point x="175" y="154" type="curve" smooth="yes"/>
      <point x="204" y="172"/>
      <point x="240" y="217"/>
      <point x="238" y="270" type="curve" smooth="yes"/>
      <point x="237" y="296"/>
      <point x="228" y="317"/>
      <point x="201" y="326" type="curve" smooth="yes"/>
      <point x="193" y="328"/>
      <point x="185" y="333"/>
      <point x="179" y="338" type="curve"/>
      <point x="178" y="339"/>
      <point x="179" y="341"/>
      <point x="180" y="341" type="curve"/>
      <point x="182" y="343"/>
      <point x="186" y="343"/>
      <point x="188" y="343" type="curve"/>
      <point x="283" y="343" type="line"/>
      <point x="290" y="342"/>
      <point x="298" y="342"/>
      <point x="305" y="339" type="curve"/>
      <point x="317" y="336"/>
      <point x="326" y="329"/>
      <point x="326" y="313" type="curve"/>
      <point x="325" y="292"/>
      <point x="326" y="271"/>
      <point x="324" y="250" type="curve" smooth="yes"/>
      <point x="323" y="238"/>
      <point x="319" y="225"/>
      <point x="312" y="216" type="curve" smooth="yes"/>
      <point x="274" y="163"/>
      <point x="221" y="134"/>
      <point x="155" y="134" type="curve" smooth="yes"/>
      <point x="142" y="134"/>
      <point x="130" y="137"/>
    </contour>
    <contour>
      <point x="146" y="296" type="curve" smooth="yes"/>
      <point x="172" y="296"/>
      <point x="194" y="274"/>
      <point x="194" y="248" type="curve" smooth="yes"/>
      <point x="194" y="219"/>
      <point x="175" y="198"/>
      <point x="148" y="198" type="curve" smooth="yes"/>
      <point x="118" y="198"/>
      <point x="99" y="219"/>
      <point x="99" y="248" type="curve" smooth="yes"/>
      <point x="99" y="276"/>
      <point x="118" y="296"/>
    </contour>
  </outline>
</glyph>
<glyph name="period" format="2">
  <advance width="598"/>
  <unicode hex="002E"/>
  <outline>
    <contour>
      <point x="550" y="358" type="curve"/>
      <point x="380" y="358"/>
      <point x="210" y="358"/>
      <point x="39" y="358" type="curve"/>
      <point x="45" y="363"/>
      <point x="47" y="366"/>
      <point x="51" y="368" type="curve"/>
      <point x="67" y="382"/>
      <point x="85" y="395"/>
      <point x="102" y="408" type="curve" smooth="yes"/>
      <point x="107" y="412"/>
      <point x="115" y="417"/>
      <point x="121" y="416" type="curve" smooth="yes"/>
      <point x="157" y="412"/>
      <point x="192" y="408"/>
      <point x="227" y="402" type="curve" smooth="yes"/>
      <point x="246" y="399"/>
      <point x="268" y="417"/>
      <point x="266" y="437" type="curve" smooth="yes"/>
      <point x="262" y="478"/>
      <point x="257" y="519"/>
      <point x="254" y="560" type="curve" smooth="yes"/>
      <point x="252" y="587"/>
      <point x="252" y="615"/>
      <point x="251" y="643" type="curve"/>
      <point x="251" y="647"/>
      <point x="253" y="652"/>
      <point x="255" y="655" type="curve" smooth="yes"/>
      <point x="264" y="670"/>
      <point x="274" y="684"/>
      <point x="284" y="699" type="curve" smooth="yes"/>
      <point x="291" y="709"/>
      <point x="298" y="708"/>
      <point x="305" y="698" type="curve" smooth="yes"/>
      <point x="315" y="684"/>
      <point x="325" y="671"/>
      <point x="333" y="656" type="curve"/>
      <point x="336" y="652"/>
      <point x="338" y="644"/>
      <point x="337" y="638" type="curve"/>
      <point x="333" y="575"/>
      <point x="329" y="511"/>
      <point x="322" y="448" type="curve"/>
      <point x="321" y="430"/>
      <point x="326" y="414"/>
      <point x="340" y="406" type="curve" smooth="yes"/>
      <point x="349" y="401"/>
      <point x="364" y="404"/>
      <point x="376" y="405" type="curve" smooth="yes"/>
      <point x="405" y="408"/>
      <point x="434" y="413"/>
      <point x="464" y="417" type="curve"/>
      <point x="470" y="417"/>
      <point x="479" y="414"/>
      <point x="484" y="410" type="curve"/>
      <point x="485" y="409"/>
      <point x="487" y="408"/>
      <point x="488" y="407" type="curve"/>
      <point x="495" y="402" type="line"/>
      <point x="496" y="401"/>
      <point x="498" y="400"/>
      <point x="499" y="399" type="curve"/>
      <point x="529" y="376" type="line"/>
      <point x="530" y="375"/>
      <point x="532" y="374"/>
      <point x="533" y="373" type="curve"/>
      <point x="540" y="368" type="line"/>
      <point x="541" y="367"/>
      <point x="543" y="366"/>
      <point x="544" y="365" type="curve" smooth="yes"/>
      <point x="545" y="364"/>
      <point x="547" y="362"/>
    </contour>
    <contour>
      <point x="84" y="571" type="curve"/>
      <point x="97" y="567"/>
      <point x="110" y="562"/>
      <point x="123" y="557" type="curve" smooth="yes"/>
      <point x="136" y="551"/>
      <point x="150" y="545"/>
      <point x="164" y="542" type="curve" smooth="yes"/>
      <point x="171" y="540"/>
      <point x="174" y="540"/>
      <point x="181" y="542" type="curve" smooth="yes"/>
      <point x="186" y="544"/>
      <point x="189" y="547"/>
      <point x="191" y="548" type="curve" smooth="yes"/>
      <point x="219" y="565"/>
      <point x="222" y="564"/>
      <point x="231" y="534" type="curve"/>
      <point x="239" y="511"/>
      <point x="239" y="511"/>
      <point x="218" y="497" type="curve" smooth="yes"/>
      <point x="198" y="483"/>
      <point x="185" y="464"/>
      <point x="179" y="440" type="curve" smooth="yes"/>
      <point x="177" y="430"/>
      <point x="172" y="428"/>
      <point x="163" y="429" type="curve" smooth="yes"/>
      <point x="157" y="430"/>
      <point x="149" y="430"/>
      <point x="143" y="433" type="curve"/>
      <point x="139" y="434"/>
      <point x="135" y="439"/>
      <point x="135" y="443" type="curve" smooth="yes"/>
      <point x="135" y="450"/>
      <point x="136" y="459"/>
      <point x="138" y="466" type="curve" smooth="yes"/>
      <point x="143" y="479"/>
      <point x="140" y="488"/>
      <point x="132" y="499" type="curve"/>
      <point x="116" y="517"/>
      <point x="101" y="537"/>
      <point x="85" y="559" type="curve"/>
      <point x="82" y="565" type="line"/>
      <point x="82" y="566"/>
      <point x="82" y="566"/>
      <point x="81" y="567" type="curve"/>
      <point x="82" y="569"/>
      <point x="83" y="570"/>
    </contour>
    <contour>
      <point x="508" y="567" type="curve"/>
      <point x="499" y="553" type="line"/>
      <point x="483" y="532"/>
      <point x="467" y="511"/>
      <point x="451" y="489" type="curve" smooth="yes"/>
      <point x="449" y="486"/>
      <point x="448" y="480"/>
      <point x="449" y="476" type="curve" smooth="yes"/>
      <point x="450" y="465"/>
      <point x="453" y="455"/>
      <point x="454" y="443" type="curve"/>
      <point x="454" y="440"/>
      <point x="450" y="434"/>
      <point x="448" y="433" type="curve" smooth="yes"/>
      <point x="437" y="430"/>
      <point x="426" y="430"/>
      <point x="414" y="428" type="curve"/>
      <point x="410" y="440"/>
      <point x="406" y="452"/>
      <point x="401" y="463" type="curve" smooth="yes"/>
      <point x="393" y="481"/>
      <point x="378" y="495"/>
      <point x="360" y="502" type="curve"/>
      <point x="350" y="507"/>
      <point x="349" y="513"/>
      <point x="354" y="523" type="curve" smooth="yes"/>
      <point x="358" y="532"/>
      <point x="360" y="542"/>
      <point x="363" y="551" type="curve" smooth="yes"/>
      <point x="365" y="559"/>
      <point x="369" y="560"/>
      <point x="376" y="558" type="curve"/>
      <point x="385" y="554"/>
      <point x="392" y="551"/>
      <point x="398" y="546" type="curve"/>
      <point x="411" y="538"/>
      <point x="417" y="537"/>
      <point x="430" y="542" type="curve"/>
      <point x="448" y="551"/>
      <point x="468" y="558"/>
      <point x="488" y="566" type="curve" smooth="yes"/>
      <point x="494" y="568"/>
      <point x="499" y="569"/>
      <point x="506" y="571" type="curve"/>
      <point x="506" y="570"/>
      <point x="508" y="569"/>
    </contour>
    <contour>
      <point x="213" y="281" type="curve"/>
      <point x="192" y="222"/>
      <point x="152" y="175"/>
      <point x="138" y="113" type="curve"/>
      <point x="134" y="119"/>
      <point x="131" y="123"/>
      <point x="129" y="131" type="curve" smooth="yes"/>
      <point x="115" y="177"/>
      <point x="105" y="223"/>
      <point x="116" y="271" type="curve" smooth="yes"/>
      <point x="121" y="294"/>
      <point x="134" y="316"/>
      <point x="143" y="338" type="curve" smooth="yes"/>
      <point x="146" y="345"/>
      <point x="149" y="345"/>
      <point x="155" y="336" type="curve" smooth="yes"/>
      <point x="158" y="331"/>
      <point x="159" y="326"/>
      <point x="162" y="320" type="curve" smooth="yes"/>
      <point x="174" y="301"/>
      <point x="185" y="281"/>
    </contour>
    <contour>
      <point x="228" y="343" type="curve" smooth="yes"/>
      <point x="362" y="343" type="line" smooth="yes"/>
      <point x="367" y="343"/>
      <point x="368" y="342"/>
      <point x="365" y="338" type="curve"/>
      <point x="355" y="329"/>
      <point x="348" y="322"/>
      <point x="338" y="314" type="curve" smooth="yes"/>
      <point x="325" y="303"/>
      <point x="318" y="293"/>
      <point x="319" y="276" type="curve" smooth="yes"/>
      <point x="322" y="206"/>
      <point x="336" y="139"/>
      <point x="354" y="72" type="curve" smooth="yes"/>
      <point x="359" y="54"/>
      <point x="371" y="39"/>
      <point x="387" y="27" type="curve" smooth="yes"/>
      <point x="389" y="25"/>
      <point x="391" y="21"/>
      <point x="393" y="18" type="curve"/>
      <point x="389" y="16"/>
      <point x="387" y="14"/>
      <point x="383" y="13" type="curve" smooth="yes"/>
      <point x="354" y="8"/>
      <point x="327" y="10"/>
      <point x="295" y="10" type="curve"/>
      <point x="277" y="11"/>
      <point x="258" y="9"/>
      <point x="233" y="9" type="curve" smooth="yes"/>
      <point x="214" y="9"/>
      <point x="203" y="13"/>
      <point x="193" y="16" type="curve"/>
      <point x="195" y="18" type="line"/>
      <point x="240" y="52"/>
      <point x="244" y="104"/>
      <point x="253" y="152" type="curve" smooth="yes"/>
      <point x="261" y="195"/>
      <point x="264" y="238"/>
      <point x="270" y="281" type="curve" smooth="yes"/>
      <point x="272" y="295"/>
      <point x="267" y="303"/>
      <point x="255" y="311" type="curve" smooth="yes"/>
      <point x="243" y="319"/>
      <point x="234" y="327"/>
      <point x="224" y="338" type="curve" smooth="yes"/>
      <point x="221" y="341"/>
      <point x="222" y="343"/>
    </contour>
    <contour>
      <point x="377" y="282" type="curve"/>
      <point x="396" y="280"/>
      <point x="407" y="289"/>
      <point x="415" y="302" type="curve" smooth="yes"/>
      <point x="417" y="305"/>
      <point x="418" y="308"/>
      <point x="419" y="310" type="curve" smooth="yes"/>
      <point x="428" y="325" type="line"/>
      <point x="429" y="328"/>
      <point x="431" y="330"/>
      <point x="432" y="332" type="curve" smooth="yes"/>
      <point x="435" y="336"/>
      <point x="438" y="340"/>
      <point x="440" y="340" type="curve"/>
      <point x="443" y="340"/>
      <point x="448" y="336"/>
      <point x="450" y="333" type="curve" smooth="yes"/>
      <point x="464" y="305"/>
      <point x="474" y="276"/>
      <point x="477" y="245" type="curve"/>
      <point x="479" y="202"/>
      <point x="467" y="162"/>
      <point x="456" y="120" type="curve"/>
      <point x="455" y="119"/>
      <point x="455" y="117"/>
      <point x="452" y="111" type="curve"/>
      <point x="437" y="174"/>
      <point x="396" y="223"/>
    </contour>
  </outline>
</glyph>
<glyph name="A" format="2">
  <advance width="511"/>
  <unicode hex="0041"/>
  <outline>
    <contour>
      <point x="453" y="-34" type="curve" smooth="yes"/>
      <point x="453" y="-4" type="line" smooth="yes"/>
      <point x="453" y="112"/>
      <point x="389" y="234"/>
      <point x="318" y="319" type="curve" smooth="yes"/>
      <point x="313" y="325"/>
      <point x="309" y="330"/>
      <point x="311" y="332" type="curve" smooth="yes"/>
      <point x="316" y="335"/>
      <point x="364" y="339"/>
      <point x="407" y="341" type="curve" smooth="yes"/>
      <point x="451" y="343" type="line"/>
      <point x="455" y="333" type="line" smooth="yes"/>
      <point x="460" y="320"/>
      <point x="480" y="244"/>
      <point x="483" y="214" type="curve" smooth="yes"/>
      <point x="486" y="130" type="line" smooth="yes"/>
      <point x="486" y="102"/>
      <point x="485" y="75"/>
      <point x="484" y="65" type="curve" smooth="yes"/>
      <point x="482" y="48"/>
      <point x="466" y="-38"/>
      <point x="454" y="-38" type="curve" smooth="yes"/>
      <point x="453" y="-38"/>
      <point x="453" y="-37"/>
    </contour>
    <contour>
      <point x="313" y="390" type="curve" smooth="yes"/>
      <point x="293" y="385"/>
      <point x="275" y="379"/>
      <point x="256" y="373" type="curve" smooth="yes"/>
      <point x="250" y="371"/>
      <point x="242" y="369"/>
      <point x="235" y="369" type="curve" smooth="yes"/>
      <point x="224" y="369"/>
      <point x="217" y="374"/>
      <point x="197" y="387" type="curve" smooth="yes"/>
      <point x="170" y="405"/>
      <point x="128" y="425"/>
      <point x="94" y="436" type="curve" smooth="yes"/>
      <point x="69" y="445" type="line"/>
      <point x="69" y="454"/>
      <point x="96" y="521"/>
      <point x="113" y="552" type="curve" smooth="yes"/>
      <point x="169" y="644" type="line" smooth="yes"/>
      <point x="194" y="679"/>
      <point x="224" y="705"/>
      <point x="240" y="705" type="curve" smooth="yes"/>
      <point x="265" y="705"/>
      <point x="324" y="644"/>
      <point x="364" y="577" type="curve" smooth="yes"/>
      <point x="386" y="540"/>
      <point x="445" y="404"/>
      <point x="445" y="367" type="curve" smooth="yes"/>
      <point x="445" y="364"/>
      <point x="444" y="363"/>
      <point x="442" y="363" type="curve" smooth="yes"/>
      <point x="441" y="363"/>
      <point x="439" y="363"/>
      <point x="437" y="364" type="curve" smooth="yes"/>
      <point x="424" y="371"/>
      <point x="386" y="382"/>
      <point x="373" y="384" type="curve" smooth="yes"/>
      <point x="352" y="388"/>
      <point x="346" y="399"/>
      <point x="345" y="429" type="curve"/>
      <point x="345" y="469"/>
      <point x="273" y="610"/>
      <point x="247" y="610" type="curve" smooth="yes"/>
      <point x="224" y="610"/>
      <point x="165" y="497"/>
      <point x="165" y="480" type="curve" smooth="yes"/>
      <point x="165" y="478"/>
      <point x="166" y="476"/>
      <point x="172" y="475" type="curve" smooth="yes"/>
      <point x="190" y="469" type="line" smooth="yes"/>
      <point x="244" y="447"/>
      <point x="253" y="443"/>
      <point x="286" y="422" type="curve" smooth="yes"/>
      <point x="318" y="402" type="line" smooth="yes"/>
      <point x="324" y="398"/>
      <point x="328" y="395"/>
      <point x="328" y="394" type="curve"/>
      <point x="328" y="394"/>
      <point x="327" y="393"/>
      <point x="325" y="392" type="curve" smooth="yes"/>
      <point x="322" y="392" type="line" smooth="yes"/>
      <point x="321" y="392"/>
      <point x="317" y="391"/>
    </contour>
    <contour>
      <point x="146" y="149" type="line" smooth="yes"/>
      <point x="206" y="191"/>
      <point x="232" y="211"/>
      <point x="232" y="214" type="curve" smooth="yes"/>
      <point x="232" y="220"/>
      <point x="150" y="298"/>
      <point x="130" y="298" type="curve" smooth="yes"/>
      <point x="108" y="298"/>
      <point x="101" y="209"/>
      <point x="101" y="191" type="curve" smooth="yes"/>
      <point x="101" y="157"/>
      <point x="105" y="125"/>
      <point x="110" y="125" type="curve"/>
      <point x="111" y="125"/>
      <point x="119" y="130"/>
      <point x="130" y="138" type="curve" smooth="yes"/>
    </contour>
    <contour>
      <point x="57" y="343" type="curve"/>
      <point x="186" y="343" type="line" smooth="yes"/>
      <point x="191" y="343"/>
      <point x="192" y="343"/>
      <point x="198" y="340" type="curve" smooth="yes"/>
      <point x="210" y="332" type="line" smooth="yes"/>
      <point x="232" y="316"/>
      <point x="264" y="289"/>
      <point x="300" y="215" type="curve" smooth="yes"/>
      <point x="318" y="176" type="line"/>
      <point x="318" y="174"/>
      <point x="299" y="165"/>
      <point x="294" y="165" type="curve"/>
      <point x="260" y="165"/>
      <point x="127" y="67"/>
      <point x="127" y="39" type="curve" smooth="yes"/>
      <point x="127" y="24"/>
      <point x="90" y="-20"/>
      <point x="77" y="-20" type="curve"/>
      <point x="75" y="-20"/>
      <point x="71" y="-17"/>
      <point x="69" y="-13" type="curve" smooth="yes"/>
      <point x="37" y="54"/>
      <point x="28" y="95"/>
      <point x="28" y="165" type="curve" smooth="yes"/>
      <point x="28" y="235"/>
      <point x="40" y="330"/>
    </contour>
  </outline>
</glyph>
<glyph name="B" format="2">
  <advance width="538"/>
  <unicode hex="0042"/>
  <outline>
    <contour>
      <point x="95" y="358" type="line"/>
      <point x="106" y="391" type="line" smooth="yes"/>
      <point x="129" y="462"/>
      <point x="134" y="499"/>
      <point x="129" y="536" type="curve" smooth="yes"/>
      <point x="126" y="554"/>
      <point x="122" y="564"/>
      <point x="114" y="579" type="curve" smooth="yes"/>
      <point x="105" y="594"/>
      <point x="102" y="596"/>
      <point x="98" y="587" type="curve" smooth="yes"/>
      <point x="91" y="571"/>
      <point x="75" y="561"/>
      <point x="58" y="561" type="curve" smooth="yes"/>
      <point x="30" y="561"/>
      <point x="12" y="587"/>
      <point x="12" y="612" type="curve" smooth="yes"/>
      <point x="12" y="649"/>
      <point x="51" y="674"/>
      <point x="83" y="683" type="curve" smooth="yes"/>
      <point x="97" y="687"/>
      <point x="105" y="686"/>
      <point x="122" y="680" type="curve" smooth="yes"/>
      <point x="153" y="669"/>
      <point x="191" y="662"/>
      <point x="213" y="663" type="curve"/>
      <point x="222" y="663"/>
      <point x="230" y="663"/>
      <point x="231" y="662" type="curve"/>
      <point x="233" y="660"/>
      <point x="220" y="642"/>
      <point x="210" y="633" type="curve"/>
      <point x="200" y="625" type="line"/>
      <point x="210" y="621" type="line" smooth="yes"/>
      <point x="219" y="617"/>
      <point x="224" y="617"/>
      <point x="267" y="620" type="curve" smooth="yes"/>
      <point x="361" y="626"/>
      <point x="428" y="611"/>
      <point x="463" y="575" type="curve" smooth="yes"/>
      <point x="483" y="555"/>
      <point x="495" y="527"/>
      <point x="495" y="496" type="curve"/>
      <point x="495" y="477"/>
      <point x="492" y="468"/>
      <point x="476" y="444" type="curve" smooth="yes"/>
      <point x="468" y="432"/>
      <point x="468" y="431"/>
      <point x="468" y="410" type="curve" smooth="yes"/>
      <point x="468" y="398"/>
      <point x="469" y="384"/>
      <point x="470" y="378" type="curve" smooth="yes"/>
      <point x="473" y="369"/>
      <point x="466" y="366"/>
      <point x="436" y="366" type="curve" smooth="yes"/>
      <point x="418" y="366"/>
      <point x="412" y="367"/>
      <point x="395" y="373" type="curve" smooth="yes"/>
      <point x="362" y="385"/>
      <point x="323" y="395"/>
      <point x="291" y="400" type="curve"/>
      <point x="272" y="404"/>
      <point x="228" y="404"/>
      <point x="225" y="401" type="curve" smooth="yes"/>
      <point x="222" y="399"/>
      <point x="227" y="384"/>
      <point x="233" y="377" type="curve" smooth="yes"/>
      <point x="238" y="372"/>
      <point x="245" y="368"/>
      <point x="257" y="364" type="curve" smooth="yes"/>
      <point x="267" y="361" type="line" smooth="yes"/>
      <point x="275" y="359"/>
      <point x="277" y="358"/>
      <point x="262" y="358" type="curve" smooth="yes"/>
    </contour>
    <contour>
      <point x="150" y="-12" type="curve" smooth="yes"/>
      <point x="101" y="2"/>
      <point x="67" y="54"/>
      <point x="56" y="93" type="curve" smooth="yes"/>
      <point x="47" y="127"/>
      <point x="46" y="188"/>
      <point x="53" y="218" type="curve" smooth="yes"/>
      <point x="90" y="343" type="line"/>
      <point x="384" y="343" type="line" smooth="yes"/>
      <point x="390" y="343"/>
      <point x="394" y="342"/>
      <point x="403" y="339" type="curve" smooth="yes"/>
      <point x="413" y="336" type="line"/>
      <point x="437" y="327"/>
      <point x="462" y="315"/>
      <point x="481" y="294" type="curve" smooth="yes"/>
      <point x="502" y="271"/>
      <point x="514" y="238"/>
      <point x="512" y="195" type="curve" smooth="yes"/>
      <point x="511" y="179"/>
      <point x="509" y="174"/>
      <point x="478" y="117" type="curve" smooth="yes"/>
      <point x="466" y="95"/>
      <point x="465" y="91"/>
      <point x="465" y="79" type="curve" smooth="yes"/>
      <point x="465" y="67"/>
      <point x="466" y="58"/>
      <point x="473" y="44" type="curve" smooth="yes"/>
      <point x="475" y="39"/>
      <point x="475" y="38"/>
      <point x="461" y="33" type="curve" smooth="yes"/>
      <point x="440" y="26"/>
      <point x="431" y="25"/>
      <point x="418" y="26" type="curve" smooth="yes"/>
      <point x="409" y="27"/>
      <point x="408" y="28"/>
      <point x="388" y="47" type="curve" smooth="yes"/>
      <point x="355" y="78"/>
      <point x="347" y="81"/>
      <point x="301" y="91" type="curve" smooth="yes"/>
      <point x="255" y="102"/>
      <point x="173" y="128"/>
      <point x="161" y="135" type="curve"/>
      <point x="152" y="142"/>
      <point x="149" y="139"/>
      <point x="145" y="104" type="curve" smooth="yes"/>
      <point x="143" y="83"/>
      <point x="142" y="64"/>
      <point x="146" y="43" type="curve"/>
      <point x="149" y="20"/>
      <point x="152" y="15"/>
      <point x="164" y="6" type="curve" smooth="yes"/>
      <point x="178" y="-4"/>
      <point x="179" y="-9"/>
      <point x="170" y="-13" type="curve" smooth="yes"/>
      <point x="162" y="-16"/>
      <point x="162" y="-16"/>
    </contour>
    <contour>
      <point x="211" y="572" type="curve" smooth="yes"/>
      <point x="207" y="573"/>
      <point x="203" y="574"/>
      <point x="202" y="573" type="curve"/>
      <point x="202" y="573"/>
      <point x="204" y="565"/>
      <point x="207" y="558" type="curve" smooth="yes"/>
      <point x="211" y="547"/>
      <point x="215" y="528"/>
      <point x="217" y="514" type="curve" smooth="yes"/>
      <point x="219" y="499"/>
      <point x="222" y="487"/>
      <point x="222" y="487" type="curve"/>
      <point x="225" y="483"/>
      <point x="255" y="477"/>
      <point x="286" y="473" type="curve" smooth="yes"/>
      <point x="322" y="468"/>
      <point x="346" y="462"/>
      <point x="369" y="449" type="curve" smooth="yes"/>
      <point x="375" y="446"/>
      <point x="376" y="446"/>
      <point x="376" y="451" type="curve" smooth="yes"/>
      <point x="376" y="462"/>
      <point x="380" y="475"/>
      <point x="385" y="485" type="curve"/>
      <point x="389" y="496"/>
      <point x="394" y="509"/>
      <point x="395" y="518" type="curve" smooth="yes"/>
      <point x="400" y="546"/>
      <point x="377" y="569"/>
      <point x="336" y="574" type="curve" smooth="yes"/>
      <point x="322" y="576"/>
      <point x="313" y="575"/>
      <point x="264" y="569" type="curve" smooth="yes"/>
      <point x="243" y="566"/>
      <point x="235" y="566"/>
    </contour>
    <contour>
      <point x="386" y="153" type="curve" smooth="yes"/>
      <point x="385" y="163"/>
      <point x="385" y="168"/>
      <point x="385" y="173" type="curve" smooth="yes"/>
      <point x="385" y="183"/>
      <point x="386" y="193"/>
      <point x="388" y="205" type="curve" smooth="yes"/>
      <point x="390" y="218"/>
      <point x="391" y="227"/>
      <point x="391" y="235" type="curve" smooth="yes"/>
      <point x="391" y="249"/>
      <point x="388" y="258"/>
      <point x="379" y="264" type="curve" smooth="yes"/>
      <point x="364" y="275"/>
      <point x="340" y="279"/>
      <point x="268" y="286" type="curve"/>
      <point x="239" y="288"/>
      <point x="227" y="291"/>
      <point x="213" y="300" type="curve" smooth="yes"/>
      <point x="206" y="304"/>
      <point x="201" y="306"/>
      <point x="200" y="306" type="curve"/>
      <point x="200" y="306"/>
      <point x="200" y="304"/>
      <point x="199" y="301" type="curve" smooth="yes"/>
      <point x="198" y="296"/>
      <point x="195" y="288"/>
      <point x="193" y="279" type="curve" smooth="yes"/>
      <point x="168" y="196" type="line"/>
      <point x="168" y="190"/>
      <point x="183" y="185"/>
      <point x="212" y="181" type="curve" smooth="yes"/>
      <point x="269" y="173"/>
      <point x="325" y="163"/>
      <point x="380" y="148" type="curve" smooth="yes"/>
      <point x="383" y="148" type="line" smooth="yes"/>
      <point x="385" y="148"/>
      <point x="386" y="149"/>
    </contour>
  </outline>
</glyph>
<glyph name="C" format="2">
  <advance width="557"/>
  <unicode hex="0043"/>
  <outline>
    <contour>
      <point x="318" y="633" type="line"/>
      <point x="320" y="633"/>
      <point x="323" y="630"/>
      <point x="324" y="627" type="curve" smooth="yes"/>
      <point x="327" y="621"/>
      <point x="336" y="615"/>
      <point x="348" y="608" type="curve" smooth="yes"/>
      <point x="383" y="589"/>
      <point x="414" y="564"/>
      <point x="436" y="537" type="curve" smooth="yes"/>
      <point x="454" y="516"/>
      <point x="476" y="497"/>
      <point x="505" y="487" type="curve" smooth="yes"/>
      <point x="512" y="485"/>
      <point x="513" y="484"/>
      <point x="512" y="483" type="curve"/>
      <point x="505" y="480"/>
      <point x="428" y="480"/>
      <point x="401" y="484" type="curve" smooth="yes"/>
      <point x="383" y="486"/>
      <point x="372" y="492"/>
      <point x="355" y="512" type="curve" smooth="yes"/>
      <point x="322" y="549"/>
      <point x="313" y="556"/>
      <point x="287" y="561" type="curve" smooth="yes"/>
      <point x="279" y="562"/>
      <point x="271" y="564"/>
      <point x="270" y="565" type="curve"/>
      <point x="269" y="566"/>
      <point x="271" y="570"/>
      <point x="276" y="574" type="curve" smooth="yes"/>
      <point x="282" y="580"/>
      <point x="290" y="592"/>
      <point x="298" y="604" type="curve" smooth="yes"/>
    </contour>
    <contour>
      <point x="267" y="441" type="curve" smooth="yes"/>
      <point x="256" y="445"/>
      <point x="249" y="451"/>
      <point x="244" y="462" type="curve" smooth="yes"/>
      <point x="237" y="480"/>
      <point x="243" y="501"/>
      <point x="258" y="512" type="curve"/>
      <point x="268" y="518"/>
      <point x="287" y="518"/>
      <point x="301" y="511" type="curve"/>
      <point x="314" y="503"/>
      <point x="319" y="486"/>
      <point x="318" y="470" type="curve" smooth="yes"/>
      <point x="317" y="460"/>
      <point x="314" y="450"/>
      <point x="298" y="443" type="curve" smooth="yes"/>
      <point x="287" y="438"/>
      <point x="277" y="438"/>
    </contour>
    <contour>
      <point x="262" y="85" type="curve" smooth="yes"/>
      <point x="254" y="96"/>
      <point x="241" y="109"/>
      <point x="232" y="117" type="curve" smooth="yes"/>
      <point x="225" y="123"/>
      <point x="218" y="130"/>
      <point x="218" y="131" type="curve"/>
      <point x="218" y="132"/>
      <point x="222" y="137"/>
      <point x="222" y="137" type="curve"/>
      <point x="239" y="158"/>
      <point x="251" y="184"/>
      <point x="251" y="211" type="curve"/>
      <point x="249" y="251"/>
      <point x="244" y="258"/>
      <point x="219" y="270" type="curve" smooth="yes"/>
      <point x="196" y="281"/>
      <point x="184" y="283"/>
      <point x="169" y="277" type="curve" smooth="yes"/>
      <point x="157" y="272"/>
      <point x="142" y="270"/>
      <point x="141" y="272" type="curve" smooth="yes"/>
      <point x="139" y="275"/>
      <point x="177" y="327"/>
      <point x="188" y="340" type="curve" smooth="yes"/>
      <point x="191" y="343"/>
      <point x="191" y="343"/>
      <point x="196" y="343" type="curve" smooth="yes"/>
      <point x="381" y="343" type="line"/>
      <point x="365" y="324" type="line" smooth="yes"/>
      <point x="342" y="296"/>
      <point x="316" y="256"/>
      <point x="312" y="246" type="curve" smooth="yes"/>
      <point x="310" y="240"/>
      <point x="309" y="228"/>
      <point x="309" y="216" type="curve" smooth="yes"/>
      <point x="309" y="185"/>
      <point x="315" y="164"/>
      <point x="331" y="144" type="curve" smooth="yes"/>
      <point x="334" y="140"/>
      <point x="339" y="133"/>
      <point x="339" y="132" type="curve"/>
      <point x="339" y="130"/>
      <point x="331" y="121"/>
      <point x="321" y="112" type="curve"/>
      <point x="293" y="82" type="line"/>
      <point x="288" y="74"/>
      <point x="281" y="68"/>
      <point x="279" y="68" type="curve"/>
      <point x="277" y="68"/>
      <point x="269" y="76"/>
    </contour>
    <contour>
      <point x="428" y="-24" type="curve" smooth="yes"/>
      <point x="422" y="-17"/>
      <point x="407" y="-2"/>
      <point x="397" y="6" type="curve" smooth="yes"/>
      <point x="378" y="20" type="line"/>
      <point x="388" y="31" type="line" smooth="yes"/>
      <point x="414" y="59"/>
      <point x="422" y="121"/>
      <point x="409" y="197" type="curve"/>
      <point x="405" y="226"/>
      <point x="403" y="227"/>
      <point x="387" y="222" type="curve" smooth="yes"/>
      <point x="356" y="212"/>
      <point x="367" y="209"/>
      <point x="345" y="227" type="curve"/>
      <point x="333" y="236" type="line" smooth="yes"/>
      <point x="328" y="239"/>
      <point x="326" y="241"/>
      <point x="326" y="242" type="curve"/>
      <point x="326" y="251"/>
      <point x="379" y="309"/>
      <point x="387" y="309" type="curve"/>
      <point x="389" y="309"/>
      <point x="399" y="305"/>
      <point x="406" y="302" type="curve" smooth="yes"/>
      <point x="420" y="295"/>
      <point x="442" y="288"/>
      <point x="464" y="282" type="curve"/>
      <point x="504" y="273"/>
      <point x="516" y="268"/>
      <point x="520" y="261" type="curve" smooth="yes"/>
      <point x="522" y="257"/>
      <point x="521" y="256"/>
      <point x="508" y="254" type="curve" smooth="yes"/>
      <point x="493" y="251"/>
      <point x="483" y="248"/>
      <point x="478" y="245" type="curve" smooth="yes"/>
      <point x="468" y="239"/>
      <point x="466" y="224"/>
      <point x="466" y="161" type="curve" smooth="yes"/>
      <point x="466" y="116"/>
      <point x="467" y="101"/>
      <point x="470" y="83" type="curve"/>
      <point x="476" y="59"/>
      <point x="484" y="41"/>
      <point x="495" y="29" type="curve"/>
      <point x="503" y="21" type="line"/>
      <point x="503" y="21"/>
      <point x="486" y="9"/>
      <point x="477" y="0" type="curve" smooth="yes"/>
      <point x="468" y="-8"/>
      <point x="459" y="-20"/>
      <point x="451" y="-31" type="curve" smooth="yes"/>
      <point x="442" y="-44"/>
      <point x="442" y="-43"/>
    </contour>
    <contour>
      <point x="33" y="474" type="curve" smooth="yes"/>
      <point x="30" y="476"/>
      <point x="27" y="478"/>
      <point x="25" y="480" type="curve" smooth="yes"/>
      <point x="20" y="485" type="line"/>
      <point x="20" y="506"/>
      <point x="67" y="531"/>
      <point x="84" y="536" type="curve" smooth="yes"/>
      <point x="110" y="543"/>
      <point x="169" y="588"/>
      <point x="193" y="619" type="curve" smooth="yes"/>
      <point x="206" y="636"/>
      <point x="217" y="659"/>
      <point x="214" y="671" type="curve" smooth="yes"/>
      <point x="213" y="677"/>
      <point x="208" y="679"/>
      <point x="190" y="677" type="curve" smooth="yes"/>
      <point x="178" y="675"/>
      <point x="176" y="676"/>
      <point x="176" y="679" type="curve" smooth="yes"/>
      <point x="176" y="686"/>
      <point x="188" y="698"/>
      <point x="204" y="705" type="curve"/>
      <point x="211" y="709"/>
      <point x="214" y="709"/>
      <point x="244" y="708" type="curve"/>
      <point x="289" y="704" type="line"/>
      <point x="308" y="699"/>
      <point x="343" y="701"/>
      <point x="363" y="706" type="curve"/>
      <point x="392" y="715"/>
      <point x="394" y="715"/>
      <point x="394" y="711" type="curve" smooth="yes"/>
      <point x="394" y="700"/>
      <point x="378" y="686"/>
      <point x="355" y="675" type="curve" smooth="yes"/>
      <point x="325" y="660"/>
      <point x="297" y="635"/>
      <point x="287" y="614" type="curve" smooth="yes"/>
      <point x="284" y="609"/>
      <point x="278" y="599"/>
      <point x="274" y="594" type="curve" smooth="yes"/>
      <point x="261" y="575"/>
      <point x="212" y="527"/>
      <point x="185" y="506" type="curve" smooth="yes"/>
      <point x="176" y="499"/>
      <point x="176" y="498"/>
      <point x="176" y="495" type="curve"/>
      <point x="181" y="469"/>
      <point x="202" y="440"/>
      <point x="238" y="410" type="curve" smooth="yes"/>
      <point x="282" y="373"/>
      <point x="278" y="375"/>
      <point x="293" y="384" type="curve" smooth="yes"/>
      <point x="311" y="395"/>
      <point x="348" y="424"/>
      <point x="361" y="440" type="curve" smooth="yes"/>
      <point x="375" y="458" type="line"/>
      <point x="429" y="458" type="line" smooth="yes"/>
      <point x="462" y="458"/>
      <point x="485" y="455"/>
      <point x="490" y="452" type="curve" smooth="yes"/>
      <point x="492" y="451"/>
      <point x="491" y="450"/>
      <point x="487" y="447" type="curve" smooth="yes"/>
      <point x="429" y="394" type="line"/>
      <point x="393" y="358" type="line"/>
      <point x="187" y="358" type="line" smooth="yes"/>
      <point x="180" y="358"/>
      <point x="178" y="359"/>
      <point x="171" y="365" type="curve" smooth="yes"/>
      <point x="165" y="370"/>
      <point x="155" y="378"/>
      <point x="137" y="401" type="curve" smooth="yes"/>
      <point x="109" y="439"/>
      <point x="83" y="460"/>
      <point x="63" y="460" type="curve" smooth="yes"/>
      <point x="56" y="460"/>
      <point x="49" y="463"/>
    </contour>
  </outline>
</glyph>
<glyph name="E" format="2">
  <advance width="514"/>
  <unicode hex="0045"/>
  <outline>
    <contour>
      <point x="67" y="374" type="curve"/>
      <point x="70" y="403"/>
      <point x="78" y="416"/>
      <point x="128" y="467" type="curve" smooth="yes"/>
      <point x="153" y="492"/>
      <point x="175" y="517"/>
      <point x="178" y="522" type="curve" smooth="yes"/>
      <point x="185" y="535"/>
      <point x="184" y="570"/>
      <point x="177" y="582" type="curve" smooth="yes"/>
      <point x="171" y="594"/>
      <point x="157" y="602"/>
      <point x="144" y="602" type="curve" smooth="yes"/>
      <point x="133" y="602"/>
      <point x="129" y="598"/>
      <point x="122" y="582" type="curve" smooth="yes"/>
      <point x="114" y="566"/>
      <point x="99" y="551"/>
      <point x="87" y="548" type="curve" smooth="yes"/>
      <point x="55" y="539"/>
      <point x="15" y="562"/>
      <point x="11" y="593" type="curve"/>
      <point x="8" y="610"/>
      <point x="11" y="632"/>
      <point x="20" y="648" type="curve" smooth="yes"/>
      <point x="27" y="660"/>
      <point x="29" y="662"/>
      <point x="43" y="671" type="curve" smooth="yes"/>
      <point x="66" y="685"/>
      <point x="90" y="690"/>
      <point x="118" y="690" type="curve" smooth="yes"/>
      <point x="164" y="690"/>
      <point x="200" y="674"/>
      <point x="247" y="635" type="curve" smooth="yes"/>
      <point x="328" y="567"/>
      <point x="361" y="547"/>
      <point x="425" y="531" type="curve" smooth="yes"/>
      <point x="429" y="530"/>
      <point x="446" y="528"/>
      <point x="462" y="527" type="curve" smooth="yes"/>
      <point x="479" y="525"/>
      <point x="493" y="524"/>
      <point x="494" y="523" type="curve"/>
      <point x="498" y="519"/>
      <point x="486" y="507"/>
      <point x="473" y="501" type="curve" smooth="yes"/>
      <point x="402" y="468"/>
      <point x="347" y="463"/>
      <point x="277" y="483" type="curve" smooth="yes"/>
      <point x="258" y="489"/>
      <point x="254" y="489"/>
      <point x="254" y="482" type="curve" smooth="yes"/>
      <point x="254" y="480"/>
      <point x="250" y="471"/>
      <point x="246" y="461" type="curve" smooth="yes"/>
      <point x="246" y="461"/>
      <point x="237" y="447"/>
      <point x="238" y="445" type="curve" smooth="yes"/>
      <point x="238" y="443"/>
      <point x="247" y="436"/>
      <point x="247" y="436" type="curve" smooth="yes"/>
      <point x="253" y="430"/>
      <point x="261" y="426"/>
      <point x="275" y="423" type="curve" smooth="yes"/>
      <point x="299" y="417"/>
      <point x="324" y="409"/>
      <point x="334" y="404" type="curve" smooth="yes"/>
      <point x="343" y="399"/>
      <point x="367" y="373"/>
      <point x="372" y="363" type="curve" smooth="yes"/>
      <point x="374" y="358"/>
      <point x="371" y="358"/>
      <point x="367" y="358" type="curve" smooth="yes"/>
      <point x="71" y="358" type="line" smooth="yes"/>
      <point x="65" y="358"/>
      <point x="67" y="374"/>
    </contour>
    <contour>
      <point x="415" y="552" type="curve"/>
      <point x="402" y="555"/>
      <point x="359" y="574"/>
      <point x="343" y="585" type="curve" smooth="yes"/>
      <point x="339" y="588"/>
      <point x="329" y="594"/>
      <point x="320" y="600" type="curve" smooth="yes"/>
      <point x="312" y="605"/>
      <point x="305" y="611"/>
      <point x="305" y="612" type="curve"/>
      <point x="305" y="614"/>
      <point x="309" y="615"/>
      <point x="315" y="615" type="curve" smooth="yes"/>
      <point x="327" y="615"/>
      <point x="398" y="628"/>
      <point x="435" y="637" type="curve" smooth="yes"/>
      <point x="450" y="641"/>
      <point x="467" y="644"/>
      <point x="472" y="645" type="curve" smooth="yes"/>
      <point x="482" y="646"/>
      <point x="483" y="645"/>
      <point x="484" y="638" type="curve" smooth="yes"/>
      <point x="485" y="626"/>
      <point x="475" y="596"/>
      <point x="463" y="578" type="curve" smooth="yes"/>
      <point x="450" y="559"/>
      <point x="433" y="550"/>
    </contour>
    <contour>
      <point x="291" y="249" type="curve" smooth="yes"/>
      <point x="275" y="253"/>
      <point x="258" y="264"/>
      <point x="215" y="296" type="curve" smooth="yes"/>
      <point x="172" y="328"/>
      <point x="164" y="337"/>
      <point x="168" y="341" type="curve" smooth="yes"/>
      <point x="170" y="342"/>
      <point x="171" y="343"/>
      <point x="174" y="343" type="curve" smooth="yes"/>
      <point x="336" y="343" type="line" smooth="yes"/>
      <point x="341" y="343"/>
      <point x="342" y="343"/>
      <point x="352" y="335" type="curve" smooth="yes"/>
      <point x="359" y="330"/>
      <point x="371" y="320"/>
      <point x="381" y="312" type="curve" smooth="yes"/>
      <point x="392" y="303"/>
      <point x="411" y="287"/>
      <point x="425" y="276" type="curve" smooth="yes"/>
      <point x="440" y="264"/>
      <point x="451" y="253"/>
      <point x="451" y="251" type="curve"/>
      <point x="451" y="247"/>
      <point x="445" y="246"/>
      <point x="377" y="246" type="curve"/>
      <point x="321" y="246"/>
      <point x="300" y="246"/>
    </contour>
    <contour>
      <point x="413" y="-26" type="curve" smooth="yes"/>
      <point x="409" y="-24"/>
      <point x="396" y="-17"/>
      <point x="384" y="-10" type="curve" smooth="yes"/>
      <point x="324" y="23"/>
      <point x="185" y="107"/>
      <point x="178" y="116" type="curve"/>
      <point x="157" y="139"/>
      <point x="69" y="308"/>
      <point x="69" y="325" type="curve" smooth="yes"/>
      <point x="69" y="332"/>
      <point x="70" y="334"/>
      <point x="73" y="333" type="curve" smooth="yes"/>
      <point x="78" y="332"/>
      <point x="128" y="302"/>
      <point x="212" y="250" type="curve" smooth="yes"/>
      <point x="257" y="223"/>
      <point x="267" y="212"/>
      <point x="331" y="124" type="curve" smooth="yes"/>
      <point x="393" y="38"/>
      <point x="434" y="-22"/>
      <point x="432" y="-27" type="curve" smooth="yes"/>
      <point x="430" y="-32"/>
      <point x="423" y="-32"/>
    </contour>
    <contour>
      <point x="373" y="136" type="curve" smooth="yes"/>
      <point x="368" y="138"/>
      <point x="360" y="146"/>
      <point x="356" y="152" type="curve" smooth="yes"/>
      <point x="347" y="165"/>
      <point x="348" y="187"/>
      <point x="357" y="196" type="curve" smooth="yes"/>
      <point x="379" y="221"/>
      <point x="415" y="215"/>
      <point x="428" y="187" type="curve" smooth="yes"/>
      <point x="433" y="177"/>
      <point x="432" y="159"/>
      <point x="424" y="148" type="curve" smooth="yes"/>
      <point x="413" y="134"/>
      <point x="393" y="128"/>
    </contour>
  </outline>
</glyph>
<glyph name="J" format="2">
  <advance width="449"/>
  <unicode hex="004A"/>
  <outline>
    <contour>
      <point x="272" y="360" type="curve" smooth="yes"/>
      <point x="271" y="362"/>
      <point x="270" y="370"/>
      <point x="267" y="382" type="curve" smooth="yes"/>
      <point x="259" y="412"/>
      <point x="252" y="429"/>
      <point x="235" y="457" type="curve" smooth="yes"/>
      <point x="215" y="489"/>
      <point x="195" y="511"/>
      <point x="188" y="508" type="curve"/>
      <point x="179" y="506"/>
      <point x="126" y="474"/>
      <point x="110" y="462" type="curve" smooth="yes"/>
      <point x="89" y="447"/>
      <point x="51" y="409"/>
      <point x="43" y="396" type="curve" smooth="yes"/>
      <point x="40" y="390"/>
      <point x="36" y="385"/>
      <point x="35" y="385" type="curve"/>
      <point x="34" y="385"/>
      <point x="30" y="389"/>
      <point x="27" y="395" type="curve" smooth="yes"/>
      <point x="20" y="406"/>
      <point x="19" y="420"/>
      <point x="25" y="429" type="curve" smooth="yes"/>
      <point x="32" y="440"/>
      <point x="33" y="462"/>
      <point x="29" y="480" type="curve" smooth="yes"/>
      <point x="23" y="503"/>
      <point x="23" y="524"/>
      <point x="30" y="541" type="curve" smooth="yes"/>
      <point x="35" y="553"/>
      <point x="38" y="557"/>
      <point x="49" y="562" type="curve"/>
      <point x="61" y="569"/>
      <point x="85" y="576"/>
      <point x="122" y="584" type="curve" smooth="yes"/>
      <point x="169" y="595"/>
      <point x="195" y="606"/>
      <point x="218" y="627" type="curve" smooth="yes"/>
      <point x="235" y="643"/>
      <point x="237" y="651"/>
      <point x="225" y="662" type="curve" smooth="yes"/>
      <point x="218" y="669"/>
      <point x="201" y="673"/>
      <point x="164" y="678" type="curve"/>
      <point x="151" y="679"/>
      <point x="149" y="682"/>
      <point x="157" y="687" type="curve"/>
      <point x="162" y="689"/>
      <point x="226" y="700"/>
      <point x="256" y="704" type="curve" smooth="yes"/>
      <point x="273" y="706"/>
      <point x="299" y="701"/>
      <point x="342" y="688" type="curve" smooth="yes"/>
      <point x="367" y="680"/>
      <point x="379" y="678"/>
      <point x="395" y="678" type="curve" smooth="yes"/>
      <point x="413" y="678"/>
      <point x="415" y="677"/>
      <point x="416" y="673" type="curve" smooth="yes"/>
      <point x="419" y="660"/>
      <point x="409" y="646"/>
      <point x="374" y="619" type="curve"/>
      <point x="356" y="604" type="line"/>
      <point x="353" y="581" type="line"/>
      <point x="347" y="527"/>
      <point x="360" y="468"/>
      <point x="396" y="389" type="curve" smooth="yes"/>
      <point x="404" y="373"/>
      <point x="406" y="367"/>
      <point x="409" y="360" type="curve" smooth="yes"/>
      <point x="410" y="357"/>
      <point x="410" y="357"/>
      <point x="406" y="357" type="curve" smooth="yes"/>
      <point x="371" y="357" type="line" smooth="yes"/>
      <point x="368" y="357"/>
      <point x="367" y="357"/>
      <point x="366" y="359" type="curve" smooth="yes"/>
      <point x="363" y="364"/>
      <point x="362" y="367"/>
      <point x="348" y="403" type="curve" smooth="yes"/>
      <point x="323" y="465"/>
      <point x="313" y="503"/>
      <point x="309" y="549" type="curve"/>
      <point x="308" y="572"/>
      <point x="310" y="580"/>
      <point x="296" y="567" type="curve" smooth="yes"/>
      <point x="290" y="561"/>
      <point x="291" y="559"/>
      <point x="291" y="531" type="curve" smooth="yes"/>
      <point x="291" y="515"/>
      <point x="295" y="490"/>
      <point x="297" y="478" type="curve" smooth="yes"/>
      <point x="302" y="449"/>
      <point x="320" y="395"/>
      <point x="330" y="372" type="curve" smooth="yes"/>
      <point x="334" y="364"/>
      <point x="335" y="361"/>
      <point x="336" y="359" type="curve"/>
      <point x="336" y="358"/>
      <point x="336" y="358"/>
      <point x="334" y="358" type="curve"/>
      <point x="275" y="358" type="line"/>
      <point x="273" y="358"/>
      <point x="273" y="358"/>
    </contour>
    <contour>
      <point x="97" y="23" type="curve" smooth="yes"/>
      <point x="88" y="25"/>
      <point x="77" y="29"/>
      <point x="74" y="31" type="curve" smooth="yes"/>
      <point x="60" y="38"/>
      <point x="45" y="53"/>
      <point x="37" y="66" type="curve"/>
      <point x="23" y="92"/>
      <point x="26" y="126"/>
      <point x="45" y="151" type="curve" smooth="yes"/>
      <point x="58" y="168"/>
      <point x="80" y="177"/>
      <point x="104" y="177" type="curve" smooth="yes"/>
      <point x="139" y="177"/>
      <point x="168" y="157"/>
      <point x="168" y="131" type="curve" smooth="yes"/>
      <point x="168" y="125"/>
      <point x="169" y="119"/>
      <point x="170" y="118" type="curve"/>
      <point x="175" y="115"/>
      <point x="220" y="158"/>
      <point x="236" y="180" type="curve" smooth="yes"/>
      <point x="262" y="218"/>
      <point x="275" y="265"/>
      <point x="275" y="321" type="curve" smooth="yes"/>
      <point x="275" y="326"/>
      <point x="275" y="330"/>
      <point x="275" y="340" type="curve"/>
      <point x="275" y="343"/>
      <point x="275" y="343"/>
      <point x="278" y="343" type="curve" smooth="yes"/>
      <point x="339" y="343" type="line" smooth="yes"/>
      <point x="342" y="343"/>
      <point x="343" y="343"/>
      <point x="344" y="340" type="curve" smooth="yes"/>
      <point x="346" y="336"/>
      <point x="349" y="326"/>
      <point x="353" y="313" type="curve" smooth="yes"/>
      <point x="359" y="291"/>
      <point x="365" y="259"/>
      <point x="365" y="243" type="curve"/>
      <point x="366" y="231"/>
      <point x="373" y="252"/>
      <point x="376" y="273" type="curve" smooth="yes"/>
      <point x="378" y="290"/>
      <point x="378" y="301"/>
      <point x="376" y="316" type="curve" smooth="yes"/>
      <point x="375" y="325"/>
      <point x="375" y="325"/>
      <point x="374" y="331" type="curve" smooth="yes"/>
      <point x="373" y="339"/>
      <point x="371" y="343"/>
      <point x="373" y="343" type="curve"/>
      <point x="410" y="343" type="line"/>
      <point x="412" y="343"/>
      <point x="413" y="343"/>
      <point x="413" y="341" type="curve"/>
      <point x="416" y="333"/>
      <point x="419" y="313"/>
      <point x="419" y="313" type="curve"/>
      <point x="423" y="279"/>
      <point x="420" y="257"/>
      <point x="406" y="220" type="curve" smooth="yes"/>
      <point x="378" y="150"/>
      <point x="343" y="111"/>
      <point x="261" y="55" type="curve" smooth="yes"/>
      <point x="243" y="43"/>
      <point x="208" y="27"/>
      <point x="190" y="22" type="curve" smooth="yes"/>
      <point x="168" y="16"/>
      <point x="119" y="17"/>
    </contour>
  </outline>
</glyph>
<glyph name="L" format="2">
  <advance width="531"/>
  <unicode hex="004C"/>
  <outline>
    <contour>
      <point x="255" y="391" type="curve" smooth="yes"/>
      <point x="252" y="396"/>
      <point x="244" y="414"/>
      <point x="237" y="432" type="curve" smooth="yes"/>
      <point x="224" y="462"/>
      <point x="223" y="464"/>
      <point x="222" y="495" type="curve" smooth="yes"/>
      <point x="219" y="556"/>
      <point x="206" y="587"/>
      <point x="169" y="624" type="curve" smooth="yes"/>
      <point x="143" y="649"/>
      <point x="132" y="663"/>
      <point x="134" y="668" type="curve" smooth="yes"/>
      <point x="136" y="673"/>
      <point x="177" y="680"/>
      <point x="205" y="680" type="curve" smooth="yes"/>
      <point x="219" y="680"/>
      <point x="246" y="678"/>
      <point x="265" y="676" type="curve" smooth="yes"/>
      <point x="310" y="671"/>
      <point x="331" y="672"/>
      <point x="361" y="683" type="curve" smooth="yes"/>
      <point x="373" y="687"/>
      <point x="384" y="692"/>
      <point x="385" y="693" type="curve"/>
      <point x="388" y="698"/>
      <point x="394" y="696"/>
      <point x="394" y="690" type="curve" smooth="yes"/>
      <point x="394" y="673"/>
      <point x="385" y="658"/>
      <point x="354" y="626" type="curve" smooth="yes"/>
      <point x="327" y="597"/>
      <point x="323" y="592"/>
      <point x="315" y="572" type="curve" smooth="yes"/>
      <point x="304" y="543"/>
      <point x="296" y="502"/>
      <point x="298" y="482" type="curve" smooth="yes"/>
      <point x="300" y="468"/>
      <point x="299" y="465"/>
      <point x="287" y="437" type="curve" smooth="yes"/>
      <point x="274" y="407"/>
      <point x="263" y="383"/>
      <point x="261" y="383" type="curve"/>
      <point x="261" y="383"/>
      <point x="258" y="387"/>
    </contour>
    <contour>
      <point x="64" y="464" type="curve" smooth="yes"/>
      <point x="62" y="465"/>
      <point x="60" y="471"/>
      <point x="59" y="477" type="curve" smooth="yes"/>
      <point x="58" y="484"/>
      <point x="54" y="500"/>
      <point x="50" y="513" type="curve" smooth="yes"/>
      <point x="44" y="532"/>
      <point x="43" y="542"/>
      <point x="43" y="566" type="curve" smooth="yes"/>
      <point x="43" y="593"/>
      <point x="48" y="625"/>
      <point x="52" y="625" type="curve"/>
      <point x="53" y="625"/>
      <point x="59" y="620"/>
      <point x="64" y="614" type="curve" smooth="yes"/>
      <point x="70" y="608"/>
      <point x="84" y="594"/>
      <point x="96" y="584" type="curve" smooth="yes"/>
      <point x="117" y="566"/>
      <point x="131" y="547"/>
      <point x="131" y="536" type="curve" smooth="yes"/>
      <point x="131" y="532"/>
      <point x="126" y="527"/>
      <point x="117" y="520" type="curve" smooth="yes"/>
      <point x="101" y="508"/>
      <point x="93" y="498"/>
      <point x="86" y="482" type="curve"/>
      <point x="84" y="475"/>
      <point x="79" y="468"/>
      <point x="75" y="466" type="curve" smooth="yes"/>
      <point x="68" y="461"/>
      <point x="68" y="461"/>
    </contour>
    <contour>
      <point x="446" y="465" type="curve" smooth="yes"/>
      <point x="443" y="466"/>
      <point x="438" y="475"/>
      <point x="434" y="484" type="curve" smooth="yes"/>
      <point x="426" y="500"/>
      <point x="411" y="517"/>
      <point x="399" y="523" type="curve" smooth="yes"/>
      <point x="380" y="533"/>
      <point x="401" y="569"/>
      <point x="440" y="597" type="curve" smooth="yes"/>
      <point x="450" y="604"/>
      <point x="459" y="613"/>
      <point x="461" y="617" type="curve" smooth="yes"/>
      <point x="468" y="629"/>
      <point x="472" y="627"/>
      <point x="476" y="608" type="curve" smooth="yes"/>
      <point x="481" y="582"/>
      <point x="480" y="549"/>
      <point x="472" y="513" type="curve" smooth="yes"/>
      <point x="460" y="462"/>
      <point x="458" y="458"/>
    </contour>
    <contour>
      <point x="386" y="371" type="curve" smooth="yes"/>
      <point x="386" y="390"/>
      <point x="374" y="428"/>
      <point x="363" y="446" type="curve" smooth="yes"/>
      <point x="347" y="473"/>
      <point x="346" y="473"/>
      <point x="348" y="483" type="curve" smooth="yes"/>
      <point x="349" y="488"/>
      <point x="350" y="493"/>
      <point x="351" y="494" type="curve"/>
      <point x="352" y="495"/>
      <point x="358" y="491"/>
      <point x="365" y="486" type="curve"/>
      <point x="371" y="480"/>
      <point x="387" y="470"/>
      <point x="400" y="463" type="curve" smooth="yes"/>
      <point x="435" y="444"/>
      <point x="447" y="431"/>
      <point x="461" y="402" type="curve" smooth="yes"/>
      <point x="468" y="389"/>
      <point x="474" y="375"/>
      <point x="475" y="368" type="curve" smooth="yes"/>
      <point x="476" y="363"/>
      <point x="476" y="364"/>
      <point x="477" y="361" type="curve"/>
      <point x="477" y="358"/>
      <point x="477" y="358"/>
      <point x="474" y="358" type="curve" smooth="yes"/>
      <point x="389" y="358" type="line"/>
      <point x="387" y="358"/>
      <point x="386" y="358"/>
      <point x="386" y="361" type="curve" smooth="yes"/>
      <point x="386" y="364"/>
      <point x="386" y="368"/>
    </contour>
    <contour>
      <point x="251" y="7" type="curve" smooth="yes"/>
      <point x="248" y="13"/>
      <point x="238" y="32"/>
      <point x="230" y="49" type="curve"/>
      <point x="221" y="65"/>
      <point x="212" y="82"/>
      <point x="208" y="86" type="curve" smooth="yes"/>
      <point x="204" y="90"/>
      <point x="192" y="99"/>
      <point x="180" y="106" type="curve" smooth="yes"/>
      <point x="135" y="134"/>
      <point x="121" y="152"/>
      <point x="130" y="176" type="curve" smooth="yes"/>
      <point x="134" y="187"/>
      <point x="133" y="189"/>
      <point x="128" y="201" type="curve" smooth="yes"/>
      <point x="118" y="222"/>
      <point x="99" y="225"/>
      <point x="90" y="206" type="curve" smooth="yes"/>
      <point x="86" y="199"/>
      <point x="86" y="197"/>
      <point x="91" y="184" type="curve" smooth="yes"/>
      <point x="100" y="163"/>
      <point x="100" y="157"/>
      <point x="90" y="148" type="curve"/>
      <point x="86" y="143"/>
      <point x="77" y="131"/>
      <point x="70" y="120" type="curve" smooth="yes"/>
      <point x="58" y="100"/>
      <point x="56" y="97"/>
      <point x="52" y="101" type="curve" smooth="yes"/>
      <point x="50" y="102"/>
      <point x="44" y="117"/>
      <point x="39" y="134" type="curve" smooth="yes"/>
      <point x="26" y="173"/>
      <point x="26" y="184"/>
      <point x="40" y="225" type="curve"/>
      <point x="49" y="253" type="line"/>
      <point x="45" y="268" type="line"/>
      <point x="40" y="284"/>
      <point x="40" y="331"/>
      <point x="42" y="340" type="curve" smooth="yes"/>
      <point x="43" y="342"/>
      <point x="43" y="343"/>
      <point x="46" y="343" type="curve" smooth="yes"/>
      <point x="131" y="343" type="line"/>
      <point x="133" y="343"/>
      <point x="133" y="343"/>
      <point x="134" y="341" type="curve"/>
      <point x="135" y="336" type="line"/>
      <point x="146" y="291"/>
      <point x="162" y="267"/>
      <point x="195" y="251" type="curve" smooth="yes"/>
      <point x="211" y="244"/>
      <point x="223" y="235"/>
      <point x="239" y="220" type="curve" smooth="yes"/>
      <point x="261" y="199" type="line"/>
      <point x="284" y="220" type="line"/>
      <point x="301" y="237"/>
      <point x="311" y="244"/>
      <point x="327" y="251" type="curve"/>
      <point x="338" y="257"/>
      <point x="352" y="265"/>
      <point x="356" y="270" type="curve" smooth="yes"/>
      <point x="371" y="286"/>
      <point x="383" y="316"/>
      <point x="386" y="336" type="curve"/>
      <point x="387" y="339" type="line"/>
      <point x="387" y="343"/>
      <point x="387" y="343"/>
      <point x="390" y="343" type="curve" smooth="yes"/>
      <point x="474" y="343" type="line" smooth="yes"/>
      <point x="479" y="343"/>
      <point x="479" y="343"/>
      <point x="479" y="338" type="curve"/>
      <point x="480" y="330"/>
      <point x="481" y="324"/>
      <point x="481" y="315" type="curve" smooth="yes"/>
      <point x="481" y="303"/>
      <point x="479" y="279"/>
      <point x="477" y="269" type="curve" smooth="yes"/>
      <point x="473" y="251"/>
      <point x="474" y="243"/>
      <point x="484" y="220" type="curve" smooth="yes"/>
      <point x="491" y="203"/>
      <point x="494" y="182"/>
      <point x="491" y="165" type="curve" smooth="yes"/>
      <point x="488" y="150"/>
      <point x="474" y="108"/>
      <point x="470" y="102" type="curve" smooth="yes"/>
      <point x="466" y="97"/>
      <point x="464" y="99"/>
      <point x="454" y="117" type="curve" smooth="yes"/>
      <point x="449" y="125"/>
      <point x="441" y="137"/>
      <point x="435" y="143" type="curve" smooth="yes"/>
      <point x="423" y="156"/>
      <point x="422" y="166"/>
      <point x="429" y="181" type="curve" smooth="yes"/>
      <point x="435" y="193"/>
      <point x="435" y="205"/>
      <point x="427" y="213" type="curve" smooth="yes"/>
      <point x="420" y="221"/>
      <point x="413" y="221"/>
      <point x="405" y="215" type="curve" smooth="yes"/>
      <point x="393" y="205"/>
      <point x="391" y="198"/>
      <point x="393" y="175" type="curve" smooth="yes"/>
      <point x="395" y="144"/>
      <point x="391" y="140"/>
      <point x="340" y="105" type="curve" smooth="yes"/>
      <point x="309" y="84" type="line"/>
      <point x="288" y="41" type="line" smooth="yes"/>
      <point x="275" y="14"/>
      <point x="265" y="-3"/>
      <point x="262" y="-3" type="curve"/>
      <point x="259" y="-4"/>
      <point x="255" y="0"/>
    </contour>
    <contour>
      <point x="44" y="361" type="curve"/>
      <point x="47" y="381"/>
      <point x="70" y="422"/>
      <point x="81" y="434" type="curve" smooth="yes"/>
      <point x="87" y="441"/>
      <point x="105" y="453"/>
      <point x="126" y="465" type="curve" smooth="yes"/>
      <point x="144" y="476"/>
      <point x="161" y="488"/>
      <point x="162" y="491" type="curve"/>
      <point x="167" y="498"/>
      <point x="170" y="497"/>
      <point x="173" y="487" type="curve" smooth="yes"/>
      <point x="176" y="477"/>
      <point x="175" y="471"/>
      <point x="161" y="450" type="curve" smooth="yes"/>
      <point x="145" y="425"/>
      <point x="138" y="402"/>
      <point x="134" y="359" type="curve"/>
      <point x="134" y="358"/>
      <point x="133" y="358"/>
      <point x="132" y="358" type="curve"/>
      <point x="46" y="358" type="line"/>
      <point x="44" y="358"/>
      <point x="44" y="359"/>
    </contour>
  </outline>
</glyph>
<glyph name="N" format="2">
  <advance width="537"/>
  <unicode hex="004E"/>
  <outline>
    <contour>
      <point x="38" y="363" type="curve"/>
      <point x="36" y="376"/>
      <point x="38" y="417"/>
      <point x="41" y="437" type="curve" smooth="yes"/>
      <point x="52" y="502"/>
      <point x="87" y="567"/>
      <point x="141" y="621" type="curve" smooth="yes"/>
      <point x="165" y="645"/>
      <point x="219" y="683"/>
      <point x="253" y="701" type="curve" smooth="yes"/>
      <point x="272" y="711" type="line"/>
      <point x="282" y="706" type="line" smooth="yes"/>
      <point x="292" y="701"/>
      <point x="302" y="688"/>
      <point x="330" y="649" type="curve" smooth="yes"/>
      <point x="366" y="597"/>
      <point x="437" y="513"/>
      <point x="457" y="496" type="curve" smooth="yes"/>
      <point x="484" y="474"/>
      <point x="482" y="478"/>
      <point x="486" y="436" type="curve"/>
      <point x="487" y="415"/>
      <point x="488" y="390"/>
      <point x="488" y="379" type="curve"/>
      <point x="488" y="379"/>
      <point x="488" y="371"/>
      <point x="488" y="367" type="curve" smooth="yes"/>
      <point x="488" y="360"/>
      <point x="487" y="358"/>
      <point x="480" y="358" type="curve" smooth="yes"/>
      <point x="416" y="358" type="line" smooth="yes"/>
      <point x="409" y="358"/>
      <point x="409" y="360"/>
      <point x="408" y="367" type="curve"/>
      <point x="408" y="372"/>
      <point x="407" y="387"/>
      <point x="407" y="387" type="curve"/>
      <point x="406" y="402"/>
      <point x="404" y="420"/>
      <point x="403" y="427" type="curve" smooth="yes"/>
      <point x="397" y="454"/>
      <point x="372" y="500"/>
      <point x="345" y="534" type="curve" smooth="yes"/>
      <point x="326" y="558"/>
      <point x="272" y="614"/>
      <point x="268" y="614" type="curve" smooth="yes"/>
      <point x="261" y="614"/>
      <point x="219" y="576"/>
      <point x="197" y="551" type="curve" smooth="yes"/>
      <point x="184" y="537"/>
      <point x="169" y="518"/>
      <point x="164" y="509" type="curve" smooth="yes"/>
      <point x="143" y="473"/>
      <point x="128" y="424"/>
      <point x="127" y="381" type="curve"/>
      <point x="127" y="375"/>
      <point x="127" y="368"/>
      <point x="127" y="363" type="curve" smooth="yes"/>
      <point x="127" y="359"/>
      <point x="126" y="358"/>
      <point x="123" y="358" type="curve" smooth="yes"/>
      <point x="42" y="358" type="line" smooth="yes"/>
      <point x="39" y="358"/>
      <point x="38" y="358"/>
    </contour>
    <contour>
      <point x="175" y="369" type="curve" smooth="yes"/>
      <point x="167" y="406"/>
      <point x="187" y="441"/>
      <point x="225" y="485" type="curve" smooth="yes"/>
      <point x="231" y="493"/>
      <point x="243" y="504"/>
      <point x="250" y="509" type="curve" smooth="yes"/>
      <point x="261" y="518"/>
      <point x="265" y="519"/>
      <point x="269" y="517" type="curve" smooth="yes"/>
      <point x="275" y="514"/>
      <point x="314" y="470"/>
      <point x="330" y="449" type="curve" smooth="yes"/>
      <point x="351" y="422"/>
      <point x="358" y="406"/>
      <point x="363" y="373" type="curve"/>
      <point x="363" y="373"/>
      <point x="363" y="366"/>
      <point x="363" y="363" type="curve" smooth="yes"/>
      <point x="363" y="358"/>
      <point x="363" y="358"/>
      <point x="357" y="358" type="curve" smooth="yes"/>
      <point x="303" y="358" type="line" smooth="yes"/>
      <point x="299" y="358"/>
      <point x="299" y="358"/>
      <point x="299" y="360" type="curve"/>
      <point x="299" y="363"/>
      <point x="298" y="365"/>
      <point x="298" y="370" type="curve"/>
      <point x="297" y="380"/>
      <point x="285" y="405"/>
      <point x="275" y="418" type="curve"/>
      <point x="268" y="425"/>
      <point x="266" y="427"/>
      <point x="262" y="424" type="curve" smooth="yes"/>
      <point x="252" y="418"/>
      <point x="233" y="385"/>
      <point x="226" y="361" type="curve" smooth="yes"/>
      <point x="225" y="358"/>
      <point x="224" y="358"/>
      <point x="220" y="358" type="curve" smooth="yes"/>
      <point x="182" y="358" type="line" smooth="yes"/>
      <point x="178" y="358"/>
      <point x="178" y="358"/>
      <point x="177" y="361" type="curve" smooth="yes"/>
      <point x="176" y="363"/>
      <point x="176" y="365"/>
    </contour>
    <contour>
      <point x="211" y="301" type="curve" smooth="yes"/>
      <point x="201" y="309"/>
      <point x="187" y="328"/>
      <point x="184" y="337" type="curve" smooth="yes"/>
      <point x="183" y="342"/>
      <point x="183" y="343"/>
      <point x="186" y="343" type="curve" smooth="yes"/>
      <point x="218" y="343" type="line" smooth="yes"/>
      <point x="222" y="343"/>
      <point x="222" y="342"/>
      <point x="221" y="337" type="curve"/>
      <point x="221" y="335"/>
      <point x="220" y="330"/>
      <point x="220" y="327" type="curve" smooth="yes"/>
      <point x="220" y="320"/>
      <point x="221" y="312"/>
      <point x="222" y="305" type="curve" smooth="yes"/>
      <point x="224" y="298"/>
      <point x="225" y="291"/>
      <point x="224" y="291" type="curve"/>
      <point x="224" y="290"/>
      <point x="218" y="295"/>
    </contour>
    <contour>
      <point x="222" y="155" type="curve" smooth="yes"/>
      <point x="216" y="161"/>
      <point x="207" y="171"/>
      <point x="203" y="177" type="curve" smooth="yes"/>
      <point x="189" y="195"/>
      <point x="159" y="222"/>
      <point x="131" y="241" type="curve" smooth="yes"/>
      <point x="83" y="273"/>
      <point x="62" y="293"/>
      <point x="50" y="318" type="curve" smooth="yes"/>
      <point x="42" y="334"/>
      <point x="41" y="343"/>
      <point x="47" y="343" type="curve" smooth="yes"/>
      <point x="122" y="343" type="line" smooth="yes"/>
      <point x="126" y="343"/>
      <point x="127" y="342"/>
      <point x="127" y="335" type="curve" smooth="yes"/>
      <point x="127" y="322"/>
      <point x="128" y="321"/>
      <point x="157" y="292" type="curve" smooth="yes"/>
      <point x="175" y="274"/>
      <point x="198" y="249"/>
      <point x="209" y="235" type="curve" smooth="yes"/>
      <point x="219" y="221"/>
      <point x="229" y="209"/>
      <point x="230" y="209" type="curve"/>
      <point x="231" y="209"/>
      <point x="234" y="215"/>
      <point x="237" y="222" type="curve" smooth="yes"/>
      <point x="241" y="234"/>
      <point x="251" y="251"/>
      <point x="275" y="294" type="curve"/>
      <point x="282" y="305"/>
      <point x="290" y="321"/>
      <point x="293" y="328" type="curve"/>
      <point x="293" y="328"/>
      <point x="296" y="335"/>
      <point x="297" y="339" type="curve" smooth="yes"/>
      <point x="298" y="343"/>
      <point x="298" y="343"/>
      <point x="303" y="343" type="curve" smooth="yes"/>
      <point x="359" y="343" type="line" smooth="yes"/>
      <point x="362" y="343"/>
      <point x="363" y="343"/>
      <point x="362" y="339" type="curve"/>
      <point x="362" y="336"/>
      <point x="361" y="329"/>
      <point x="361" y="329" type="curve"/>
      <point x="360" y="311"/>
      <point x="347" y="272"/>
      <point x="337" y="253" type="curve"/>
      <point x="322" y="228"/>
      <point x="300" y="198"/>
      <point x="280" y="178" type="curve" smooth="yes"/>
      <point x="262" y="159"/>
      <point x="241" y="144"/>
      <point x="236" y="144" type="curve"/>
      <point x="235" y="144"/>
      <point x="229" y="149"/>
    </contour>
    <contour>
      <point x="125" y="13" type="curve" smooth="yes"/>
      <point x="123" y="15"/>
      <point x="172" y="65"/>
      <point x="189" y="78" type="curve" smooth="yes"/>
      <point x="198" y="86"/>
      <point x="201" y="86"/>
      <point x="217" y="87" type="curve"/>
      <point x="228" y="87"/>
      <point x="238" y="88"/>
      <point x="245" y="92" type="curve"/>
      <point x="307" y="120"/>
      <point x="369" y="182"/>
      <point x="389" y="237" type="curve"/>
      <point x="396" y="259"/>
      <point x="404" y="295"/>
      <point x="406" y="322" type="curve"/>
      <point x="406" y="322"/>
      <point x="407" y="331"/>
      <point x="408" y="337" type="curve"/>
      <point x="408" y="342"/>
      <point x="409" y="343"/>
      <point x="415" y="343" type="curve" smooth="yes"/>
      <point x="478" y="343" type="line" smooth="yes"/>
      <point x="485" y="343"/>
      <point x="486" y="343"/>
      <point x="486" y="333" type="curve" smooth="yes"/>
      <point x="486" y="328"/>
      <point x="485" y="315"/>
      <point x="484" y="308" type="curve" smooth="yes"/>
      <point x="480" y="279"/>
      <point x="470" y="237"/>
      <point x="462" y="214" type="curve" smooth="yes"/>
      <point x="444" y="159"/>
      <point x="415" y="121"/>
      <point x="362" y="86" type="curve" smooth="yes"/>
      <point x="330" y="65"/>
      <point x="278" y="40"/>
      <point x="252" y="32" type="curve"/>
      <point x="215" y="22"/>
      <point x="196" y="18"/>
      <point x="174" y="15" type="curve" smooth="yes"/>
      <point x="141" y="10"/>
      <point x="127" y="10"/>
    </contour>
  </outline>
</glyph>
<glyph name="T" format="2">
  <advance width="481"/>
  <unicode hex="0054"/>
  <outline>
    <contour>
      <point x="135" y="517" type="curve"/>
      <point x="174" y="491"/>
      <point x="205" y="461"/>
      <point x="232" y="427" type="curve" smooth="yes"/>
      <point x="238" y="419"/>
      <point x="243" y="422"/>
      <point x="248" y="427" type="curve" smooth="yes"/>
      <point x="258" y="438"/>
      <point x="269" y="450"/>
      <point x="281" y="460" type="curve"/>
      <point x="300" y="480"/>
      <point x="321" y="499"/>
      <point x="340" y="517" type="curve"/>
      <point x="305" y="546"/>
      <point x="273" y="573"/>
      <point x="240" y="599" type="curve" smooth="yes"/>
      <point x="238" y="601"/>
      <point x="230" y="600"/>
      <point x="227" y="597" type="curve" smooth="yes"/>
      <point x="212" y="583"/>
      <point x="197" y="568"/>
      <point x="181" y="554" type="curve" smooth="yes"/>
      <point x="167" y="541"/>
      <point x="152" y="530"/>
    </contour>
    <contour>
      <point x="433" y="278" type="curve"/>
      <point x="433" y="35" type="line" smooth="yes"/>
      <point x="433" y="20"/>
      <point x="429" y="15"/>
      <point x="414" y="16" type="curve"/>
      <point x="396" y="16"/>
      <point x="376" y="16"/>
      <point x="358" y="17" type="curve" smooth="yes"/>
      <point x="341" y="18"/>
      <point x="326" y="18"/>
      <point x="309" y="18" type="curve" smooth="yes"/>
      <point x="301" y="18"/>
      <point x="294" y="20"/>
      <point x="287" y="20" type="curve"/>
      <point x="286" y="23"/>
      <point x="286" y="24"/>
      <point x="286" y="25" type="curve"/>
      <point x="288" y="28"/>
      <point x="291" y="31"/>
      <point x="294" y="33" type="curve" smooth="yes"/>
      <point x="298" y="36"/>
      <point x="302" y="39"/>
      <point x="306" y="43" type="curve" smooth="yes"/>
      <point x="331" y="65" type="line" smooth="yes"/>
      <point x="335" y="69"/>
      <point x="339" y="72"/>
      <point x="343" y="75" type="curve" smooth="yes"/>
      <point x="347" y="79"/>
      <point x="348" y="87"/>
      <point x="348" y="93" type="curve" smooth="yes"/>
      <point x="348" y="123"/>
      <point x="343" y="152"/>
      <point x="347" y="182" type="curve" smooth="yes"/>
      <point x="350" y="208"/>
      <point x="336" y="213"/>
      <point x="319" y="224" type="curve" smooth="yes"/>
      <point x="291" y="243"/>
      <point x="264" y="264"/>
      <point x="236" y="290" type="curve"/>
      <point x="231" y="294" type="line"/>
      <point x="213" y="278"/>
      <point x="204" y="266"/>
      <point x="186" y="251" type="curve" smooth="yes"/>
      <point x="172" y="239"/>
      <point x="156" y="229"/>
      <point x="144" y="223" type="curve" smooth="yes"/>
      <point x="125" y="214"/>
      <point x="126" y="213"/>
      <point x="126" y="206" type="curve"/>
      <point x="125" y="190"/>
      <point x="126" y="169"/>
      <point x="126" y="155" type="curve"/>
      <point x="158" y="143"/>
      <point x="189" y="135"/>
      <point x="223" y="151" type="curve"/>
      <point x="220" y="144"/>
      <point x="219" y="136"/>
      <point x="215" y="130" type="curve" smooth="yes"/>
      <point x="197" y="101"/>
      <point x="172" y="79"/>
      <point x="142" y="63" type="curve" smooth="yes"/>
      <point x="115" y="49"/>
      <point x="87" y="34"/>
      <point x="65" y="11" type="curve"/>
      <point x="65" y="10"/>
      <point x="62" y="10"/>
      <point x="58" y="8" type="curve"/>
      <point x="58" y="28"/>
      <point x="60" y="47"/>
      <point x="58" y="65" type="curve" smooth="yes"/>
      <point x="54" y="104"/>
      <point x="46" y="143"/>
      <point x="43" y="182" type="curve" smooth="yes"/>
      <point x="41" y="214"/>
      <point x="45" y="247"/>
      <point x="46" y="276" type="curve"/>
      <point x="62" y="280"/>
      <point x="75" y="283"/>
      <point x="87" y="287" type="curve" smooth="yes"/>
      <point x="121" y="298"/>
      <point x="143" y="312"/>
      <point x="164" y="338" type="curve" smooth="yes"/>
      <point x="168" y="343"/>
      <point x="168" y="343"/>
      <point x="179" y="343" type="curve" smooth="yes"/>
      <point x="305" y="343" type="line" smooth="yes"/>
      <point x="313" y="343"/>
      <point x="314" y="343"/>
      <point x="319" y="338" type="curve"/>
      <point x="343" y="302"/>
      <point x="371" y="286"/>
      <point x="411" y="275" type="curve" smooth="yes"/>
      <point x="419" y="273"/>
      <point x="424" y="275"/>
    </contour>
    <contour>
      <point x="405" y="435" type="curve"/>
      <point x="414" y="425"/>
      <point x="424" y="418"/>
      <point x="435" y="409" type="curve"/>
      <point x="429" y="404"/>
      <point x="424" y="399"/>
      <point x="418" y="393" type="curve" smooth="yes"/>
      <point x="415" y="390"/>
      <point x="411" y="386"/>
      <point x="408" y="383" type="curve" smooth="yes"/>
      <point x="406" y="381"/>
      <point x="406" y="381"/>
      <point x="404" y="383" type="curve" smooth="yes"/>
      <point x="395" y="392"/>
      <point x="386" y="402"/>
      <point x="375" y="409" type="curve"/>
      <point x="380" y="413"/>
      <point x="384" y="416"/>
      <point x="389" y="420" type="curve" smooth="yes"/>
      <point x="394" y="424"/>
      <point x="400" y="429"/>
    </contour>
    <contour>
      <point x="68" y="472" type="curve" smooth="yes"/>
      <point x="60" y="478"/>
      <point x="49" y="483"/>
      <point x="39" y="484" type="curve"/>
      <point x="27" y="484"/>
      <point x="20" y="489"/>
      <point x="15" y="499" type="curve" smooth="yes"/>
      <point x="10" y="510"/>
      <point x="5" y="521"/>
      <point x="1" y="532" type="curve" smooth="yes"/>
      <point x="-2" y="541"/>
      <point x="2" y="546"/>
      <point x="11" y="548" type="curve" smooth="yes"/>
      <point x="68" y="560"/>
      <point x="114" y="588"/>
      <point x="147" y="636" type="curve" smooth="yes"/>
      <point x="155" y="647"/>
      <point x="161" y="661"/>
      <point x="164" y="674" type="curve" smooth="yes"/>
      <point x="166" y="680"/>
      <point x="157" y="688"/>
      <point x="153" y="695" type="curve"/>
      <point x="152" y="695"/>
      <point x="150" y="697"/>
      <point x="148" y="697" type="curve"/>
      <point x="157" y="702"/>
      <point x="167" y="707"/>
      <point x="176" y="709" type="curve" smooth="yes"/>
      <point x="205" y="716"/>
      <point x="233" y="723"/>
      <point x="256" y="741" type="curve" smooth="yes"/>
      <point x="259" y="743"/>
      <point x="264" y="744"/>
      <point x="269" y="746" type="curve"/>
      <point x="269" y="742"/>
      <point x="270" y="740"/>
      <point x="269" y="738" type="curve" smooth="yes"/>
      <point x="255" y="716"/>
      <point x="267" y="699"/>
      <point x="278" y="681" type="curve" smooth="yes"/>
      <point x="303" y="640"/>
      <point x="338" y="609"/>
      <point x="379" y="586" type="curve"/>
      <point x="404" y="570"/>
      <point x="430" y="555"/>
      <point x="456" y="539" type="curve" smooth="yes"/>
      <point x="461" y="536"/>
      <point x="466" y="531"/>
      <point x="473" y="526" type="curve"/>
      <point x="462" y="513"/>
      <point x="454" y="500"/>
      <point x="443" y="489" type="curve" smooth="yes"/>
      <point x="437" y="484"/>
      <point x="428" y="479"/>
      <point x="419" y="476" type="curve" smooth="yes"/>
      <point x="369" y="460"/>
      <point x="341" y="436"/>
      <point x="317" y="386" type="curve"/>
      <point x="317" y="385" type="line"/>
      <point x="309" y="362"/>
      <point x="306" y="358"/>
      <point x="294" y="358" type="curve" smooth="yes"/>
      <point x="260" y="358"/>
      <point x="212" y="358"/>
      <point x="179" y="358" type="curve" smooth="yes"/>
      <point x="166" y="358"/>
      <point x="162" y="361"/>
      <point x="157" y="372" type="curve" smooth="yes"/>
      <point x="140" y="407"/>
      <point x="115" y="439"/>
    </contour>
  </outline>
</glyph>
<glyph name="V" format="2">
  <advance width="609"/>
  <unicode hex="0056"/>
  <outline>
    <contour>
      <point x="241" y="375" type="curve"/>
      <point x="212" y="398"/>
      <point x="200" y="433"/>
      <point x="223" y="464" type="curve" smooth="yes"/>
      <point x="231" y="475"/>
      <point x="237" y="486"/>
      <point x="245" y="498" type="curve"/>
      <point x="260" y="487"/>
      <point x="280" y="469"/>
      <point x="297" y="452" type="curve"/>
      <point x="282" y="432"/>
      <point x="259" y="400"/>
    </contour>
    <contour>
      <point x="272" y="312" type="curve"/>
      <point x="268" y="319"/>
      <point x="267" y="326"/>
      <point x="267" y="335" type="curve" smooth="yes"/>
      <point x="267" y="338"/>
      <point x="267" y="343"/>
      <point x="278" y="343" type="curve" smooth="yes"/>
      <point x="336" y="343" type="line" smooth="yes"/>
      <point x="348" y="343"/>
      <point x="351" y="340"/>
      <point x="350" y="331" type="curve" smooth="yes"/>
      <point x="349" y="322"/>
      <point x="348" y="314"/>
      <point x="344" y="307" type="curve" smooth="yes"/>
      <point x="336" y="293"/>
      <point x="326" y="280"/>
      <point x="318" y="267" type="curve"/>
      <point x="313" y="261"/>
      <point x="307" y="261"/>
      <point x="302" y="267" type="curve" smooth="yes"/>
      <point x="291" y="282"/>
      <point x="279" y="296"/>
    </contour>
    <contour>
      <point x="308" y="2" type="curve"/>
      <point x="300" y="13"/>
      <point x="295" y="24"/>
      <point x="287" y="33" type="curve" smooth="yes"/>
      <point x="264" y="60"/>
      <point x="242" y="90"/>
      <point x="216" y="114" type="curve" smooth="yes"/>
      <point x="175" y="152"/>
      <point x="155" y="197"/>
      <point x="158" y="252" type="curve"/>
      <point x="160" y="269"/>
      <point x="154" y="278"/>
      <point x="138" y="280" type="curve" smooth="yes"/>
      <point x="131" y="281"/>
      <point x="123" y="278"/>
      <point x="116" y="275" type="curve"/>
      <point x="96" y="263"/>
      <point x="87" y="266"/>
      <point x="75" y="284" type="curve" smooth="yes"/>
      <point x="67" y="296"/>
      <point x="56" y="306"/>
      <point x="46" y="317" type="curve" smooth="yes"/>
      <point x="39" y="325"/>
      <point x="32" y="332"/>
      <point x="22" y="343" type="curve"/>
      <point x="168" y="343" type="line" smooth="yes"/>
      <point x="172" y="343"/>
      <point x="178" y="341"/>
      <point x="180" y="338" type="curve" smooth="yes"/>
      <point x="191" y="322"/>
      <point x="201" y="306"/>
      <point x="211" y="290" type="curve"/>
      <point x="274" y="197" type="line"/>
      <point x="284" y="181"/>
      <point x="295" y="165"/>
      <point x="305" y="149" type="curve"/>
      <point x="305" y="148"/>
      <point x="307" y="147"/>
      <point x="309" y="146" type="curve"/>
      <point x="316" y="158"/>
      <point x="323" y="171"/>
      <point x="331" y="183" type="curve" smooth="yes"/>
      <point x="365" y="236"/>
      <point x="400" y="285"/>
      <point x="435" y="337" type="curve" smooth="yes"/>
      <point x="437" y="340"/>
      <point x="442" y="343"/>
      <point x="446" y="343" type="curve" smooth="yes"/>
      <point x="489" y="343"/>
      <point x="533" y="343"/>
      <point x="581" y="343" type="curve"/>
      <point x="572" y="333"/>
      <point x="566" y="326"/>
      <point x="560" y="319" type="curve" smooth="yes"/>
      <point x="553" y="311"/>
      <point x="546" y="306"/>
      <point x="541" y="297" type="curve" smooth="yes"/>
      <point x="528" y="274"/>
      <point x="521" y="271"/>
      <point x="497" y="278" type="curve" smooth="yes"/>
      <point x="468" y="286"/>
      <point x="456" y="278"/>
      <point x="455" y="248" type="curve" smooth="yes"/>
      <point x="454" y="203"/>
      <point x="436" y="168"/>
      <point x="405" y="137" type="curve" smooth="yes"/>
      <point x="371" y="103"/>
      <point x="342" y="68"/>
      <point x="322" y="24" type="curve" smooth="yes"/>
      <point x="319" y="17"/>
      <point x="314" y="11"/>
    </contour>
    <contour>
      <point x="455" y="529" type="curve" smooth="yes"/>
      <point x="438" y="559"/>
      <point x="430" y="574"/>
      <point x="447" y="585" type="curve" smooth="yes"/>
      <point x="456" y="591"/>
      <point x="452" y="595"/>
      <point x="448" y="593" type="curve"/>
      <point x="439" y="591"/>
      <point x="433" y="587"/>
      <point x="427" y="584" type="curve" smooth="yes"/>
      <point x="399" y="568"/>
      <point x="377" y="546"/>
      <point x="356" y="523" type="curve" smooth="yes"/>
      <point x="350" y="516"/>
      <point x="353" y="511"/>
      <point x="357" y="506" type="curve" smooth="yes"/>
      <point x="372" y="485"/>
      <point x="386" y="465"/>
      <point x="392" y="440" type="curve"/>
      <point x="397" y="425"/>
      <point x="395" y="412"/>
      <point x="390" y="398" type="curve"/>
      <point x="386" y="390"/>
      <point x="384" y="382"/>
      <point x="379" y="372" type="curve"/>
      <point x="317" y="450"/>
      <point x="251" y="523"/>
      <point x="158" y="565" type="curve"/>
      <point x="160" y="561"/>
      <point x="161" y="557"/>
      <point x="164" y="554" type="curve"/>
      <point x="172" y="542"/>
      <point x="173" y="534"/>
      <point x="165" y="521" type="curve" smooth="yes"/>
      <point x="160" y="514"/>
      <point x="154" y="507"/>
      <point x="148" y="499" type="curve"/>
      <point x="135" y="478"/>
      <point x="134" y="457"/>
      <point x="140" y="434" type="curve" smooth="yes"/>
      <point x="146" y="411"/>
      <point x="158" y="383"/>
      <point x="171" y="358" type="curve"/>
      <point x="139" y="358" type="line" smooth="yes"/>
      <point x="130" y="358"/>
      <point x="135" y="369"/>
      <point x="127" y="383" type="curve" smooth="yes"/>
      <point x="113" y="407"/>
      <point x="90" y="433"/>
      <point x="74" y="456" type="curve" smooth="yes"/>
      <point x="57" y="480"/>
      <point x="50" y="505"/>
      <point x="60" y="533" type="curve" smooth="yes"/>
      <point x="66" y="550"/>
      <point x="71" y="568"/>
      <point x="76" y="585" type="curve"/>
      <point x="79" y="591"/>
      <point x="82" y="598"/>
      <point x="87" y="608" type="curve"/>
      <point x="92" y="601"/>
      <point x="95" y="597"/>
      <point x="99" y="591" type="curve"/>
      <point x="111" y="610"/>
      <point x="111" y="615"/>
      <point x="96" y="628" type="curve" smooth="yes"/>
      <point x="92" y="632"/>
      <point x="90" y="634"/>
      <point x="85" y="638" type="curve" smooth="yes"/>
      <point x="68" y="652"/>
      <point x="63" y="656"/>
      <point x="46" y="668" type="curve"/>
      <point x="58" y="677"/>
      <point x="72" y="683"/>
      <point x="87" y="681" type="curve" smooth="yes"/>
      <point x="121" y="677"/>
      <point x="155" y="674"/>
      <point x="189" y="669" type="curve" smooth="yes"/>
      <point x="199" y="667"/>
      <point x="203" y="665"/>
      <point x="216" y="654" type="curve" smooth="yes"/>
      <point x="245" y="629"/>
      <point x="272" y="604"/>
      <point x="298" y="576" type="curve" smooth="yes"/>
      <point x="301" y="573"/>
      <point x="304" y="570"/>
      <point x="307" y="566" type="curve"/>
      <point x="346" y="602"/>
      <point x="381" y="634"/>
      <point x="424" y="656" type="curve"/>
      <point x="436" y="663"/>
      <point x="451" y="666"/>
      <point x="465" y="668" type="curve" smooth="yes"/>
      <point x="492" y="673"/>
      <point x="521" y="676"/>
      <point x="548" y="678" type="curve" smooth="yes"/>
      <point x="555" y="679"/>
      <point x="561" y="678"/>
      <point x="570" y="678" type="curve"/>
      <point x="563" y="666"/>
      <point x="558" y="655"/>
      <point x="551" y="645" type="curve"/>
      <point x="537" y="621"/>
      <point x="532" y="596"/>
      <point x="542" y="568" type="curve"/>
      <point x="546" y="553"/>
      <point x="549" y="537"/>
      <point x="552" y="521" type="curve" smooth="yes"/>
      <point x="556" y="494"/>
      <point x="542" y="472"/>
      <point x="532" y="449" type="curve" smooth="yes"/>
      <point x="520" y="424"/>
      <point x="500" y="407"/>
      <point x="492" y="379" type="curve" smooth="yes"/>
      <point x="490" y="372"/>
      <point x="491" y="358"/>
      <point x="484" y="358" type="curve"/>
      <point x="447" y="358" type="line"/>
      <point x="465" y="390"/>
      <point x="478" y="426"/>
      <point x="480" y="462" type="curve" smooth="yes"/>
      <point x="481" y="485"/>
      <point x="467" y="508"/>
    </contour>
  </outline>
</glyph>
<glyph name="X" format="2">
  <advance width="537"/>
  <unicode hex="0058"/>
  <outline>
    <contour>
      <point x="455" y="358" type="curve" smooth="yes"/>
      <point x="436" y="358"/>
      <point x="398" y="358"/>
      <point x="374" y="358" type="curve" smooth="yes"/>
      <point x="366" y="358"/>
      <point x="365" y="358"/>
      <point x="361" y="365" type="curve" smooth="yes"/>
      <point x="360" y="367"/>
      <point x="359" y="369"/>
      <point x="357" y="372" type="curve" smooth="yes"/>
      <point x="354" y="378"/>
      <point x="347" y="393"/>
      <point x="344" y="391" type="curve"/>
      <point x="335" y="387"/>
      <point x="323" y="373"/>
      <point x="315" y="362" type="curve" smooth="yes"/>
      <point x="312" y="357"/>
      <point x="309" y="358"/>
      <point x="303" y="358" type="curve" smooth="yes"/>
      <point x="236" y="358" type="line" smooth="yes"/>
      <point x="226" y="358"/>
      <point x="221" y="356"/>
      <point x="213" y="367" type="curve" smooth="yes"/>
      <point x="207" y="376"/>
      <point x="201" y="383"/>
      <point x="195" y="388" type="curve" smooth="yes"/>
      <point x="189" y="393"/>
      <point x="186" y="390"/>
      <point x="181" y="382" type="curve" smooth="yes"/>
      <point x="175" y="372"/>
      <point x="174" y="370"/>
      <point x="170" y="362" type="curve"/>
      <point x="167" y="358"/>
      <point x="166" y="358"/>
      <point x="160" y="358" type="curve" smooth="yes"/>
      <point x="77" y="358" type="line"/>
      <point x="79" y="370"/>
      <point x="84" y="378"/>
      <point x="91" y="389" type="curve" smooth="yes"/>
      <point x="101" y="404"/>
      <point x="113" y="419"/>
      <point x="124" y="435" type="curve" smooth="yes"/>
      <point x="129" y="442"/>
      <point x="131" y="447"/>
      <point x="123" y="454" type="curve" smooth="yes"/>
      <point x="96" y="478"/>
      <point x="85" y="511"/>
      <point x="81" y="546" type="curve"/>
      <point x="76" y="579" type="line"/>
      <point x="75" y="590"/>
      <point x="74" y="601"/>
      <point x="73" y="612" type="curve" smooth="yes"/>
      <point x="70" y="646"/>
      <point x="51" y="671"/>
      <point x="31" y="695" type="curve" smooth="yes"/>
      <point x="26" y="701"/>
      <point x="23" y="710"/>
      <point x="18" y="718" type="curve"/>
      <point x="37" y="722"/>
      <point x="51" y="720"/>
      <point x="64" y="712" type="curve" smooth="yes"/>
      <point x="89" y="697"/>
      <point x="113" y="684"/>
      <point x="138" y="670" type="curve"/>
      <point x="149" y="665"/>
      <point x="160" y="661"/>
      <point x="175" y="655" type="curve"/>
      <point x="145" y="642"/>
      <point x="145" y="618"/>
      <point x="146" y="594" type="curve" smooth="yes"/>
      <point x="147" y="565"/>
      <point x="156" y="540"/>
      <point x="175" y="519" type="curve"/>
      <point x="177" y="518"/>
      <point x="179" y="517"/>
      <point x="182" y="515" type="curve"/>
      <point x="193" y="531"/>
      <point x="203" y="546"/>
      <point x="213" y="561" type="curve" smooth="yes"/>
      <point x="225" y="578"/>
      <point x="235" y="596"/>
      <point x="247" y="612" type="curve"/>
      <point x="261" y="633"/>
      <point x="276" y="633"/>
      <point x="289" y="612" type="curve"/>
      <point x="309" y="583"/>
      <point x="328" y="554"/>
      <point x="347" y="525" type="curve"/>
      <point x="353" y="514"/>
      <point x="357" y="515"/>
      <point x="364" y="525" type="curve" smooth="yes"/>
      <point x="389" y="557"/>
      <point x="397" y="593"/>
      <point x="385" y="631" type="curve"/>
      <point x="381" y="640"/>
      <point x="372" y="648"/>
      <point x="366" y="657" type="curve"/>
      <point x="376" y="661"/>
      <point x="387" y="665"/>
      <point x="397" y="670" type="curve" smooth="yes"/>
      <point x="403" y="673"/>
      <point x="409" y="677"/>
      <point x="415" y="680" type="curve" smooth="yes"/>
      <point x="450" y="701" type="line" smooth="yes"/>
      <point x="456" y="704"/>
      <point x="462" y="708"/>
      <point x="468" y="711" type="curve" smooth="yes"/>
      <point x="478" y="716"/>
      <point x="489" y="718"/>
      <point x="500" y="720" type="curve"/>
      <point x="504" y="720"/>
      <point x="509" y="718"/>
      <point x="514" y="716" type="curve"/>
      <point x="512" y="712"/>
      <point x="512" y="707"/>
      <point x="509" y="703" type="curve" smooth="yes"/>
      <point x="504" y="696"/>
      <point x="499" y="689"/>
      <point x="493" y="682" type="curve" smooth="yes"/>
      <point x="472" y="661"/>
      <point x="465" y="633"/>
      <point x="462" y="603" type="curve" smooth="yes"/>
      <point x="459" y="571"/>
      <point x="454" y="538"/>
      <point x="444" y="507" type="curve" smooth="yes"/>
      <point x="438" y="488"/>
      <point x="425" y="471"/>
      <point x="412" y="455" type="curve"/>
      <point x="407" y="447"/>
      <point x="406" y="442"/>
      <point x="411" y="435" type="curve" smooth="yes"/>
      <point x="423" y="419"/>
      <point x="435" y="403"/>
      <point x="446" y="386" type="curve" smooth="yes"/>
      <point x="451" y="378"/>
      <point x="453" y="374"/>
      <point x="458" y="364" type="curve"/>
      <point x="458" y="364"/>
      <point x="461" y="358"/>
    </contour>
    <contour>
      <point x="267" y="526" type="curve"/>
      <point x="262" y="512"/>
      <point x="256" y="500"/>
      <point x="245" y="487" type="curve"/>
      <point x="238" y="478"/>
      <point x="239" y="477"/>
      <point x="244" y="470" type="curve"/>
      <point x="254" y="453"/>
      <point x="258" y="437"/>
      <point x="264" y="417" type="curve"/>
      <point x="268" y="394" type="line"/>
      <point x="273" y="422"/>
      <point x="280" y="448"/>
      <point x="293" y="471" type="curve"/>
      <point x="298" y="478"/>
      <point x="298" y="478"/>
      <point x="293" y="484" type="curve" smooth="yes"/>
      <point x="282" y="496"/>
      <point x="272" y="511"/>
    </contour>
    <contour>
      <point x="265" y="230" type="curve"/>
      <point x="252" y="266"/>
      <point x="239" y="305"/>
      <point x="225" y="341" type="curve"/>
      <point x="225" y="342"/>
      <point x="225" y="343"/>
      <point x="226" y="343" type="curve"/>
      <point x="309" y="343" type="line"/>
      <point x="311" y="343"/>
      <point x="311" y="342"/>
      <point x="311" y="340" type="curve"/>
      <point x="297" y="304"/>
      <point x="283" y="265"/>
      <point x="270" y="230" type="curve"/>
      <point x="269" y="229"/>
      <point x="268" y="227"/>
      <point x="267" y="227" type="curve"/>
      <point x="267" y="227"/>
      <point x="265" y="229"/>
    </contour>
    <contour>
      <point x="324" y="28" type="curve" smooth="yes"/>
      <point x="322" y="32"/>
      <point x="338" y="41"/>
      <point x="346" y="47" type="curve" smooth="yes"/>
      <point x="374" y="69"/>
      <point x="389" y="96"/>
      <point x="389" y="131" type="curve"/>
      <point x="390" y="173"/>
      <point x="391" y="215"/>
      <point x="389" y="255" type="curve" smooth="yes"/>
      <point x="387" y="283"/>
      <point x="381" y="315"/>
      <point x="372" y="343" type="curve"/>
      <point x="399" y="343"/>
      <point x="431" y="343"/>
      <point x="462" y="343" type="curve"/>
      <point x="463" y="328"/>
      <point x="465" y="308"/>
      <point x="465" y="292" type="curve" smooth="yes"/>
      <point x="466" y="226"/>
      <point x="467" y="160"/>
      <point x="468" y="94" type="curve" smooth="yes"/>
      <point x="468" y="66"/>
      <point x="476" y="56"/>
      <point x="504" y="48" type="curve" smooth="yes"/>
      <point x="525" y="42"/>
      <point x="525" y="39"/>
      <point x="510" y="23" type="curve" smooth="yes"/>
      <point x="494" y="5"/>
      <point x="477" y="1"/>
      <point x="454" y="4" type="curve" smooth="yes"/>
      <point x="429" y="8"/>
      <point x="404" y="7"/>
      <point x="378" y="9" type="curve"/>
      <point x="372" y="9"/>
      <point x="364" y="7"/>
      <point x="357" y="7" type="curve" smooth="yes"/>
      <point x="336" y="7"/>
      <point x="333" y="10"/>
    </contour>
    <contour>
      <point x="30" y="44" type="curve" smooth="yes"/>
      <point x="55" y="58"/>
      <point x="67" y="78"/>
      <point x="67" y="102" type="curve" smooth="yes"/>
      <point x="68" y="166"/>
      <point x="69" y="231"/>
      <point x="70" y="296" type="curve" smooth="yes"/>
      <point x="70" y="310"/>
      <point x="72" y="327"/>
      <point x="75" y="343" type="curve"/>
      <point x="163" y="343" type="line"/>
      <point x="158" y="333"/>
      <point x="156" y="320"/>
      <point x="154" y="311" type="curve" smooth="yes"/>
      <point x="145" y="270"/>
      <point x="143" y="228"/>
      <point x="144" y="185" type="curve" smooth="yes"/>
      <point x="145" y="169"/>
      <point x="146" y="153"/>
      <point x="145" y="137" type="curve" smooth="yes"/>
      <point x="144" y="100"/>
      <point x="159" y="71"/>
      <point x="188" y="48" type="curve" smooth="yes"/>
      <point x="198" y="40" type="line" smooth="yes"/>
      <point x="205" y="35"/>
      <point x="212" y="29"/>
      <point x="206" y="20" type="curve" smooth="yes"/>
      <point x="201" y="13"/>
      <point x="191" y="6"/>
      <point x="184" y="7" type="curve" smooth="yes"/>
      <point x="145" y="13"/>
      <point x="107" y="9"/>
      <point x="68" y="4" type="curve" smooth="yes"/>
      <point x="49" y="2"/>
      <point x="35" y="9"/>
      <point x="23" y="23" type="curve"/>
      <point x="15" y="30"/>
      <point x="15" y="36"/>
    </contour>
  </outline>
</glyph>
<glyph name="d" format="2">
  <advance width="488"/>
  <unicode hex="0064"/>
  <outline>
    <contour>
      <point x="145" y="542" type="line"/>
      <point x="180" y="529" type="line"/>
      <point x="200" y="523"/>
      <point x="224" y="514"/>
      <point x="234" y="509" type="curve"/>
      <point x="254" y="501"/>
      <point x="278" y="492"/>
      <point x="323" y="476" type="curve" smooth="yes"/>
      <point x="359" y="464"/>
      <point x="374" y="455"/>
      <point x="396" y="435" type="curve" smooth="yes"/>
      <point x="408" y="424"/>
      <point x="416" y="414"/>
      <point x="421" y="403" type="curve" smooth="yes"/>
      <point x="431" y="383"/>
      <point x="435" y="358"/>
      <point x="429" y="358" type="curve" smooth="yes"/>
      <point x="426" y="358"/>
      <point x="421" y="358"/>
      <point x="381" y="358" type="curve" smooth="yes"/>
      <point x="365" y="358"/>
      <point x="339" y="357"/>
      <point x="335" y="360" type="curve" smooth="yes"/>
      <point x="331" y="363"/>
      <point x="331" y="366"/>
      <point x="326" y="373" type="curve" smooth="yes"/>
      <point x="318" y="384"/>
      <point x="313" y="389"/>
      <point x="302" y="394" type="curve" smooth="yes"/>
      <point x="294" y="398"/>
      <point x="287" y="400"/>
      <point x="283" y="401" type="curve" smooth="yes"/>
      <point x="279" y="402"/>
      <point x="275" y="403"/>
      <point x="269" y="405" type="curve" smooth="yes"/>
      <point x="256" y="411"/>
      <point x="154" y="440"/>
      <point x="148" y="440" type="curve" smooth="yes"/>
      <point x="144" y="440"/>
      <point x="142" y="438"/>
      <point x="141" y="413" type="curve" smooth="yes"/>
      <point x="140" y="398"/>
      <point x="140" y="379"/>
      <point x="140" y="372" type="curve" smooth="yes"/>
      <point x="139" y="357"/>
      <point x="138" y="358"/>
      <point x="136" y="358" type="curve"/>
      <point x="46" y="358" type="line" smooth="yes"/>
      <point x="43" y="358"/>
      <point x="43" y="358"/>
      <point x="43" y="360" type="curve"/>
      <point x="43" y="406"/>
      <point x="43" y="502"/>
      <point x="43" y="502" type="curve"/>
      <point x="42" y="623"/>
      <point x="42" y="650"/>
      <point x="38" y="674" type="curve" smooth="yes"/>
      <point x="36" y="689"/>
      <point x="34" y="702"/>
      <point x="35" y="703" type="curve"/>
      <point x="38" y="706"/>
      <point x="123" y="705"/>
      <point x="141" y="702" type="curve" smooth="yes"/>
      <point x="151" y="700"/>
      <point x="175" y="694"/>
      <point x="195" y="689" type="curve" smooth="yes"/>
      <point x="225" y="681"/>
      <point x="236" y="677"/>
      <point x="268" y="659" type="curve"/>
      <point x="308" y="638"/>
      <point x="337" y="617"/>
      <point x="364" y="591" type="curve" smooth="yes"/>
      <point x="386" y="570"/>
      <point x="399" y="564"/>
      <point x="423" y="562" type="curve" smooth="yes"/>
      <point x="444" y="561"/>
      <point x="448" y="557"/>
      <point x="441" y="544" type="curve" smooth="yes"/>
      <point x="436" y="534"/>
      <point x="429" y="529"/>
      <point x="409" y="523" type="curve" smooth="yes"/>
      <point x="395" y="518"/>
      <point x="388" y="517"/>
      <point x="370" y="518" type="curve" smooth="yes"/>
      <point x="346" y="520"/>
      <point x="310" y="530"/>
      <point x="291" y="541" type="curve" smooth="yes"/>
      <point x="271" y="552"/>
      <point x="237" y="573"/>
      <point x="233" y="576" type="curve" smooth="yes"/>
      <point x="218" y="589"/>
      <point x="144" y="617"/>
      <point x="141" y="611" type="curve"/>
      <point x="141" y="610"/>
      <point x="142" y="599"/>
      <point x="143" y="586" type="curve" smooth="yes"/>
      <point x="144" y="573"/>
      <point x="145" y="558"/>
      <point x="145" y="552" type="curve" smooth="yes"/>
    </contour>
    <contour>
      <point x="58" y="26" type="curve" smooth="yes"/>
      <point x="56" y="52"/>
      <point x="53" y="88"/>
      <point x="52" y="107" type="curve" smooth="yes"/>
      <point x="51" y="126"/>
      <point x="49" y="154"/>
      <point x="48" y="169" type="curve" smooth="yes"/>
      <point x="46" y="209"/>
      <point x="42" y="334"/>
      <point x="44" y="339" type="curve" smooth="yes"/>
      <point x="45" y="343"/>
      <point x="45" y="343"/>
      <point x="49" y="343" type="curve" smooth="yes"/>
      <point x="136" y="343" type="line"/>
      <point x="137" y="343"/>
      <point x="137" y="343"/>
      <point x="137" y="340" type="curve" smooth="yes"/>
      <point x="136" y="330"/>
      <point x="135" y="312"/>
      <point x="135" y="312" type="curve" smooth="yes"/>
      <point x="134" y="294"/>
      <point x="133" y="245"/>
      <point x="133" y="204" type="curve" smooth="yes"/>
      <point x="133" y="139"/>
      <point x="134" y="126"/>
      <point x="138" y="107" type="curve" smooth="yes"/>
      <point x="143" y="88"/>
      <point x="145" y="84"/>
      <point x="154" y="74" type="curve"/>
      <point x="161" y="68"/>
      <point x="166" y="62"/>
      <point x="166" y="61" type="curve"/>
      <point x="166" y="53"/>
      <point x="73" y="-20"/>
      <point x="64" y="-20" type="curve"/>
      <point x="62" y="-20"/>
      <point x="60" y="-6"/>
    </contour>
    <contour>
      <point x="447" y="-13" type="curve" smooth="yes"/>
      <point x="445" y="-12"/>
      <point x="437" y="-9"/>
      <point x="430" y="-6" type="curve" smooth="yes"/>
      <point x="422" y="-2"/>
      <point x="416" y="-1"/>
      <point x="402" y="-1" type="curve" smooth="yes"/>
      <point x="368" y="-1" type="line" smooth="yes"/>
      <point x="354" y="-1"/>
      <point x="348" y="0"/>
      <point x="340" y="4" type="curve" smooth="yes"/>
      <point x="326" y="11"/>
      <point x="326" y="8"/>
      <point x="338" y="43" type="curve" smooth="yes"/>
      <point x="353" y="87"/>
      <point x="359" y="182"/>
      <point x="350" y="250" type="curve" smooth="yes"/>
      <point x="348" y="267"/>
      <point x="345" y="295"/>
      <point x="342" y="311" type="curve" smooth="yes"/>
      <point x="340" y="327"/>
      <point x="340" y="341"/>
      <point x="341" y="342" type="curve"/>
      <point x="342" y="343"/>
      <point x="363" y="343"/>
      <point x="386" y="343" type="curve" smooth="yes"/>
      <point x="407" y="343"/>
      <point x="420" y="343"/>
      <point x="429" y="343" type="curve" smooth="yes"/>
      <point x="433" y="343"/>
      <point x="433" y="343"/>
      <point x="434" y="337" type="curve" smooth="yes"/>
      <point x="436" y="323"/>
      <point x="437" y="314"/>
      <point x="437" y="225" type="curve" smooth="yes"/>
      <point x="437" y="92"/>
      <point x="439" y="64"/>
      <point x="449" y="41" type="curve" smooth="yes"/>
      <point x="453" y="32"/>
      <point x="461" y="20"/>
      <point x="466" y="14" type="curve"/>
      <point x="476" y="4" type="line"/>
      <point x="471" y="-5" type="line" smooth="yes"/>
      <point x="466" y="-13"/>
      <point x="457" y="-16"/>
    </contour>
    <contour>
      <point x="221" y="186" type="curve" smooth="yes"/>
      <point x="200" y="196"/>
      <point x="192" y="221"/>
      <point x="199" y="242" type="curve" smooth="yes"/>
      <point x="203" y="256"/>
      <point x="221" y="267"/>
      <point x="232" y="268" type="curve" smooth="yes"/>
      <point x="262" y="270"/>
      <point x="277" y="260"/>
      <point x="284" y="236" type="curve" smooth="yes"/>
      <point x="289" y="220"/>
      <point x="284" y="200"/>
      <point x="270" y="190" type="curve" smooth="yes"/>
      <point x="258" y="181"/>
      <point x="236" y="178"/>
    </contour>
  </outline>
</glyph>
<glyph name="f" format="2">
  <advance width="519"/>
  <unicode hex="0066"/>
  <outline>
    <contour>
      <point x="175" y="421" type="curve" smooth="yes"/>
      <point x="175" y="424"/>
      <point x="169" y="423"/>
      <point x="169" y="423" type="curve"/>
      <point x="165" y="423"/>
      <point x="159" y="420"/>
      <point x="155" y="417" type="curve" smooth="yes"/>
      <point x="149" y="412"/>
      <point x="148" y="411"/>
      <point x="148" y="385" type="curve"/>
      <point x="147" y="358" type="line"/>
      <point x="55" y="358" type="line"/>
      <point x="54" y="358"/>
      <point x="54" y="358"/>
      <point x="54" y="362" type="curve" smooth="yes"/>
      <point x="54" y="382"/>
      <point x="53" y="437"/>
      <point x="53" y="500" type="curve"/>
      <point x="53" y="500"/>
      <point x="52" y="590"/>
      <point x="52" y="637" type="curve"/>
      <point x="52" y="638"/>
      <point x="38" y="649"/>
      <point x="38" y="649" type="curve"/>
      <point x="31" y="656"/>
      <point x="23" y="665"/>
      <point x="22" y="669" type="curve" smooth="yes"/>
      <point x="16" y="684"/>
      <point x="19" y="684"/>
      <point x="29" y="684" type="curve" smooth="yes"/>
      <point x="446" y="684" type="line" smooth="yes"/>
      <point x="459" y="684"/>
      <point x="468" y="675"/>
      <point x="468" y="675" type="curve"/>
      <point x="475" y="670"/>
      <point x="482" y="661"/>
      <point x="487" y="652" type="curve" smooth="yes"/>
      <point x="492" y="641"/>
      <point x="493" y="637"/>
      <point x="493" y="620" type="curve"/>
      <point x="492" y="592"/>
      <point x="474" y="568"/>
      <point x="450" y="560" type="curve" smooth="yes"/>
      <point x="433" y="554"/>
      <point x="402" y="555"/>
      <point x="385" y="563" type="curve" smooth="yes"/>
      <point x="362" y="574"/>
      <point x="348" y="597"/>
      <point x="349" y="621" type="curve"/>
      <point x="350" y="627"/>
      <point x="349" y="627"/>
      <point x="335" y="628" type="curve" smooth="yes"/>
      <point x="313" y="629"/>
      <point x="290" y="618"/>
      <point x="275" y="600" type="curve"/>
      <point x="264" y="586" type="line"/>
      <point x="264" y="586"/>
      <point x="264" y="569"/>
      <point x="265" y="557" type="curve"/>
      <point x="265" y="543"/>
      <point x="266" y="528"/>
      <point x="266" y="518" type="curve" smooth="yes"/>
      <point x="266" y="508"/>
      <point x="265" y="506"/>
      <point x="269" y="506" type="curve" smooth="yes"/>
      <point x="296" y="506"/>
      <point x="347" y="505"/>
      <point x="347" y="505" type="curve"/>
      <point x="394" y="505"/>
      <point x="438" y="504"/>
      <point x="445" y="503" type="curve" smooth="yes"/>
      <point x="471" y="500"/>
      <point x="488" y="481"/>
      <point x="492" y="451" type="curve" smooth="yes"/>
      <point x="497" y="421"/>
      <point x="471" y="388"/>
      <point x="437" y="381" type="curve"/>
      <point x="426" y="378"/>
      <point x="419" y="379"/>
      <point x="404" y="382" type="curve" smooth="yes"/>
      <point x="373" y="388"/>
      <point x="357" y="405"/>
      <point x="354" y="433" type="curve"/>
      <point x="353" y="448" type="line"/>
      <point x="335" y="449" type="line" smooth="yes"/>
      <point x="314" y="450"/>
      <point x="305" y="446"/>
      <point x="287" y="429" type="curve" smooth="yes"/>
      <point x="270" y="412"/>
      <point x="266" y="404"/>
      <point x="265" y="379" type="curve"/>
      <point x="263" y="358" type="line"/>
      <point x="176" y="358" type="line"/>
      <point x="175" y="358"/>
      <point x="174" y="359"/>
      <point x="174" y="364" type="curve" smooth="yes"/>
      <point x="174" y="412"/>
      <point x="175" y="414"/>
    </contour>
    <contour>
      <point x="170" y="505" type="curve"/>
      <point x="175" y="506"/>
      <point x="176" y="507"/>
      <point x="176" y="510" type="curve" smooth="yes"/>
      <point x="176" y="536"/>
      <point x="176" y="545"/>
      <point x="176" y="565" type="curve" smooth="yes"/>
      <point x="176" y="617"/>
      <point x="174" y="624"/>
      <point x="173" y="627" type="curve" smooth="yes"/>
      <point x="171" y="633"/>
      <point x="161" y="628"/>
      <point x="156" y="627" type="curve"/>
      <point x="152" y="625"/>
      <point x="145" y="622"/>
      <point x="145" y="618" type="curve" smooth="yes"/>
      <point x="145" y="597"/>
      <point x="146" y="564"/>
      <point x="146" y="564" type="curve"/>
      <point x="146" y="517"/>
      <point x="146" y="507"/>
      <point x="150" y="506" type="curve" smooth="yes"/>
      <point x="157" y="505"/>
      <point x="158" y="505"/>
    </contour>
    <contour>
      <point x="53" y="-16" type="curve" smooth="yes"/>
      <point x="50" y="-16"/>
      <point x="51" y="-14"/>
      <point x="53" y="10" type="curve" smooth="yes"/>
      <point x="57" y="57"/>
      <point x="57" y="253"/>
      <point x="55" y="307" type="curve"/>
      <point x="55" y="316"/>
      <point x="55" y="328"/>
      <point x="55" y="339" type="curve" smooth="yes"/>
      <point x="55" y="343"/>
      <point x="55" y="343"/>
      <point x="57" y="343" type="curve"/>
      <point x="147" y="343" type="line"/>
      <point x="146" y="294" type="line" smooth="yes"/>
      <point x="145" y="267"/>
      <point x="146" y="210"/>
      <point x="148" y="167" type="curve" smooth="yes"/>
      <point x="151" y="68"/>
      <point x="152" y="66"/>
      <point x="184" y="55" type="curve" smooth="yes"/>
      <point x="203" y="49"/>
      <point x="226" y="50"/>
      <point x="214" y="58" type="curve" smooth="yes"/>
      <point x="210" y="60"/>
      <point x="199" y="79"/>
      <point x="193" y="94" type="curve" smooth="yes"/>
      <point x="187" y="109"/>
      <point x="183" y="154"/>
      <point x="177" y="273" type="curve" smooth="yes"/>
      <point x="176" y="305"/>
      <point x="175" y="323"/>
      <point x="174" y="338" type="curve"/>
      <point x="174" y="341"/>
      <point x="175" y="343"/>
      <point x="176" y="343" type="curve"/>
      <point x="259" y="343" type="line" smooth="yes"/>
      <point x="263" y="343"/>
      <point x="263" y="343"/>
      <point x="263" y="329" type="curve"/>
      <point x="261" y="287"/>
      <point x="266" y="158"/>
      <point x="269" y="145" type="curve" smooth="yes"/>
      <point x="271" y="139"/>
      <point x="275" y="123"/>
      <point x="278" y="109" type="curve" smooth="yes"/>
      <point x="284" y="80"/>
      <point x="289" y="70"/>
      <point x="304" y="53" type="curve" smooth="yes"/>
      <point x="319" y="35"/>
      <point x="335" y="25"/>
      <point x="358" y="18" type="curve" smooth="yes"/>
      <point x="369" y="14"/>
      <point x="380" y="8"/>
      <point x="383" y="6" type="curve" smooth="yes"/>
      <point x="409" y="-11"/>
      <point x="405" y="-16"/>
      <point x="396" y="-16" type="curve" smooth="yes"/>
      <point x="281" y="-16"/>
      <point x="168" y="-16"/>
    </contour>
    <contour>
      <point x="421" y="174" type="curve" smooth="yes"/>
      <point x="406" y="177"/>
      <point x="397" y="182"/>
      <point x="389" y="192" type="curve" smooth="yes"/>
      <point x="376" y="210"/>
      <point x="375" y="236"/>
      <point x="392" y="254" type="curve" smooth="yes"/>
      <point x="401" y="263"/>
      <point x="419" y="269"/>
      <point x="435" y="267" type="curve" smooth="yes"/>
      <point x="459" y="263"/>
      <point x="468" y="253"/>
      <point x="475" y="240" type="curve" smooth="yes"/>
      <point x="485" y="221"/>
      <point x="480" y="195"/>
      <point x="463" y="183" type="curve" smooth="yes"/>
      <point x="454" y="177"/>
      <point x="436" y="171"/>
    </contour>
  </outline>
</glyph>
<glyph name="g" format="2">
  <advance width="554"/>
  <unicode hex="0067"/>
  <outline>
    <contour>
      <point x="44" y="358" type="line" smooth="yes"/>
      <point x="36" y="358"/>
      <point x="68" y="432"/>
      <point x="94" y="473" type="curve" smooth="yes"/>
      <point x="97" y="478"/>
      <point x="96" y="480"/>
      <point x="84" y="495" type="curve" smooth="yes"/>
      <point x="76" y="505"/>
      <point x="67" y="520"/>
      <point x="62" y="533" type="curve" smooth="yes"/>
      <point x="54" y="553"/>
      <point x="53" y="559"/>
      <point x="52" y="591" type="curve" smooth="yes"/>
      <point x="51" y="618"/>
      <point x="52" y="633"/>
      <point x="55" y="647" type="curve" smooth="yes"/>
      <point x="57" y="658"/>
      <point x="60" y="668"/>
      <point x="61" y="669" type="curve"/>
      <point x="63" y="672"/>
      <point x="69" y="661"/>
      <point x="71" y="649" type="curve" smooth="yes"/>
      <point x="75" y="619"/>
      <point x="103" y="565"/>
      <point x="128" y="537" type="curve"/>
      <point x="139" y="524" type="line"/>
      <point x="161" y="544" type="line"/>
      <point x="212" y="588"/>
      <point x="228" y="604"/>
      <point x="228" y="611" type="curve" smooth="yes"/>
      <point x="228" y="626"/>
      <point x="212" y="636"/>
      <point x="175" y="648" type="curve" smooth="yes"/>
      <point x="145" y="657"/>
      <point x="131" y="662"/>
      <point x="124" y="672" type="curve" smooth="yes"/>
      <point x="116" y="683"/>
      <point x="116" y="692"/>
      <point x="123" y="692" type="curve" smooth="yes"/>
      <point x="429" y="692" type="line" smooth="yes"/>
      <point x="453" y="692"/>
      <point x="454" y="691"/>
      <point x="449" y="688" type="curve" smooth="yes"/>
      <point x="435" y="681"/>
      <point x="430" y="679"/>
      <point x="384" y="650" type="curve" smooth="yes"/>
      <point x="306" y="599"/>
      <point x="263" y="568"/>
      <point x="230" y="534" type="curve" smooth="yes"/>
      <point x="214" y="517"/>
      <point x="187" y="479"/>
      <point x="187" y="473" type="curve"/>
      <point x="187" y="471"/>
      <point x="201" y="456"/>
      <point x="217" y="438" type="curve" smooth="yes"/>
      <point x="241" y="413"/>
      <point x="250" y="402"/>
      <point x="261" y="385" type="curve" smooth="yes"/>
      <point x="268" y="375"/>
      <point x="270" y="363"/>
      <point x="271" y="360" type="curve"/>
      <point x="271" y="358"/>
      <point x="271" y="358"/>
      <point x="268" y="358" type="curve" smooth="yes"/>
      <point x="213" y="358" type="line"/>
      <point x="212" y="358"/>
      <point x="211" y="358"/>
      <point x="210" y="361" type="curve" smooth="yes"/>
      <point x="203" y="375"/>
      <point x="197" y="381"/>
      <point x="189" y="389" type="curve" smooth="yes"/>
      <point x="181" y="398"/>
      <point x="174" y="402"/>
      <point x="171" y="405" type="curve" smooth="yes"/>
      <point x="167" y="409"/>
      <point x="162" y="415"/>
      <point x="160" y="415" type="curve"/>
      <point x="157" y="415"/>
      <point x="145" y="389"/>
      <point x="141" y="372" type="curve"/>
      <point x="141" y="372"/>
      <point x="140" y="367"/>
      <point x="139" y="361" type="curve" smooth="yes"/>
      <point x="138" y="359"/>
      <point x="138" y="358"/>
      <point x="136" y="358" type="curve"/>
    </contour>
    <contour>
      <point x="330" y="415" type="curve" smooth="yes"/>
      <point x="312" y="418"/>
      <point x="302" y="433"/>
      <point x="299" y="452" type="curve" smooth="yes"/>
      <point x="297" y="469"/>
      <point x="305" y="487"/>
      <point x="317" y="495" type="curve" smooth="yes"/>
      <point x="330" y="505"/>
      <point x="358" y="504"/>
      <point x="370" y="496" type="curve" smooth="yes"/>
      <point x="390" y="482"/>
      <point x="392" y="456"/>
      <point x="385" y="437" type="curve" smooth="yes"/>
      <point x="377" y="416"/>
      <point x="354" y="411"/>
    </contour>
    <contour>
      <point x="222" y="-3" type="curve" smooth="yes"/>
      <point x="181" y="5"/>
      <point x="158" y="16"/>
      <point x="122" y="43" type="curve" smooth="yes"/>
      <point x="85" y="71"/>
      <point x="63" y="103"/>
      <point x="46" y="152" type="curve" smooth="yes"/>
      <point x="32" y="192"/>
      <point x="27" y="222"/>
      <point x="27" y="261" type="curve" smooth="yes"/>
      <point x="27" y="292"/>
      <point x="33" y="333"/>
      <point x="36" y="340" type="curve"/>
      <point x="38" y="342"/>
      <point x="38" y="343"/>
      <point x="40" y="343" type="curve"/>
      <point x="133" y="343" type="line" smooth="yes"/>
      <point x="137" y="343"/>
      <point x="136" y="342"/>
      <point x="135" y="338" type="curve" smooth="yes"/>
      <point x="134" y="335"/>
      <point x="133" y="322"/>
      <point x="132" y="307" type="curve" smooth="yes"/>
      <point x="130" y="279"/>
      <point x="134" y="242"/>
      <point x="142" y="214" type="curve" smooth="yes"/>
      <point x="148" y="194"/>
      <point x="164" y="156"/>
      <point x="172" y="144" type="curve" smooth="yes"/>
      <point x="180" y="132"/>
      <point x="204" y="107"/>
      <point x="208" y="107" type="curve" smooth="yes"/>
      <point x="212" y="107"/>
      <point x="213" y="136"/>
      <point x="213" y="246" type="curve" smooth="yes"/>
      <point x="213" y="343" type="line"/>
      <point x="273" y="343" type="line"/>
      <point x="273" y="340"/>
      <point x="274" y="320"/>
      <point x="274" y="305" type="curve" smooth="yes"/>
      <point x="274" y="222"/>
      <point x="274" y="174"/>
      <point x="274" y="91" type="curve"/>
      <point x="283" y="83" type="line" smooth="yes"/>
      <point x="294" y="74"/>
      <point x="311" y="69"/>
      <point x="326" y="71" type="curve" smooth="yes"/>
      <point x="343" y="73"/>
      <point x="374" y="88"/>
      <point x="381" y="97" type="curve"/>
      <point x="388" y="105" type="line"/>
      <point x="388" y="179" type="line" smooth="yes"/>
      <point x="388" y="260"/>
      <point x="387" y="264"/>
      <point x="371" y="281" type="curve" smooth="yes"/>
      <point x="360" y="292"/>
      <point x="334" y="311"/>
      <point x="317" y="320" type="curve" smooth="yes"/>
      <point x="302" y="327"/>
      <point x="294" y="334"/>
      <point x="292" y="341" type="curve" smooth="yes"/>
      <point x="291" y="344"/>
      <point x="292" y="343"/>
      <point x="297" y="343" type="curve" smooth="yes"/>
      <point x="495" y="343" type="line"/>
      <point x="500" y="332" type="line"/>
      <point x="517" y="299"/>
      <point x="527" y="218"/>
      <point x="518" y="182" type="curve" smooth="yes"/>
      <point x="503" y="117"/>
      <point x="474" y="74"/>
      <point x="423" y="37" type="curve" smooth="yes"/>
      <point x="394" y="17"/>
      <point x="372" y="7"/>
      <point x="332" y="-3" type="curve" smooth="yes"/>
      <point x="307" y="-9"/>
      <point x="249" y="-9"/>
    </contour>
  </outline>
</glyph>
<glyph name="h" format="2">
  <advance width="524"/>
  <unicode hex="0068"/>
  <outline>
    <contour>
      <point x="40" y="361" type="curve"/>
      <point x="39" y="384"/>
      <point x="41" y="455"/>
      <point x="43" y="469" type="curve" smooth="yes"/>
      <point x="52" y="532"/>
      <point x="83" y="592"/>
      <point x="127" y="632" type="curve" smooth="yes"/>
      <point x="148" y="651"/>
      <point x="200" y="681"/>
      <point x="223" y="687" type="curve" smooth="yes"/>
      <point x="273" y="700"/>
      <point x="321" y="700"/>
      <point x="331" y="700" type="curve" smooth="yes"/>
      <point x="340" y="700"/>
      <point x="388" y="700"/>
      <point x="411" y="693" type="curve"/>
      <point x="442" y="685"/>
      <point x="460" y="677"/>
      <point x="472" y="666" type="curve" smooth="yes"/>
      <point x="497" y="645"/>
      <point x="498" y="609"/>
      <point x="476" y="586" type="curve" smooth="yes"/>
      <point x="463" y="572"/>
      <point x="447" y="567"/>
      <point x="422" y="567" type="curve" smooth="yes"/>
      <point x="396" y="567"/>
      <point x="374" y="575"/>
      <point x="359" y="589" type="curve" smooth="yes"/>
      <point x="346" y="601"/>
      <point x="337" y="617"/>
      <point x="337" y="626" type="curve" smooth="yes"/>
      <point x="337" y="638"/>
      <point x="334" y="639"/>
      <point x="312" y="638" type="curve" smooth="yes"/>
      <point x="288" y="636"/>
      <point x="267" y="629"/>
      <point x="249" y="616" type="curve" smooth="yes"/>
      <point x="231" y="604"/>
      <point x="225" y="592"/>
      <point x="223" y="565" type="curve" smooth="yes"/>
      <point x="222" y="547"/>
      <point x="223" y="542"/>
      <point x="229" y="527" type="curve" smooth="yes"/>
      <point x="239" y="502"/>
      <point x="268" y="471"/>
      <point x="296" y="456" type="curve" smooth="yes"/>
      <point x="332" y="437"/>
      <point x="353" y="440"/>
      <point x="391" y="454" type="curve"/>
      <point x="410" y="460"/>
      <point x="438" y="490"/>
      <point x="448" y="509" type="curve" smooth="yes"/>
      <point x="455" y="521"/>
      <point x="464" y="523"/>
      <point x="469" y="514" type="curve" smooth="yes"/>
      <point x="477" y="498"/>
      <point x="479" y="394"/>
      <point x="479" y="361" type="curve" smooth="yes"/>
      <point x="479" y="358"/>
      <point x="478" y="358"/>
      <point x="475" y="358" type="curve" smooth="yes"/>
      <point x="335" y="358" type="line"/>
      <point x="287" y="384" type="line" smooth="yes"/>
      <point x="258" y="400"/>
      <point x="225" y="417"/>
      <point x="213" y="425" type="curve" smooth="yes"/>
      <point x="190" y="440"/>
      <point x="163" y="468"/>
      <point x="156" y="483" type="curve"/>
      <point x="155" y="484"/>
      <point x="155" y="485"/>
      <point x="154" y="487" type="curve" smooth="yes"/>
      <point x="149" y="497" type="line" smooth="yes"/>
      <point x="148" y="499"/>
      <point x="148" y="500"/>
      <point x="147" y="501" type="curve"/>
      <point x="145" y="506"/>
      <point x="142" y="509"/>
      <point x="141" y="508" type="curve"/>
      <point x="139" y="508"/>
      <point x="134" y="495"/>
      <point x="129" y="480" type="curve" smooth="yes"/>
      <point x="111" y="429"/>
      <point x="116" y="408"/>
      <point x="151" y="375" type="curve" smooth="yes"/>
      <point x="169" y="358" type="line"/>
      <point x="45" y="358" type="line" smooth="yes"/>
      <point x="41" y="358"/>
      <point x="40" y="358"/>
    </contour>
    <contour>
      <point x="70" y="192" type="curve" smooth="yes"/>
      <point x="59" y="173"/>
      <point x="53" y="182"/>
      <point x="49" y="192" type="curve" smooth="yes"/>
      <point x="42" y="209"/>
      <point x="41" y="315"/>
      <point x="41" y="340" type="curve" smooth="yes"/>
      <point x="41" y="343"/>
      <point x="42" y="343"/>
      <point x="47" y="343" type="curve" smooth="yes"/>
      <point x="183" y="343" type="line"/>
      <point x="230" y="319" type="line" smooth="yes"/>
      <point x="257" y="305"/>
      <point x="290" y="287"/>
      <point x="303" y="279" type="curve" smooth="yes"/>
      <point x="333" y="259"/>
      <point x="357" y="234"/>
      <point x="368" y="210" type="curve" smooth="yes"/>
      <point x="372" y="200"/>
      <point x="377" y="193"/>
      <point x="379" y="193" type="curve"/>
      <point x="380" y="194"/>
      <point x="385" y="206"/>
      <point x="391" y="222" type="curve"/>
      <point x="403" y="259"/>
      <point x="404" y="279"/>
      <point x="393" y="298" type="curve" smooth="yes"/>
      <point x="389" y="305"/>
      <point x="379" y="318"/>
      <point x="370" y="327" type="curve" smooth="yes"/>
      <point x="360" y="336"/>
      <point x="354" y="340"/>
      <point x="353" y="342" type="curve"/>
      <point x="352" y="343"/>
      <point x="352" y="343"/>
      <point x="355" y="343" type="curve" smooth="yes"/>
      <point x="478" y="343" type="line"/>
      <point x="480" y="343"/>
      <point x="480" y="343"/>
      <point x="480" y="339" type="curve"/>
      <point x="483" y="298"/>
      <point x="479" y="249"/>
      <point x="475" y="224" type="curve" smooth="yes"/>
      <point x="465" y="167"/>
      <point x="436" y="111"/>
      <point x="397" y="74" type="curve" smooth="yes"/>
      <point x="369" y="48"/>
      <point x="317" y="20"/>
      <point x="280" y="10" type="curve" smooth="yes"/>
      <point x="244" y="1"/>
      <point x="173" y="-2"/>
      <point x="138" y="3" type="curve" smooth="yes"/>
      <point x="95" y="9"/>
      <point x="58" y="23"/>
      <point x="44" y="39" type="curve" smooth="yes"/>
      <point x="17" y="68"/>
      <point x="26" y="113"/>
      <point x="62" y="130" type="curve" smooth="yes"/>
      <point x="87" y="141"/>
      <point x="133" y="136"/>
      <point x="156" y="118" type="curve" smooth="yes"/>
      <point x="165" y="111"/>
      <point x="179" y="90"/>
      <point x="181" y="81" type="curve" smooth="yes"/>
      <point x="182" y="77"/>
      <point x="183" y="72"/>
      <point x="184" y="69" type="curve" smooth="yes"/>
      <point x="185" y="64"/>
      <point x="186" y="63"/>
      <point x="198" y="63" type="curve" smooth="yes"/>
      <point x="214" y="63"/>
      <point x="243" y="70"/>
      <point x="258" y="78" type="curve" smooth="yes"/>
      <point x="281" y="89"/>
      <point x="291" y="104"/>
      <point x="296" y="129" type="curve" smooth="yes"/>
      <point x="305" y="177"/>
      <point x="262" y="234"/>
      <point x="202" y="254" type="curve" smooth="yes"/>
      <point x="180" y="262"/>
      <point x="169" y="261"/>
      <point x="149" y="257" type="curve" smooth="yes"/>
      <point x="120" y="251"/>
      <point x="86" y="220"/>
    </contour>
  </outline>
</glyph>
<glyph name="i" format="2">
  <advance width="538"/>
  <unicode hex="0069"/>
  <outline>
    <contour>
      <point x="260" y="390" type="curve" smooth="yes"/>
      <point x="239" y="423"/>
      <point x="222" y="496"/>
      <point x="218" y="569" type="curve" smooth="yes"/>
      <point x="215" y="615"/>
      <point x="224" y="649"/>
      <point x="247" y="677" type="curve" smooth="yes"/>
      <point x="253" y="684"/>
      <point x="262" y="696"/>
      <point x="267" y="703" type="curve" smooth="yes"/>
      <point x="272" y="710"/>
      <point x="277" y="716"/>
      <point x="278" y="715" type="curve"/>
      <point x="280" y="715"/>
      <point x="285" y="705"/>
      <point x="290" y="694" type="curve" smooth="yes"/>
      <point x="294" y="683"/>
      <point x="300" y="670"/>
      <point x="303" y="664" type="curve" smooth="yes"/>
      <point x="310" y="649"/>
      <point x="315" y="625"/>
      <point x="318" y="592" type="curve" smooth="yes"/>
      <point x="323" y="546"/>
      <point x="314" y="479"/>
      <point x="296" y="427" type="curve" smooth="yes"/>
      <point x="288" y="403"/>
      <point x="278" y="384"/>
      <point x="272" y="381" type="curve" smooth="yes"/>
      <point x="268" y="379"/>
      <point x="266" y="380"/>
    </contour>
    <contour>
      <point x="116" y="484" type="curve"/>
      <point x="105" y="488"/>
      <point x="96" y="498"/>
      <point x="95" y="509" type="curve"/>
      <point x="95" y="520"/>
      <point x="96" y="525"/>
      <point x="105" y="535" type="curve" smooth="yes"/>
      <point x="111" y="542"/>
      <point x="123" y="546"/>
      <point x="131" y="545" type="curve"/>
      <point x="142" y="545"/>
      <point x="149" y="541"/>
      <point x="156" y="533" type="curve" smooth="yes"/>
      <point x="167" y="520"/>
      <point x="169" y="502"/>
      <point x="150" y="488" type="curve" smooth="yes"/>
      <point x="142" y="483"/>
      <point x="129" y="481"/>
    </contour>
    <contour>
      <point x="398" y="484" type="curve" smooth="yes"/>
      <point x="379" y="495"/>
      <point x="375" y="514"/>
      <point x="384" y="529" type="curve" smooth="yes"/>
      <point x="393" y="543"/>
      <point x="413" y="549"/>
      <point x="431" y="538" type="curve" smooth="yes"/>
      <point x="449" y="527"/>
      <point x="455" y="497"/>
      <point x="431" y="484" type="curve" smooth="yes"/>
      <point x="421" y="479"/>
      <point x="410" y="477"/>
    </contour>
    <contour>
      <point x="304" y="358" type="line" smooth="yes"/>
      <point x="300" y="358"/>
      <point x="300" y="361"/>
      <point x="308" y="366" type="curve" smooth="yes"/>
      <point x="321" y="375"/>
      <point x="340" y="393"/>
      <point x="350" y="407" type="curve" smooth="yes"/>
      <point x="357" y="416"/>
      <point x="362" y="420"/>
      <point x="373" y="424" type="curve" smooth="yes"/>
      <point x="386" y="429"/>
      <point x="389" y="429"/>
      <point x="406" y="427" type="curve" smooth="yes"/>
      <point x="430" y="424"/>
      <point x="449" y="416"/>
      <point x="459" y="407" type="curve"/>
      <point x="468" y="397"/>
      <point x="504" y="377"/>
      <point x="514" y="375" type="curve" smooth="yes"/>
      <point x="524" y="373"/>
      <point x="529" y="369"/>
      <point x="529" y="363" type="curve" smooth="yes"/>
      <point x="529" y="358"/>
      <point x="522" y="358"/>
      <point x="466" y="358" type="curve" smooth="yes"/>
    </contour>
    <contour>
      <point x="10" y="363" type="curve"/>
      <point x="9" y="368"/>
      <point x="11" y="372"/>
      <point x="24" y="375" type="curve"/>
      <point x="29" y="375"/>
      <point x="45" y="384"/>
      <point x="60" y="394" type="curve" smooth="yes"/>
      <point x="89" y="413"/>
      <point x="107" y="420"/>
      <point x="137" y="425" type="curve" smooth="yes"/>
      <point x="158" y="428"/>
      <point x="169" y="426"/>
      <point x="187" y="414" type="curve" smooth="yes"/>
      <point x="201" y="405"/>
      <point x="246" y="358"/>
      <point x="243" y="358" type="curve" smooth="yes"/>
      <point x="22" y="358" type="line" smooth="yes"/>
      <point x="13" y="358"/>
      <point x="12" y="359"/>
    </contour>
    <contour>
      <point x="198" y="-10" type="curve"/>
      <point x="188" y="-6"/>
      <point x="183" y="-2"/>
      <point x="178" y="11" type="curve" smooth="yes"/>
      <point x="175" y="17"/>
      <point x="170" y="25"/>
      <point x="167" y="29" type="curve" smooth="yes"/>
      <point x="160" y="38"/>
      <point x="159" y="41"/>
      <point x="165" y="41" type="curve" smooth="yes"/>
      <point x="172" y="41"/>
      <point x="188" y="51"/>
      <point x="196" y="61" type="curve" smooth="yes"/>
      <point x="207" y="74"/>
      <point x="220" y="108"/>
      <point x="227" y="138" type="curve" smooth="yes"/>
      <point x="240" y="198"/>
      <point x="222" y="261"/>
      <point x="181" y="304" type="curve" smooth="yes"/>
      <point x="166" y="320"/>
      <point x="158" y="334"/>
      <point x="155" y="340" type="curve" smooth="yes"/>
      <point x="154" y="342"/>
      <point x="154" y="343"/>
      <point x="159" y="343" type="curve" smooth="yes"/>
      <point x="189" y="343"/>
      <point x="338" y="343"/>
      <point x="396" y="343" type="curve" smooth="yes"/>
      <point x="402" y="343"/>
      <point x="402" y="342"/>
      <point x="401" y="340" type="curve" smooth="yes"/>
      <point x="398" y="336"/>
      <point x="395" y="333"/>
      <point x="386" y="325" type="curve" smooth="yes"/>
      <point x="324" y="264"/>
      <point x="303" y="218"/>
      <point x="310" y="157" type="curve" smooth="yes"/>
      <point x="314" y="123"/>
      <point x="322" y="92"/>
      <point x="331" y="73" type="curve" smooth="yes"/>
      <point x="341" y="54"/>
      <point x="361" y="33"/>
      <point x="377" y="26" type="curve" smooth="yes"/>
      <point x="390" y="20"/>
      <point x="392" y="16"/>
      <point x="385" y="10" type="curve" smooth="yes"/>
      <point x="371" y="-2"/>
      <point x="349" y="-5"/>
      <point x="329" y="2" type="curve" smooth="yes"/>
      <point x="324" y="4"/>
      <point x="312" y="6"/>
      <point x="303" y="7" type="curve" smooth="yes"/>
      <point x="288" y="9"/>
      <point x="283" y="8"/>
      <point x="256" y="-1" type="curve" smooth="yes"/>
      <point x="223" y="-11"/>
      <point x="209" y="-13"/>
    </contour>
  </outline>
</glyph>
<glyph name="k" format="2">
  <advance width="543"/>
  <unicode hex="006B"/>
  <outline>
    <contour>
      <point x="71" y="427" type="line" smooth="yes"/>
      <point x="71" y="465"/>
      <point x="69" y="508"/>
      <point x="68" y="522" type="curve" smooth="yes"/>
      <point x="66" y="549"/>
      <point x="66" y="549"/>
      <point x="53" y="565" type="curve" smooth="yes"/>
      <point x="46" y="574"/>
      <point x="34" y="586"/>
      <point x="26" y="591" type="curve" smooth="yes"/>
      <point x="18" y="597"/>
      <point x="12" y="602"/>
      <point x="12" y="603" type="curve"/>
      <point x="12" y="609"/>
      <point x="22" y="618"/>
      <point x="35" y="624" type="curve" smooth="yes"/>
      <point x="53" y="632"/>
      <point x="78" y="655"/>
      <point x="86" y="670" type="curve" smooth="yes"/>
      <point x="89" y="676"/>
      <point x="93" y="687"/>
      <point x="95" y="695" type="curve" smooth="yes"/>
      <point x="98" y="706"/>
      <point x="99" y="708"/>
      <point x="105" y="709" type="curve"/>
      <point x="108" y="709"/>
      <point x="116" y="707"/>
      <point x="122" y="704" type="curve" smooth="yes"/>
      <point x="131" y="698"/>
      <point x="134" y="695"/>
      <point x="139" y="681" type="curve" smooth="yes"/>
      <point x="149" y="651"/>
      <point x="162" y="637"/>
      <point x="191" y="624" type="curve"/>
      <point x="204" y="617"/>
      <point x="220" y="600"/>
      <point x="217" y="595" type="curve"/>
      <point x="216" y="594"/>
      <point x="211" y="593"/>
      <point x="206" y="592" type="curve"/>
      <point x="191" y="592"/>
      <point x="174" y="584"/>
      <point x="168" y="573" type="curve" smooth="yes"/>
      <point x="162" y="564"/>
      <point x="162" y="561"/>
      <point x="162" y="461" type="curve" smooth="yes"/>
      <point x="162" y="361" type="line" smooth="yes"/>
      <point x="162" y="358"/>
      <point x="162" y="358"/>
      <point x="159" y="358" type="curve" smooth="yes"/>
      <point x="73" y="358" type="line"/>
      <point x="71" y="358"/>
      <point x="71" y="359"/>
      <point x="71" y="361" type="curve"/>
    </contour>
    <contour>
      <point x="342" y="361" type="curve"/>
      <point x="342" y="362"/>
      <point x="342" y="386"/>
      <point x="342" y="416" type="curve" smooth="yes"/>
      <point x="341" y="481"/>
      <point x="337" y="543"/>
      <point x="332" y="562" type="curve" smooth="yes"/>
      <point x="330" y="570"/>
      <point x="325" y="579"/>
      <point x="321" y="584" type="curve" smooth="yes"/>
      <point x="314" y="593"/>
      <point x="292" y="604"/>
      <point x="275" y="609" type="curve" smooth="yes"/>
      <point x="266" y="611"/>
      <point x="261" y="615"/>
      <point x="254" y="625" type="curve" smooth="yes"/>
      <point x="248" y="632"/>
      <point x="233" y="646"/>
      <point x="220" y="655" type="curve" smooth="yes"/>
      <point x="188" y="678"/>
      <point x="177" y="691"/>
      <point x="187" y="694" type="curve"/>
      <point x="188" y="694"/>
      <point x="197" y="694"/>
      <point x="206" y="693" type="curve" smooth="yes"/>
      <point x="215" y="692"/>
      <point x="229" y="692"/>
      <point x="238" y="694" type="curve" smooth="yes"/>
      <point x="246" y="695"/>
      <point x="263" y="697"/>
      <point x="276" y="698" type="curve" smooth="yes"/>
      <point x="297" y="699"/>
      <point x="303" y="698"/>
      <point x="337" y="689" type="curve" smooth="yes"/>
      <point x="372" y="680"/>
      <point x="380" y="679"/>
      <point x="418" y="678" type="curve" smooth="yes"/>
      <point x="449" y="677"/>
      <point x="464" y="677"/>
      <point x="470" y="680" type="curve" smooth="yes"/>
      <point x="475" y="682"/>
      <point x="479" y="682"/>
      <point x="480" y="681" type="curve"/>
      <point x="484" y="677"/>
      <point x="471" y="650"/>
      <point x="459" y="637" type="curve" smooth="yes"/>
      <point x="444" y="622"/>
      <point x="432" y="601"/>
      <point x="424" y="580" type="curve" smooth="yes"/>
      <point x="418" y="562"/>
      <point x="418" y="558"/>
      <point x="418" y="505" type="curve" smooth="yes"/>
      <point x="418" y="475"/>
      <point x="419" y="436"/>
      <point x="420" y="418" type="curve" smooth="yes"/>
      <point x="421" y="401"/>
      <point x="421" y="381"/>
      <point x="421" y="373" type="curve" smooth="yes"/>
      <point x="421" y="364"/>
      <point x="421" y="358"/>
      <point x="417" y="358" type="curve" smooth="yes"/>
      <point x="346" y="358" type="line"/>
      <point x="344" y="358"/>
      <point x="342" y="358"/>
    </contour>
    <contour>
      <point x="215" y="453" type="curve"/>
      <point x="205" y="466"/>
      <point x="201" y="483"/>
      <point x="209" y="498" type="curve" smooth="yes"/>
      <point x="216" y="511"/>
      <point x="227" y="517"/>
      <point x="240" y="519" type="curve" smooth="yes"/>
      <point x="254" y="521"/>
      <point x="268" y="519"/>
      <point x="278" y="510" type="curve" smooth="yes"/>
      <point x="288" y="502"/>
      <point x="293" y="492"/>
      <point x="292" y="474" type="curve" smooth="yes"/>
      <point x="291" y="463"/>
      <point x="287" y="449"/>
      <point x="266" y="443" type="curve" smooth="yes"/>
      <point x="249" y="439"/>
      <point x="226" y="441"/>
    </contour>
    <contour>
      <point x="432" y="12" type="curve" smooth="yes"/>
      <point x="388" y="19"/>
      <point x="370" y="19"/>
      <point x="340" y="15" type="curve" smooth="yes"/>
      <point x="328" y="13"/>
      <point x="313" y="8"/>
      <point x="297" y="9" type="curve"/>
      <point x="292" y="10"/>
      <point x="298" y="22"/>
      <point x="306" y="34" type="curve" smooth="yes"/>
      <point x="311" y="41"/>
      <point x="316" y="52"/>
      <point x="318" y="58" type="curve" smooth="yes"/>
      <point x="325" y="82"/>
      <point x="317" y="135"/>
      <point x="305" y="153" type="curve"/>
      <point x="301" y="160" type="line"/>
      <point x="299" y="162"/>
      <point x="298" y="163"/>
      <point x="301" y="164" type="curve"/>
      <point x="306" y="168"/>
      <point x="311" y="172"/>
      <point x="318" y="178" type="curve" smooth="yes"/>
      <point x="327" y="185"/>
      <point x="342" y="197"/>
      <point x="348" y="204" type="curve" smooth="yes"/>
      <point x="354" y="211"/>
      <point x="356" y="213"/>
      <point x="358" y="215" type="curve" smooth="yes"/>
      <point x="360" y="217"/>
      <point x="361" y="217"/>
      <point x="363" y="216" type="curve" smooth="yes"/>
      <point x="366" y="213"/>
      <point x="372" y="206"/>
      <point x="372" y="206" type="curve"/>
      <point x="394" y="182"/>
      <point x="421" y="136"/>
      <point x="437" y="93" type="curve" smooth="yes"/>
      <point x="443" y="78"/>
      <point x="452" y="58"/>
      <point x="455" y="55" type="curve" smooth="yes"/>
      <point x="464" y="45"/>
      <point x="482" y="35"/>
      <point x="501" y="31" type="curve" smooth="yes"/>
      <point x="520" y="28"/>
      <point x="533" y="24"/>
      <point x="533" y="16" type="curve" smooth="yes"/>
      <point x="533" y="9"/>
      <point x="467" y="7"/>
    </contour>
    <contour>
      <point x="154" y="290" type="curve"/>
      <point x="158" y="281"/>
      <point x="160" y="275"/>
      <point x="160" y="236" type="curve" smooth="yes"/>
      <point x="160" y="192" type="line"/>
      <point x="169" y="192" type="line" smooth="yes"/>
      <point x="185" y="192"/>
      <point x="252" y="230"/>
      <point x="281" y="256" type="curve" smooth="yes"/>
      <point x="296" y="270"/>
      <point x="313" y="290"/>
      <point x="333" y="324" type="curve" smooth="yes"/>
      <point x="336" y="330"/>
      <point x="339" y="338"/>
      <point x="339" y="340" type="curve"/>
      <point x="340" y="343"/>
      <point x="340" y="343"/>
      <point x="342" y="343" type="curve"/>
      <point x="416" y="343" type="line"/>
      <point x="417" y="343"/>
      <point x="418" y="343"/>
      <point x="418" y="342" type="curve"/>
      <point x="419" y="342"/>
      <point x="419" y="342"/>
      <point x="419" y="340" type="curve"/>
      <point x="419" y="332"/>
      <point x="409" y="305"/>
      <point x="399" y="286" type="curve" smooth="yes"/>
      <point x="386" y="263"/>
      <point x="351" y="220"/>
      <point x="329" y="202" type="curve" smooth="yes"/>
      <point x="312" y="187"/>
      <point x="280" y="164"/>
      <point x="260" y="151" type="curve" smooth="yes"/>
      <point x="249" y="144"/>
      <point x="173" y="105"/>
      <point x="164" y="102" type="curve" smooth="yes"/>
      <point x="154" y="99"/>
      <point x="185" y="60"/>
      <point x="212" y="43" type="curve" smooth="yes"/>
      <point x="230" y="31"/>
      <point x="232" y="27"/>
      <point x="232" y="17" type="curve" smooth="yes"/>
      <point x="232" y="14"/>
      <point x="232" y="11"/>
      <point x="232" y="9" type="curve"/>
      <point x="33" y="9" type="line" smooth="yes"/>
      <point x="28" y="9"/>
      <point x="28" y="9"/>
      <point x="31" y="15" type="curve" smooth="yes"/>
      <point x="32" y="18"/>
      <point x="39" y="29"/>
      <point x="48" y="40" type="curve" smooth="yes"/>
      <point x="57" y="51"/>
      <point x="66" y="64"/>
      <point x="68" y="70" type="curve"/>
      <point x="72" y="77"/>
      <point x="72" y="99"/>
      <point x="71" y="211" type="curve"/>
      <point x="71" y="211"/>
      <point x="71" y="297"/>
      <point x="71" y="340" type="curve" smooth="yes"/>
      <point x="71" y="343"/>
      <point x="71" y="343"/>
      <point x="74" y="343" type="curve" smooth="yes"/>
      <point x="94" y="343"/>
      <point x="133" y="343"/>
      <point x="133" y="343" type="curve"/>
      <point x="207" y="343"/>
      <point x="210" y="341"/>
      <point x="231" y="330" type="curve" smooth="yes"/>
      <point x="245" y="323"/>
      <point x="276" y="293"/>
      <point x="283" y="281" type="curve" smooth="yes"/>
      <point x="285" y="277"/>
      <point x="284" y="276"/>
      <point x="282" y="273" type="curve" smooth="yes"/>
      <point x="270" y="259"/>
      <point x="256" y="250"/>
      <point x="245" y="242" type="curve" smooth="yes"/>
      <point x="237" y="237"/>
      <point x="237" y="237"/>
      <point x="236" y="238" type="curve"/>
      <point x="232" y="241"/>
      <point x="218" y="253"/>
      <point x="218" y="253" type="curve"/>
      <point x="201" y="267"/>
      <point x="181" y="282"/>
      <point x="167" y="287" type="curve" smooth="yes"/>
      <point x="162" y="289"/>
      <point x="157" y="290"/>
    </contour>
  </outline>
</glyph>
<glyph name="m" format="2">
  <advance width="545"/>
  <unicode hex="006D"/>
  <outline>
    <contour>
      <point x="101" y="360" type="curve" smooth="yes"/>
      <point x="103" y="366"/>
      <point x="105" y="371"/>
      <point x="108" y="380" type="curve" smooth="yes"/>
      <point x="119" y="416"/>
      <point x="121" y="436"/>
      <point x="123" y="503" type="curve" smooth="yes"/>
      <point x="125" y="567" type="line"/>
      <point x="132" y="569" type="line"/>
      <point x="178" y="584"/>
      <point x="201" y="597"/>
      <point x="244" y="633" type="curve" smooth="yes"/>
      <point x="259" y="645"/>
      <point x="277" y="660"/>
      <point x="285" y="667" type="curve" smooth="yes"/>
      <point x="309" y="687"/>
      <point x="332" y="697"/>
      <point x="363" y="700" type="curve"/>
      <point x="383" y="703"/>
      <point x="392" y="703"/>
      <point x="405" y="700" type="curve" smooth="yes"/>
      <point x="424" y="696"/>
      <point x="452" y="681"/>
      <point x="463" y="668" type="curve" smooth="yes"/>
      <point x="473" y="657"/>
      <point x="483" y="634"/>
      <point x="481" y="627" type="curve" smooth="yes"/>
      <point x="479" y="622"/>
      <point x="479" y="622"/>
      <point x="473" y="627" type="curve" smooth="yes"/>
      <point x="457" y="643"/>
      <point x="417" y="660"/>
      <point x="392" y="653" type="curve" smooth="yes"/>
      <point x="380" y="650"/>
      <point x="359" y="632"/>
      <point x="345" y="613" type="curve" smooth="yes"/>
      <point x="333" y="596"/>
      <point x="332" y="595"/>
      <point x="334" y="584" type="curve" smooth="yes"/>
      <point x="337" y="565"/>
      <point x="345" y="542"/>
      <point x="353" y="534" type="curve" smooth="yes"/>
      <point x="356" y="530"/>
      <point x="372" y="518"/>
      <point x="387" y="508" type="curve" smooth="yes"/>
      <point x="455" y="462"/>
      <point x="499" y="420"/>
      <point x="517" y="384" type="curve" smooth="yes"/>
      <point x="521" y="376"/>
      <point x="524" y="369"/>
      <point x="525" y="364" type="curve" smooth="yes"/>
      <point x="526" y="359"/>
      <point x="526" y="358"/>
      <point x="521" y="358" type="curve" smooth="yes"/>
      <point x="457" y="358" type="line" smooth="yes"/>
      <point x="451" y="358"/>
      <point x="451" y="359"/>
      <point x="449" y="362" type="curve" smooth="yes"/>
      <point x="448" y="365"/>
      <point x="444" y="373"/>
      <point x="444" y="373" type="curve"/>
      <point x="433" y="395"/>
      <point x="422" y="406"/>
      <point x="399" y="426" type="curve" smooth="yes"/>
      <point x="386" y="436"/>
      <point x="376" y="445"/>
      <point x="376" y="445" type="curve"/>
      <point x="375" y="445"/>
      <point x="375" y="420"/>
      <point x="375" y="401" type="curve" smooth="yes"/>
      <point x="375" y="381"/>
      <point x="375" y="373"/>
      <point x="374" y="365" type="curve" smooth="yes"/>
      <point x="373" y="358"/>
      <point x="373" y="358"/>
      <point x="367" y="358" type="curve" smooth="yes"/>
      <point x="247" y="358" type="line" smooth="yes"/>
      <point x="243" y="358"/>
      <point x="242" y="358"/>
      <point x="244" y="362" type="curve"/>
      <point x="245" y="368"/>
      <point x="248" y="379"/>
      <point x="249" y="387" type="curve" smooth="yes"/>
      <point x="252" y="407"/>
      <point x="255" y="430"/>
      <point x="255" y="456" type="curve" smooth="yes"/>
      <point x="255" y="500"/>
      <point x="253" y="537"/>
      <point x="250" y="537" type="curve"/>
      <point x="249" y="537"/>
      <point x="240" y="531"/>
      <point x="230" y="524" type="curve" smooth="yes"/>
      <point x="220" y="516"/>
      <point x="206" y="507"/>
      <point x="199" y="503" type="curve" smooth="yes"/>
      <point x="185" y="496" type="line"/>
      <point x="185" y="473" type="line" smooth="yes"/>
      <point x="185" y="445"/>
      <point x="181" y="406"/>
      <point x="176" y="379" type="curve"/>
      <point x="176" y="379"/>
      <point x="173" y="368"/>
      <point x="171" y="362" type="curve" smooth="yes"/>
      <point x="170" y="359"/>
      <point x="169" y="358"/>
      <point x="165" y="358" type="curve" smooth="yes"/>
      <point x="103" y="358" type="line" smooth="yes"/>
      <point x="100" y="358"/>
      <point x="100" y="358"/>
    </contour>
    <contour>
      <point x="411" y="534" type="curve" smooth="yes"/>
      <point x="395" y="542"/>
      <point x="387" y="568"/>
      <point x="398" y="587" type="curve" smooth="yes"/>
      <point x="408" y="606"/>
      <point x="435" y="612"/>
      <point x="456" y="601" type="curve" smooth="yes"/>
      <point x="479" y="589"/>
      <point x="483" y="549"/>
      <point x="460" y="535" type="curve" smooth="yes"/>
      <point x="448" y="527"/>
      <point x="423" y="528"/>
    </contour>
    <contour>
      <point x="138" y="32" type="line" smooth="yes"/>
      <point x="136" y="69"/>
      <point x="129" y="92"/>
      <point x="111" y="124" type="curve" smooth="yes"/>
      <point x="95" y="152"/>
      <point x="77" y="169"/>
      <point x="51" y="183" type="curve" smooth="yes"/>
      <point x="41" y="188"/>
      <point x="30" y="195"/>
      <point x="25" y="199" type="curve" smooth="yes"/>
      <point x="18" y="205"/>
      <point x="17" y="207"/>
      <point x="18" y="215" type="curve" smooth="yes"/>
      <point x="19" y="221"/>
      <point x="24" y="232"/>
      <point x="32" y="243" type="curve" smooth="yes"/>
      <point x="54" y="272"/>
      <point x="74" y="305"/>
      <point x="84" y="323" type="curve" smooth="yes"/>
      <point x="90" y="332"/>
      <point x="92" y="335"/>
      <point x="96" y="341" type="curve" smooth="yes"/>
      <point x="97" y="343"/>
      <point x="98" y="343"/>
      <point x="101" y="343" type="curve" smooth="yes"/>
      <point x="162" y="343" type="line" smooth="yes"/>
      <point x="167" y="343"/>
      <point x="167" y="343"/>
      <point x="166" y="338" type="curve" smooth="yes"/>
      <point x="161" y="323"/>
      <point x="143" y="288"/>
      <point x="135" y="274" type="curve" smooth="yes"/>
      <point x="123" y="253"/>
      <point x="92" y="208"/>
      <point x="85" y="200" type="curve" smooth="yes"/>
      <point x="82" y="196"/>
      <point x="80" y="193"/>
      <point x="80" y="193" type="curve"/>
      <point x="80" y="192"/>
      <point x="90" y="186"/>
      <point x="102" y="179" type="curve" smooth="yes"/>
      <point x="115" y="171"/>
      <point x="130" y="162"/>
      <point x="135" y="158" type="curve" smooth="yes"/>
      <point x="148" y="149"/>
      <point x="148" y="149"/>
      <point x="167" y="181" type="curve" smooth="yes"/>
      <point x="203" y="243"/>
      <point x="227" y="301"/>
      <point x="237" y="334" type="curve"/>
      <point x="239" y="343"/>
      <point x="240" y="343"/>
      <point x="247" y="343" type="curve" smooth="yes"/>
      <point x="366" y="343" type="line" smooth="yes"/>
      <point x="371" y="343"/>
      <point x="372" y="342"/>
      <point x="370" y="336" type="curve" smooth="yes"/>
      <point x="366" y="325"/>
      <point x="356" y="300"/>
      <point x="349" y="286" type="curve"/>
      <point x="339" y="262"/>
      <point x="300" y="194"/>
      <point x="283" y="168" type="curve" smooth="yes"/>
      <point x="276" y="158"/>
      <point x="259" y="134"/>
      <point x="245" y="115" type="curve" smooth="yes"/>
      <point x="210" y="67"/>
      <point x="212" y="71"/>
      <point x="217" y="59" type="curve"/>
      <point x="217" y="59"/>
      <point x="219" y="55"/>
      <point x="220" y="53" type="curve" smooth="yes"/>
      <point x="221" y="51"/>
      <point x="222" y="50"/>
      <point x="224" y="50" type="curve"/>
      <point x="249" y="50" type="line" smooth="yes"/>
      <point x="281" y="50"/>
      <point x="282" y="50"/>
      <point x="293" y="68" type="curve" smooth="yes"/>
      <point x="301" y="82"/>
      <point x="320" y="109"/>
      <point x="355" y="148" type="curve" smooth="yes"/>
      <point x="408" y="208"/>
      <point x="457" y="302"/>
      <point x="456" y="332" type="curve"/>
      <point x="455" y="340"/>
      <point x="454" y="343"/>
      <point x="460" y="343" type="curve" smooth="yes"/>
      <point x="522" y="343" type="line" smooth="yes"/>
      <point x="528" y="343"/>
      <point x="528" y="342"/>
      <point x="528" y="337" type="curve" smooth="yes"/>
      <point x="528" y="330"/>
      <point x="527" y="321"/>
      <point x="526" y="316" type="curve" smooth="yes"/>
      <point x="513" y="250"/>
      <point x="493" y="214"/>
      <point x="415" y="111" type="curve" smooth="yes"/>
      <point x="390" y="77"/>
      <point x="389" y="75"/>
      <point x="392" y="68" type="curve" smooth="yes"/>
      <point x="396" y="57"/>
      <point x="411" y="41"/>
      <point x="434" y="23" type="curve"/>
      <point x="446" y="15"/>
      <point x="455" y="8"/>
      <point x="459" y="5" type="curve" smooth="yes"/>
      <point x="461" y="3"/>
      <point x="461" y="2"/>
      <point x="458" y="2" type="curve" smooth="yes"/>
      <point x="140" y="2" type="line"/>
    </contour>
  </outline>
</glyph>
<glyph name="o" format="2">
  <advance width="604"/>
  <unicode hex="006F"/>
  <outline>
    <contour>
      <point x="229" y="-15" type="curve" smooth="yes"/>
      <point x="228" y="-10"/>
      <point x="222" y="23"/>
      <point x="214" y="66" type="curve" smooth="yes"/>
      <point x="210" y="90" type="line"/>
      <point x="195" y="101" type="line"/>
      <point x="155" y="132"/>
      <point x="134" y="171"/>
      <point x="119" y="242" type="curve" smooth="yes"/>
      <point x="118" y="249"/>
      <point x="114" y="266"/>
      <point x="112" y="280" type="curve"/>
      <point x="109" y="293"/>
      <point x="105" y="310"/>
      <point x="103" y="316" type="curve" smooth="yes"/>
      <point x="100" y="322"/>
      <point x="99" y="329"/>
      <point x="99" y="330" type="curve"/>
      <point x="98" y="334"/>
      <point x="107" y="330"/>
      <point x="140" y="310" type="curve" smooth="yes"/>
      <point x="175" y="289" type="line"/>
      <point x="180" y="271" type="line" smooth="yes"/>
      <point x="191" y="229"/>
      <point x="217" y="192"/>
      <point x="245" y="178" type="curve" smooth="yes"/>
      <point x="270" y="166"/>
      <point x="319" y="165"/>
      <point x="346" y="175" type="curve" smooth="yes"/>
      <point x="367" y="183"/>
      <point x="392" y="204"/>
      <point x="405" y="223" type="curve" smooth="yes"/>
      <point x="419" y="244"/>
      <point x="431" y="280"/>
      <point x="433" y="311" type="curve" smooth="yes"/>
      <point x="434" y="325"/>
      <point x="436" y="338"/>
      <point x="437" y="340" type="curve" smooth="yes"/>
      <point x="439" y="344"/>
      <point x="445" y="341"/>
      <point x="483" y="317" type="curve" smooth="yes"/>
      <point x="517" y="295"/>
      <point x="581" y="254"/>
      <point x="590" y="247" type="curve" smooth="yes"/>
      <point x="595" y="243"/>
      <point x="592" y="242"/>
      <point x="588" y="239" type="curve"/>
      <point x="578" y="234"/>
      <point x="562" y="230"/>
      <point x="516" y="226" type="curve" smooth="yes"/>
      <point x="497" y="224" type="line"/>
      <point x="490" y="210" type="line" smooth="yes"/>
      <point x="449" y="126"/>
      <point x="398" y="80"/>
      <point x="332" y="67" type="curve" smooth="yes"/>
      <point x="309" y="62" type="line"/>
      <point x="293" y="42" type="line"/>
      <point x="259" y="2"/>
      <point x="242" y="-17"/>
      <point x="238" y="-21" type="curve" smooth="yes"/>
      <point x="232" y="-29"/>
      <point x="232" y="-30"/>
    </contour>
    <contour>
      <point x="282" y="265" type="curve" smooth="yes"/>
      <point x="259" y="276"/>
      <point x="250" y="290"/>
      <point x="241" y="322" type="curve" smooth="yes"/>
      <point x="238" y="334"/>
      <point x="238" y="338"/>
      <point x="240" y="340" type="curve"/>
      <point x="241" y="341"/>
      <point x="250" y="343"/>
      <point x="260" y="343" type="curve" smooth="yes"/>
      <point x="280" y="343"/>
      <point x="282" y="340"/>
      <point x="292" y="322" type="curve" smooth="yes"/>
      <point x="296" y="314"/>
      <point x="300" y="308"/>
      <point x="302" y="308" type="curve"/>
      <point x="304" y="308"/>
      <point x="307" y="315"/>
      <point x="310" y="324" type="curve" smooth="yes"/>
      <point x="313" y="333"/>
      <point x="317" y="340"/>
      <point x="320" y="341" type="curve" smooth="yes"/>
      <point x="326" y="344"/>
      <point x="348" y="344"/>
      <point x="357" y="341" type="curve" smooth="yes"/>
      <point x="363" y="339"/>
      <point x="363" y="339"/>
      <point x="361" y="327" type="curve" smooth="yes"/>
      <point x="358" y="311"/>
      <point x="349" y="288"/>
      <point x="341" y="277" type="curve" smooth="yes"/>
      <point x="333" y="267"/>
      <point x="317" y="259"/>
      <point x="304" y="259" type="curve" smooth="yes"/>
      <point x="299" y="259"/>
      <point x="289" y="262"/>
    </contour>
    <contour>
      <point x="244" y="361" type="curve"/>
      <point x="236" y="363" type="line"/>
      <point x="237" y="376" type="line"/>
      <point x="240" y="397"/>
      <point x="250" y="415"/>
      <point x="263" y="426" type="curve" smooth="yes"/>
      <point x="275" y="436"/>
      <point x="276" y="436"/>
      <point x="280" y="432" type="curve" smooth="yes"/>
      <point x="287" y="426"/>
      <point x="294" y="406"/>
      <point x="294" y="394" type="curve" smooth="yes"/>
      <point x="294" y="383"/>
      <point x="289" y="369"/>
      <point x="284" y="362" type="curve"/>
      <point x="279" y="357"/>
      <point x="260" y="358"/>
    </contour>
    <contour>
      <point x="314" y="362" type="curve" smooth="yes"/>
      <point x="310" y="367"/>
      <point x="306" y="395"/>
      <point x="308" y="407" type="curve" smooth="yes"/>
      <point x="310" y="422"/>
      <point x="318" y="436"/>
      <point x="325" y="436" type="curve" smooth="yes"/>
      <point x="328" y="436"/>
      <point x="335" y="431"/>
      <point x="341" y="424" type="curve"/>
      <point x="354" y="412"/>
      <point x="361" y="394"/>
      <point x="361" y="375" type="curve" smooth="yes"/>
      <point x="361" y="365"/>
      <point x="360" y="362"/>
      <point x="355" y="361" type="curve"/>
      <point x="346" y="358"/>
      <point x="318" y="358"/>
    </contour>
    <contour>
      <point x="153" y="368" type="curve" smooth="yes"/>
      <point x="142" y="374"/>
      <point x="130" y="381"/>
      <point x="121" y="387" type="curve" smooth="yes"/>
      <point x="41" y="440"/>
      <point x="17" y="457"/>
      <point x="15" y="458" type="curve"/>
      <point x="8" y="466"/>
      <point x="8" y="467"/>
      <point x="34" y="471" type="curve" smooth="yes"/>
      <point x="40" y="472"/>
      <point x="59" y="474"/>
      <point x="76" y="477" type="curve"/>
      <point x="108" y="481" type="line"/>
      <point x="119" y="503" type="line"/>
      <point x="140" y="542"/>
      <point x="151" y="559"/>
      <point x="171" y="580" type="curve" smooth="yes"/>
      <point x="204" y="614"/>
      <point x="239" y="633"/>
      <point x="276" y="638" type="curve"/>
      <point x="289" y="639"/>
      <point x="293" y="641"/>
      <point x="299" y="647" type="curve" smooth="yes"/>
      <point x="311" y="659"/>
      <point x="338" y="691"/>
      <point x="357" y="713" type="curve" smooth="yes"/>
      <point x="370" y="729"/>
      <point x="372" y="729"/>
      <point x="373" y="724" type="curve" smooth="yes"/>
      <point x="375" y="711"/>
      <point x="383" y="664"/>
      <point x="389" y="631" type="curve" smooth="yes"/>
      <point x="390" y="624"/>
      <point x="395" y="615"/>
      <point x="402" y="609" type="curve" smooth="yes"/>
      <point x="457" y="563"/>
      <point x="471" y="535"/>
      <point x="490" y="440" type="curve" smooth="yes"/>
      <point x="495" y="414"/>
      <point x="500" y="390"/>
      <point x="502" y="386" type="curve" smooth="yes"/>
      <point x="504" y="382"/>
      <point x="504" y="377"/>
      <point x="503" y="375" type="curve" smooth="yes"/>
      <point x="501" y="372"/>
      <point x="494" y="375"/>
      <point x="467" y="393" type="curve"/>
      <point x="433" y="414" type="line"/>
      <point x="426" y="433" type="line"/>
      <point x="406" y="493"/>
      <point x="376" y="524"/>
      <point x="334" y="534" type="curve"/>
      <point x="313" y="538"/>
      <point x="302" y="538"/>
      <point x="275" y="532" type="curve" smooth="yes"/>
      <point x="250" y="527"/>
      <point x="230" y="515"/>
      <point x="210" y="493" type="curve"/>
      <point x="188" y="471"/>
      <point x="175" y="429"/>
      <point x="170" y="383" type="curve" smooth="yes"/>
      <point x="168" y="365"/>
      <point x="166" y="361"/>
    </contour>
  </outline>
</glyph>
<glyph name="p" format="2">
  <advance width="484"/>
  <unicode hex="0070"/>
  <outline>
    <contour>
      <point x="181" y="364" type="curve"/>
      <point x="182" y="365"/>
      <point x="184" y="367"/>
      <point x="186" y="369" type="curve" smooth="yes"/>
      <point x="190" y="372"/>
      <point x="210" y="392"/>
      <point x="230" y="414" type="curve" smooth="yes"/>
      <point x="281" y="467"/>
      <point x="296" y="490"/>
      <point x="296" y="514" type="curve" smooth="yes"/>
      <point x="296" y="536"/>
      <point x="291" y="552"/>
      <point x="282" y="564" type="curve" smooth="yes"/>
      <point x="273" y="576"/>
      <point x="247" y="590"/>
      <point x="226" y="594" type="curve" smooth="yes"/>
      <point x="204" y="598"/>
      <point x="187" y="593"/>
      <point x="175" y="578" type="curve" smooth="yes"/>
      <point x="168" y="569"/>
      <point x="164" y="562"/>
      <point x="164" y="551" type="curve" smooth="yes"/>
      <point x="164" y="542"/>
      <point x="167" y="532"/>
      <point x="175" y="526" type="curve" smooth="yes"/>
      <point x="197" y="510"/>
      <point x="228" y="526"/>
      <point x="228" y="555" type="curve" smooth="yes"/>
      <point x="228" y="569"/>
      <point x="227" y="571"/>
      <point x="237" y="558" type="curve" smooth="yes"/>
      <point x="241" y="552"/>
      <point x="245" y="538"/>
      <point x="245" y="526" type="curve" smooth="yes"/>
      <point x="245" y="510"/>
      <point x="241" y="497"/>
      <point x="235" y="485" type="curve" smooth="yes"/>
      <point x="219" y="455"/>
      <point x="194" y="443"/>
      <point x="146" y="443" type="curve" smooth="yes"/>
      <point x="123" y="443"/>
      <point x="115" y="444"/>
      <point x="102" y="449" type="curve" smooth="yes"/>
      <point x="80" y="457"/>
      <point x="56" y="479"/>
      <point x="45" y="503" type="curve" smooth="yes"/>
      <point x="37" y="520"/>
      <point x="36" y="523"/>
      <point x="36" y="549" type="curve" smooth="yes"/>
      <point x="36" y="605"/>
      <point x="58" y="646"/>
      <point x="101" y="674" type="curve" smooth="yes"/>
      <point x="129" y="692"/>
      <point x="146" y="697"/>
      <point x="192" y="698" type="curve" smooth="yes"/>
      <point x="227" y="699"/>
      <point x="235" y="699"/>
      <point x="265" y="692" type="curve" smooth="yes"/>
      <point x="283" y="688"/>
      <point x="305" y="683"/>
      <point x="313" y="681" type="curve" smooth="yes"/>
      <point x="338" y="674"/>
      <point x="361" y="677"/>
      <point x="390" y="692" type="curve" smooth="yes"/>
      <point x="413" y="704" type="line"/>
      <point x="416" y="697" type="line" smooth="yes"/>
      <point x="418" y="692"/>
      <point x="419" y="669"/>
      <point x="419" y="633" type="curve" smooth="yes"/>
      <point x="419" y="567"/>
      <point x="416" y="554"/>
      <point x="393" y="505" type="curve" smooth="yes"/>
      <point x="374" y="463"/>
      <point x="342" y="417"/>
      <point x="305" y="378" type="curve"/>
      <point x="305" y="378"/>
      <point x="297" y="368"/>
      <point x="292" y="363" type="curve" smooth="yes"/>
      <point x="288" y="359"/>
      <point x="287" y="358"/>
      <point x="281" y="358" type="curve" smooth="yes"/>
      <point x="183" y="358" type="line" smooth="yes"/>
      <point x="176" y="358"/>
      <point x="175" y="358"/>
    </contour>
    <contour>
      <point x="37" y="5" type="curve"/>
      <point x="37" y="6"/>
      <point x="40" y="17"/>
      <point x="43" y="30" type="curve" smooth="yes"/>
      <point x="46" y="44"/>
      <point x="49" y="72"/>
      <point x="51" y="92" type="curve" smooth="yes"/>
      <point x="56" y="150"/>
      <point x="69" y="201"/>
      <point x="88" y="243" type="curve"/>
      <point x="98" y="263"/>
      <point x="131" y="308"/>
      <point x="152" y="330" type="curve"/>
      <point x="152" y="330"/>
      <point x="157" y="336"/>
      <point x="161" y="340" type="curve" smooth="yes"/>
      <point x="164" y="343"/>
      <point x="165" y="343"/>
      <point x="171" y="343" type="curve" smooth="yes"/>
      <point x="268" y="343" type="line" smooth="yes"/>
      <point x="275" y="343"/>
      <point x="275" y="343"/>
      <point x="270" y="337" type="curve" smooth="yes"/>
      <point x="261" y="327" type="line" smooth="yes"/>
      <point x="253" y="319"/>
      <point x="236" y="299"/>
      <point x="222" y="283" type="curve" smooth="yes"/>
      <point x="203" y="260"/>
      <point x="194" y="247"/>
      <point x="183" y="225" type="curve" smooth="yes"/>
      <point x="155" y="168"/>
      <point x="142" y="111"/>
      <point x="142" y="50" type="curve" smooth="yes"/>
      <point x="142" y="34"/>
      <point x="141" y="17"/>
      <point x="140" y="13" type="curve"/>
      <point x="139" y="4" type="line"/>
      <point x="39" y="4" type="line"/>
      <point x="37" y="4"/>
      <point x="37" y="4"/>
    </contour>
    <contour>
      <point x="177" y="32" type="line"/>
      <point x="184" y="163"/>
      <point x="194" y="191"/>
      <point x="270" y="288" type="curve" smooth="yes"/>
      <point x="284" y="305"/>
      <point x="300" y="325"/>
      <point x="306" y="331" type="curve"/>
      <point x="306" y="331"/>
      <point x="310" y="336"/>
      <point x="313" y="339" type="curve" smooth="yes"/>
      <point x="317" y="343"/>
      <point x="317" y="343"/>
      <point x="322" y="343" type="curve" smooth="yes"/>
      <point x="376" y="343" type="line" smooth="yes"/>
      <point x="380" y="343"/>
      <point x="380" y="343"/>
      <point x="379" y="340" type="curve"/>
      <point x="378" y="339"/>
      <point x="377" y="335"/>
      <point x="374" y="329" type="curve" smooth="yes"/>
      <point x="363" y="305"/>
      <point x="325" y="221"/>
      <point x="315" y="187" type="curve"/>
      <point x="302" y="149"/>
      <point x="299" y="127"/>
      <point x="298" y="87" type="curve"/>
      <point x="298" y="52" type="line"/>
      <point x="345" y="52" type="line"/>
      <point x="345" y="70" type="line" smooth="yes"/>
      <point x="345" y="85"/>
      <point x="348" y="97"/>
      <point x="352" y="104" type="curve" smooth="yes"/>
      <point x="355" y="109"/>
      <point x="362" y="118"/>
      <point x="367" y="122" type="curve" smooth="yes"/>
      <point x="373" y="126"/>
      <point x="383" y="131"/>
      <point x="392" y="132" type="curve" smooth="yes"/>
      <point x="401" y="133"/>
      <point x="416" y="134"/>
      <point x="427" y="127" type="curve" smooth="yes"/>
      <point x="448" y="115"/>
      <point x="456" y="99"/>
      <point x="461" y="64" type="curve" smooth="yes"/>
      <point x="463" y="48"/>
      <point x="456" y="14"/>
      <point x="454" y="7" type="curve"/>
      <point x="453" y="6"/>
      <point x="452" y="4"/>
      <point x="452" y="4" type="curve"/>
      <point x="175" y="4" type="line"/>
    </contour>
    <contour>
      <point x="383" y="195" type="curve" smooth="yes"/>
      <point x="367" y="200"/>
      <point x="357" y="223"/>
      <point x="364" y="242" type="curve" smooth="yes"/>
      <point x="370" y="260"/>
      <point x="388" y="266"/>
      <point x="409" y="260" type="curve" smooth="yes"/>
      <point x="426" y="256"/>
      <point x="436" y="237"/>
      <point x="431" y="217" type="curve" smooth="yes"/>
      <point x="425" y="194"/>
      <point x="402" y="189"/>
    </contour>
    <contour>
      <point x="395" y="396" type="curve" smooth="yes"/>
      <point x="391" y="381"/>
      <point x="387" y="366"/>
      <point x="385" y="360" type="curve" smooth="yes"/>
      <point x="384" y="358"/>
      <point x="383" y="357"/>
      <point x="378" y="357" type="curve" smooth="yes"/>
      <point x="366" y="357"/>
      <point x="343" y="358"/>
      <point x="333" y="358" type="curve" smooth="yes"/>
      <point x="330" y="358"/>
      <point x="329" y="358"/>
      <point x="331" y="359" type="curve"/>
      <point x="333" y="363"/>
      <point x="339" y="368"/>
      <point x="349" y="379" type="curve" smooth="yes"/>
      <point x="383" y="416" type="line"/>
      <point x="392" y="427"/>
      <point x="401" y="436"/>
      <point x="402" y="435" type="curve"/>
      <point x="404" y="434"/>
      <point x="399" y="413"/>
    </contour>
  </outline>
</glyph>
<glyph name="q" format="2">
  <advance width="490"/>
  <unicode hex="0071"/>
  <outline>
    <contour>
      <point x="48" y="397" type="curve" smooth="yes"/>
      <point x="49" y="419"/>
      <point x="53" y="462"/>
      <point x="65" y="493" type="curve" smooth="yes"/>
      <point x="95" y="570"/>
      <point x="154" y="614"/>
      <point x="258" y="636" type="curve" smooth="yes"/>
      <point x="313" y="647"/>
      <point x="390" y="677"/>
      <point x="425" y="701" type="curve" smooth="yes"/>
      <point x="441" y="713"/>
      <point x="446" y="714"/>
      <point x="448" y="707" type="curve" smooth="yes"/>
      <point x="454" y="688"/>
      <point x="461" y="596"/>
      <point x="459" y="571" type="curve"/>
      <point x="459" y="564"/>
      <point x="456" y="536"/>
      <point x="453" y="510" type="curve" smooth="yes"/>
      <point x="450" y="483"/>
      <point x="446" y="440"/>
      <point x="444" y="414" type="curve" smooth="yes"/>
      <point x="444" y="414"/>
      <point x="443" y="399"/>
      <point x="442" y="375" type="curve"/>
      <point x="442" y="366"/>
      <point x="441" y="366"/>
      <point x="432" y="367" type="curve" smooth="yes"/>
      <point x="375" y="371"/>
      <point x="319" y="376"/>
      <point x="304" y="378" type="curve" smooth="yes"/>
      <point x="277" y="381" type="line" smooth="yes"/>
      <point x="257" y="383"/>
      <point x="256" y="384"/>
      <point x="271" y="399" type="curve" smooth="yes"/>
      <point x="279" y="407"/>
      <point x="295" y="418"/>
      <point x="314" y="428" type="curve" smooth="yes"/>
      <point x="331" y="437"/>
      <point x="348" y="448"/>
      <point x="352" y="453" type="curve" smooth="yes"/>
      <point x="359" y="461"/>
      <point x="360" y="464"/>
      <point x="362" y="490" type="curve"/>
      <point x="363" y="520"/>
      <point x="359" y="576"/>
      <point x="355" y="580" type="curve"/>
      <point x="354" y="581"/>
      <point x="351" y="581"/>
      <point x="348" y="578" type="curve" smooth="yes"/>
      <point x="340" y="571"/>
      <point x="303" y="557"/>
      <point x="265" y="547" type="curve" smooth="yes"/>
      <point x="192" y="528"/>
      <point x="172" y="507"/>
      <point x="157" y="439" type="curve" smooth="yes"/>
      <point x="154" y="426"/>
      <point x="151" y="402"/>
      <point x="150" y="386" type="curve"/>
      <point x="150" y="386"/>
      <point x="149" y="370"/>
      <point x="149" y="362" type="curve" smooth="yes"/>
      <point x="149" y="358"/>
      <point x="148" y="358"/>
      <point x="145" y="358" type="curve" smooth="yes"/>
      <point x="53" y="358" type="line" smooth="yes"/>
      <point x="47" y="358"/>
      <point x="47" y="358"/>
      <point x="47" y="363" type="curve" smooth="yes"/>
      <point x="47" y="375"/>
      <point x="47" y="384"/>
    </contour>
    <contour>
      <point x="65" y="620" type="curve" smooth="yes"/>
      <point x="44" y="632"/>
      <point x="39" y="654"/>
      <point x="51" y="675" type="curve" smooth="yes"/>
      <point x="59" y="689"/>
      <point x="72" y="695"/>
      <point x="87" y="695" type="curve" smooth="yes"/>
      <point x="98" y="695"/>
      <point x="107" y="692"/>
      <point x="115" y="684" type="curve" smooth="yes"/>
      <point x="128" y="672"/>
      <point x="132" y="652"/>
      <point x="123" y="634" type="curve"/>
      <point x="121" y="628"/>
      <point x="113" y="621"/>
      <point x="108" y="619" type="curve" smooth="yes"/>
      <point x="93" y="614"/>
      <point x="76" y="613"/>
    </contour>
    <contour>
      <point x="37" y="-6" type="curve" smooth="yes"/>
      <point x="35" y="6"/>
      <point x="30" y="60"/>
      <point x="29" y="93" type="curve"/>
      <point x="27" y="117"/>
      <point x="28" y="136"/>
      <point x="31" y="161" type="curve" smooth="yes"/>
      <point x="37" y="204"/>
      <point x="42" y="268"/>
      <point x="45" y="306" type="curve" smooth="yes"/>
      <point x="46" y="325"/>
      <point x="46" y="335"/>
      <point x="50" y="335" type="curve" smooth="yes"/>
      <point x="60" y="335"/>
      <point x="156" y="326"/>
      <point x="175" y="324" type="curve" smooth="yes"/>
      <point x="187" y="322"/>
      <point x="204" y="321"/>
      <point x="212" y="320" type="curve" smooth="yes"/>
      <point x="228" y="318" type="line"/>
      <point x="224" y="311" type="line" smooth="yes"/>
      <point x="218" y="300"/>
      <point x="205" y="290"/>
      <point x="169" y="271" type="curve" smooth="yes"/>
      <point x="129" y="250"/>
      <point x="127" y="249"/>
      <point x="126" y="204" type="curve" smooth="yes"/>
      <point x="125" y="173"/>
      <point x="128" y="125"/>
      <point x="132" y="122" type="curve"/>
      <point x="133" y="121"/>
      <point x="137" y="122"/>
      <point x="141" y="125" type="curve" smooth="yes"/>
      <point x="154" y="133"/>
      <point x="176" y="142"/>
      <point x="197" y="148" type="curve" smooth="yes"/>
      <point x="244" y="160"/>
      <point x="251" y="162"/>
      <point x="268" y="170" type="curve" smooth="yes"/>
      <point x="287" y="179"/>
      <point x="307" y="196"/>
      <point x="314" y="208" type="curve" smooth="yes"/>
      <point x="324" y="228"/>
      <point x="333" y="269"/>
      <point x="337" y="313" type="curve"/>
      <point x="337" y="313"/>
      <point x="339" y="329"/>
      <point x="340" y="339" type="curve"/>
      <point x="340" y="343"/>
      <point x="340" y="343"/>
      <point x="346" y="343" type="curve" smooth="yes"/>
      <point x="434" y="343" type="line" smooth="yes"/>
      <point x="442" y="343"/>
      <point x="442" y="343"/>
      <point x="442" y="335" type="curve" smooth="yes"/>
      <point x="442" y="307"/>
      <point x="438" y="264"/>
      <point x="432" y="242" type="curve" smooth="yes"/>
      <point x="407" y="143"/>
      <point x="348" y="91"/>
      <point x="237" y="68" type="curve" smooth="yes"/>
      <point x="218" y="64"/>
      <point x="188" y="56"/>
      <point x="170" y="50" type="curve" smooth="yes"/>
      <point x="135" y="39"/>
      <point x="77" y="11"/>
      <point x="58" y="-3" type="curve" smooth="yes"/>
      <point x="44" y="-13"/>
      <point x="39" y="-14"/>
    </contour>
    <contour>
      <point x="385" y="10" type="curve" smooth="yes"/>
      <point x="359" y="17"/>
      <point x="353" y="48"/>
      <point x="366" y="69" type="curve" smooth="yes"/>
      <point x="375" y="84"/>
      <point x="401" y="91"/>
      <point x="418" y="83" type="curve" smooth="yes"/>
      <point x="439" y="74"/>
      <point x="447" y="50"/>
      <point x="439" y="32" type="curve" smooth="yes"/>
      <point x="430" y="12"/>
      <point x="410" y="3"/>
    </contour>
  </outline>
</glyph>
<glyph name="r" format="2">
  <advance width="533"/>
  <unicode hex="0072"/>
  <outline>
    <contour>
      <point x="69" y="370" type="curve"/>
      <point x="69" y="381"/>
      <point x="64" y="398"/>
      <point x="56" y="423" type="curve" smooth="yes"/>
      <point x="20" y="530"/>
      <point x="22" y="552"/>
      <point x="68" y="600" type="curve" smooth="yes"/>
      <point x="84" y="616"/>
      <point x="94" y="630"/>
      <point x="101" y="644" type="curve" smooth="yes"/>
      <point x="111" y="664" type="line"/>
      <point x="107" y="683" type="line" smooth="yes"/>
      <point x="103" y="700"/>
      <point x="103" y="702"/>
      <point x="108" y="708" type="curve" smooth="yes"/>
      <point x="112" y="713"/>
      <point x="116" y="715"/>
      <point x="123" y="715" type="curve" smooth="yes"/>
      <point x="134" y="715"/>
      <point x="142" y="708"/>
      <point x="229" y="625" type="curve" smooth="yes"/>
      <point x="248" y="607"/>
      <point x="266" y="592"/>
      <point x="268" y="592" type="curve"/>
      <point x="273" y="592"/>
      <point x="293" y="618"/>
      <point x="300" y="633" type="curve" smooth="yes"/>
      <point x="305" y="644"/>
      <point x="305" y="647"/>
      <point x="300" y="679" type="curve" smooth="yes"/>
      <point x="299" y="689"/>
      <point x="299" y="690"/>
      <point x="306" y="692" type="curve" smooth="yes"/>
      <point x="310" y="693"/>
      <point x="331" y="692"/>
      <point x="353" y="689" type="curve" smooth="yes"/>
      <point x="375" y="686"/>
      <point x="407" y="684"/>
      <point x="423" y="685" type="curve"/>
      <point x="454" y="685" type="line"/>
      <point x="444" y="678" type="line"/>
      <point x="426" y="664"/>
      <point x="409" y="644"/>
      <point x="404" y="631" type="curve" smooth="yes"/>
      <point x="390" y="590"/>
      <point x="378" y="568"/>
      <point x="355" y="541" type="curve" smooth="yes"/>
      <point x="347" y="532"/>
      <point x="340" y="523"/>
      <point x="340" y="522" type="curve"/>
      <point x="340" y="518"/>
      <point x="392" y="467"/>
      <point x="452" y="412" type="curve" smooth="yes"/>
      <point x="475" y="391"/>
      <point x="494" y="372"/>
      <point x="501" y="365" type="curve" smooth="yes"/>
      <point x="507" y="359"/>
      <point x="509" y="357"/>
      <point x="500" y="357" type="curve" smooth="yes"/>
      <point x="397" y="357" type="line" smooth="yes"/>
      <point x="390" y="357"/>
      <point x="388" y="360"/>
      <point x="383" y="365" type="curve" smooth="yes"/>
      <point x="378" y="371"/>
      <point x="369" y="382"/>
      <point x="369" y="382" type="curve"/>
      <point x="341" y="414"/>
      <point x="295" y="457"/>
      <point x="281" y="464" type="curve" smooth="yes"/>
      <point x="267" y="470"/>
      <point x="259" y="470"/>
      <point x="237" y="459" type="curve"/>
      <point x="225" y="452"/>
      <point x="221" y="452"/>
      <point x="213" y="454" type="curve" smooth="yes"/>
      <point x="207" y="455"/>
      <point x="201" y="459"/>
      <point x="199" y="462" type="curve" smooth="yes"/>
      <point x="196" y="467"/>
      <point x="196" y="469"/>
      <point x="200" y="475" type="curve" smooth="yes"/>
      <point x="208" y="485"/>
      <point x="214" y="504"/>
      <point x="214" y="518" type="curve" smooth="yes"/>
      <point x="214" y="531" type="line"/>
      <point x="192" y="546" type="line" smooth="yes"/>
      <point x="156" y="570"/>
      <point x="147" y="575"/>
      <point x="143" y="571" type="curve" smooth="yes"/>
      <point x="142" y="569"/>
      <point x="137" y="556"/>
      <point x="134" y="542" type="curve" smooth="yes"/>
      <point x="126" y="511"/>
      <point x="125" y="470"/>
      <point x="131" y="445" type="curve" smooth="yes"/>
      <point x="136" y="425"/>
      <point x="151" y="399"/>
      <point x="167" y="381" type="curve" smooth="yes"/>
      <point x="173" y="374"/>
      <point x="180" y="362"/>
      <point x="181" y="360" type="curve" smooth="yes"/>
      <point x="182" y="357"/>
      <point x="182" y="357"/>
      <point x="173" y="357" type="curve" smooth="yes"/>
      <point x="73" y="357" type="line"/>
      <point x="71" y="357"/>
      <point x="70" y="357"/>
      <point x="70" y="360" type="curve" smooth="yes"/>
      <point x="70" y="363"/>
      <point x="70" y="364"/>
    </contour>
    <contour>
      <point x="116" y="-11" type="curve" smooth="yes"/>
      <point x="108" y="-7"/>
      <point x="106" y="-5"/>
      <point x="107" y="2" type="curve" smooth="yes"/>
      <point x="110" y="35"/>
      <point x="109" y="43"/>
      <point x="101" y="60" type="curve" smooth="yes"/>
      <point x="96" y="69"/>
      <point x="82" y="87"/>
      <point x="68" y="103" type="curve" smooth="yes"/>
      <point x="35" y="138"/>
      <point x="33" y="143"/>
      <point x="33" y="174" type="curve"/>
      <point x="34" y="203"/>
      <point x="38" y="221"/>
      <point x="55" y="271" type="curve" smooth="yes"/>
      <point x="62" y="292"/>
      <point x="68" y="314"/>
      <point x="69" y="325" type="curve" smooth="yes"/>
      <point x="70" y="329"/>
      <point x="70" y="331"/>
      <point x="71" y="338" type="curve"/>
      <point x="71" y="342"/>
      <point x="71" y="342"/>
      <point x="74" y="342" type="curve" smooth="yes"/>
      <point x="175" y="342" type="line" smooth="yes"/>
      <point x="181" y="342"/>
      <point x="181" y="342"/>
      <point x="179" y="338" type="curve" smooth="yes"/>
      <point x="177" y="334"/>
      <point x="171" y="325"/>
      <point x="162" y="314" type="curve" smooth="yes"/>
      <point x="137" y="282"/>
      <point x="127" y="254"/>
      <point x="127" y="215" type="curve" smooth="yes"/>
      <point x="127" y="181"/>
      <point x="139" y="130"/>
      <point x="148" y="130" type="curve" smooth="yes"/>
      <point x="153" y="130"/>
      <point x="186" y="149"/>
      <point x="203" y="162" type="curve" smooth="yes"/>
      <point x="215" y="172"/>
      <point x="217" y="175"/>
      <point x="217" y="184" type="curve" smooth="yes"/>
      <point x="217" y="195"/>
      <point x="210" y="215"/>
      <point x="203" y="226" type="curve"/>
      <point x="198" y="232"/>
      <point x="198" y="234"/>
      <point x="201" y="238" type="curve" smooth="yes"/>
      <point x="212" y="252"/>
      <point x="219" y="253"/>
      <point x="240" y="242" type="curve" smooth="yes"/>
      <point x="257" y="233"/>
      <point x="272" y="231"/>
      <point x="282" y="237" type="curve" smooth="yes"/>
      <point x="295" y="244"/>
      <point x="336" y="283"/>
      <point x="360" y="310" type="curve" smooth="yes"/>
      <point x="370" y="322"/>
      <point x="378" y="331"/>
      <point x="384" y="337" type="curve" smooth="yes"/>
      <point x="389" y="343"/>
      <point x="390" y="342"/>
      <point x="397" y="342" type="curve" smooth="yes"/>
      <point x="499" y="342" type="line" smooth="yes"/>
      <point x="509" y="342"/>
      <point x="509" y="343"/>
      <point x="503" y="336" type="curve" smooth="yes"/>
      <point x="497" y="330"/>
      <point x="480" y="313"/>
      <point x="460" y="295" type="curve" smooth="yes"/>
      <point x="435" y="273"/>
      <point x="398" y="237"/>
      <point x="378" y="217" type="curve" smooth="yes"/>
      <point x="340" y="180" type="line"/>
      <point x="354" y="162" type="line"/>
      <point x="379" y="133"/>
      <point x="391" y="112"/>
      <point x="404" y="74" type="curve"/>
      <point x="411" y="57"/>
      <point x="423" y="41"/>
      <point x="439" y="29" type="curve" smooth="yes"/>
      <point x="446" y="24"/>
      <point x="452" y="19"/>
      <point x="451" y="18" type="curve"/>
      <point x="450" y="17"/>
      <point x="438" y="17"/>
      <point x="423" y="17" type="curve" smooth="yes"/>
      <point x="408" y="17"/>
      <point x="384" y="16"/>
      <point x="368" y="13" type="curve" smooth="yes"/>
      <point x="353" y="11"/>
      <point x="332" y="9"/>
      <point x="321" y="9" type="curve" smooth="yes"/>
      <point x="298" y="9"/>
      <point x="296" y="12"/>
      <point x="303" y="29" type="curve" smooth="yes"/>
      <point x="308" y="43"/>
      <point x="308" y="51"/>
      <point x="304" y="63" type="curve" smooth="yes"/>
      <point x="299" y="77"/>
      <point x="275" y="108"/>
      <point x="270" y="108" type="curve" smooth="yes"/>
      <point x="267" y="108"/>
      <point x="242" y="86"/>
      <point x="214" y="61" type="curve"/>
      <point x="145" y="-4"/>
      <point x="132" y="-15"/>
      <point x="129" y="-15" type="curve"/>
      <point x="127" y="-15"/>
      <point x="121" y="-13"/>
    </contour>
  </outline>
</glyph>
<glyph name="s" format="2">
  <advance width="591"/>
  <unicode hex="0073"/>
  <outline>
    <contour>
      <point x="121" y="365" type="line" smooth="yes"/>
      <point x="93" y="378"/>
      <point x="71" y="396"/>
      <point x="71" y="403" type="curve" smooth="yes"/>
      <point x="71" y="407"/>
      <point x="91" y="440"/>
      <point x="132" y="502" type="curve" smooth="yes"/>
      <point x="146" y="524"/>
      <point x="158" y="544"/>
      <point x="158" y="546" type="curve"/>
      <point x="158" y="548"/>
      <point x="147" y="560"/>
      <point x="133" y="572" type="curve" smooth="yes"/>
      <point x="119" y="584"/>
      <point x="95" y="605"/>
      <point x="80" y="619" type="curve" smooth="yes"/>
      <point x="47" y="651"/>
      <point x="45" y="655"/>
      <point x="64" y="673" type="curve"/>
      <point x="75" y="685" type="line"/>
      <point x="140" y="685" type="line" smooth="yes"/>
      <point x="175" y="685"/>
      <point x="205" y="684"/>
      <point x="205" y="684" type="curve"/>
      <point x="205" y="683"/>
      <point x="197" y="679"/>
      <point x="189" y="674" type="curve"/>
      <point x="180" y="670"/>
      <point x="168" y="662"/>
      <point x="161" y="656" type="curve" smooth="yes"/>
      <point x="149" y="645" type="line"/>
      <point x="163" y="633" type="line"/>
      <point x="170" y="626"/>
      <point x="181" y="617"/>
      <point x="187" y="612" type="curve" smooth="yes"/>
      <point x="198" y="603" type="line"/>
      <point x="206" y="612" type="line" smooth="yes"/>
      <point x="211" y="617"/>
      <point x="224" y="633"/>
      <point x="235" y="648" type="curve" smooth="yes"/>
      <point x="246" y="662"/>
      <point x="258" y="677"/>
      <point x="262" y="680" type="curve" smooth="yes"/>
      <point x="268" y="685" type="line"/>
      <point x="404" y="684" type="line"/>
      <point x="539" y="683" type="line"/>
      <point x="551" y="679" type="line"/>
      <point x="558" y="676"/>
      <point x="568" y="673"/>
      <point x="574" y="672" type="curve" smooth="yes"/>
      <point x="582" y="671"/>
      <point x="584" y="670"/>
      <point x="584" y="666" type="curve"/>
      <point x="583" y="663"/>
      <point x="579" y="661"/>
      <point x="569" y="660" type="curve" smooth="yes"/>
      <point x="553" y="658"/>
      <point x="544" y="655"/>
      <point x="526" y="647" type="curve" smooth="yes"/>
      <point x="512" y="640"/>
      <point x="507" y="635"/>
      <point x="501" y="617" type="curve" smooth="yes"/>
      <point x="499" y="610"/>
      <point x="485" y="587"/>
      <point x="471" y="565" type="curve" smooth="yes"/>
      <point x="446" y="527"/>
      <point x="427" y="492"/>
      <point x="415" y="462" type="curve" smooth="yes"/>
      <point x="408" y="443"/>
      <point x="407" y="411"/>
      <point x="413" y="404" type="curve"/>
      <point x="418" y="399" type="line"/>
      <point x="412" y="394" type="line"/>
      <point x="396" y="383"/>
      <point x="362" y="395"/>
      <point x="321" y="427" type="curve"/>
      <point x="261" y="471"/>
      <point x="246" y="481"/>
      <point x="242" y="481" type="curve" smooth="yes"/>
      <point x="236" y="481"/>
      <point x="227" y="462"/>
      <point x="227" y="447" type="curve"/>
      <point x="226" y="427"/>
      <point x="248" y="404"/>
      <point x="305" y="377" type="curve" smooth="yes"/>
      <point x="320" y="370"/>
      <point x="341" y="361"/>
      <point x="343" y="359" type="curve"/>
      <point x="344" y="358"/>
      <point x="338" y="358"/>
      <point x="234" y="358" type="curve" smooth="yes"/>
      <point x="136" y="358" type="line"/>
    </contour>
    <contour>
      <point x="365" y="501" type="curve" smooth="yes"/>
      <point x="379" y="521"/>
      <point x="407" y="569"/>
      <point x="410" y="579" type="curve" smooth="yes"/>
      <point x="416" y="602"/>
      <point x="402" y="619"/>
      <point x="378" y="619" type="curve" smooth="yes"/>
      <point x="366" y="619" type="line"/>
      <point x="346" y="606" type="line" smooth="yes"/>
      <point x="324" y="591"/>
      <point x="278" y="549"/>
      <point x="279" y="545" type="curve" smooth="yes"/>
      <point x="280" y="542"/>
      <point x="350" y="494"/>
      <point x="355" y="494" type="curve"/>
      <point x="357" y="494"/>
      <point x="362" y="497"/>
    </contour>
    <contour>
      <point x="65" y="218" type="curve" smooth="yes"/>
      <point x="60" y="234"/>
      <point x="64" y="244"/>
      <point x="70" y="252" type="curve" smooth="yes"/>
      <point x="76" y="260"/>
      <point x="83" y="264"/>
      <point x="93" y="265" type="curve" smooth="yes"/>
      <point x="103" y="266"/>
      <point x="117" y="262"/>
      <point x="125" y="250" type="curve" smooth="yes"/>
      <point x="133" y="240"/>
      <point x="134" y="213"/>
      <point x="115" y="202" type="curve" smooth="yes"/>
      <point x="97" y="191"/>
      <point x="72" y="199"/>
    </contour>
    <contour>
      <point x="253" y="86" type="curve"/>
      <point x="283" y="109"/>
      <point x="315" y="138"/>
      <point x="313" y="141" type="curve" smooth="yes"/>
      <point x="310" y="145"/>
      <point x="238" y="193"/>
      <point x="235" y="193" type="curve" smooth="yes"/>
      <point x="231" y="193"/>
      <point x="198" y="144"/>
      <point x="188" y="122" type="curve" smooth="yes"/>
      <point x="184" y="113"/>
      <point x="180" y="102"/>
      <point x="180" y="99" type="curve" smooth="yes"/>
      <point x="180" y="80"/>
      <point x="195" y="68"/>
      <point x="216" y="68" type="curve"/>
      <point x="216" y="68"/>
      <point x="227" y="67"/>
      <point x="229" y="68" type="curve" smooth="yes"/>
      <point x="233" y="69"/>
      <point x="253" y="86"/>
    </contour>
    <contour>
      <point x="495" y="276" type="curve" smooth="yes"/>
      <point x="496" y="272"/>
      <point x="495" y="267"/>
      <point x="493" y="260" type="curve" smooth="yes"/>
      <point x="489" y="242"/>
      <point x="480" y="217"/>
      <point x="452" y="171" type="curve" smooth="yes"/>
      <point x="442" y="154"/>
      <point x="434" y="140"/>
      <point x="434" y="138" type="curve"/>
      <point x="434" y="136"/>
      <point x="444" y="126"/>
      <point x="457" y="116" type="curve" smooth="yes"/>
      <point x="469" y="106"/>
      <point x="493" y="84"/>
      <point x="510" y="69" type="curve" smooth="yes"/>
      <point x="546" y="35"/>
      <point x="547" y="32"/>
      <point x="529" y="14" type="curve" smooth="yes"/>
      <point x="516" y="1" type="line"/>
      <point x="453" y="1" type="line" smooth="yes"/>
      <point x="437" y="1"/>
      <point x="403" y="2"/>
      <point x="392" y="2" type="curve" smooth="yes"/>
      <point x="387" y="2"/>
      <point x="387" y="2"/>
      <point x="392" y="5" type="curve" smooth="yes"/>
      <point x="395" y="7"/>
      <point x="399" y="11"/>
      <point x="407" y="14" type="curve"/>
      <point x="422" y="22"/>
      <point x="439" y="37"/>
      <point x="439" y="42" type="curve"/>
      <point x="439" y="44"/>
      <point x="434" y="50"/>
      <point x="428" y="55" type="curve" smooth="yes"/>
      <point x="395" y="82" type="line"/>
      <point x="392" y="78" type="line" smooth="yes"/>
      <point x="390" y="76"/>
      <point x="376" y="59"/>
      <point x="360" y="41" type="curve" smooth="yes"/>
      <point x="345" y="23"/>
      <point x="333" y="10"/>
      <point x="327" y="5" type="curve" smooth="yes"/>
      <point x="324" y="2"/>
      <point x="322" y="1"/>
      <point x="320" y="1" type="curve"/>
      <point x="260" y="1"/>
      <point x="91" y="1"/>
      <point x="52" y="1" type="curve"/>
      <point x="50" y="2"/>
      <point x="50" y="3"/>
      <point x="47" y="5" type="curve" smooth="yes"/>
      <point x="44" y="7"/>
      <point x="35" y="10"/>
      <point x="26" y="12" type="curve" smooth="yes"/>
      <point x="2" y="16"/>
      <point x="2" y="22"/>
      <point x="26" y="26" type="curve" smooth="yes"/>
      <point x="36" y="28"/>
      <point x="54" y="34"/>
      <point x="63" y="38" type="curve" smooth="yes"/>
      <point x="72" y="42"/>
      <point x="78" y="45"/>
      <point x="80" y="47" type="curve" smooth="yes"/>
      <point x="82" y="49"/>
      <point x="95" y="77"/>
      <point x="95" y="77" type="curve"/>
      <point x="104" y="94"/>
      <point x="120" y="121"/>
      <point x="131" y="139" type="curve"/>
      <point x="166" y="191"/>
      <point x="183" y="231"/>
      <point x="183" y="261" type="curve" smooth="yes"/>
      <point x="183" y="275"/>
      <point x="181" y="279"/>
      <point x="178" y="282" type="curve" smooth="yes"/>
      <point x="176" y="284"/>
      <point x="173" y="286"/>
      <point x="173" y="286" type="curve"/>
      <point x="173" y="286"/>
      <point x="175" y="288"/>
      <point x="178" y="290" type="curve" smooth="yes"/>
      <point x="181" y="293"/>
      <point x="188" y="295"/>
      <point x="193" y="296" type="curve" smooth="yes"/>
      <point x="196" y="297"/>
      <point x="202" y="298"/>
      <point x="203" y="298" type="curve"/>
      <point x="207" y="297"/>
      <point x="224" y="287"/>
      <point x="224" y="287" type="curve"/>
      <point x="249" y="274"/>
      <point x="277" y="256"/>
      <point x="314" y="227" type="curve" smooth="yes"/>
      <point x="329" y="216"/>
      <point x="342" y="207"/>
      <point x="344" y="207" type="curve"/>
      <point x="346" y="207"/>
      <point x="347" y="212"/>
      <point x="346" y="221" type="curve" smooth="yes"/>
      <point x="343" y="256"/>
      <point x="295" y="295"/>
      <point x="213" y="329" type="curve"/>
      <point x="199" y="334"/>
      <point x="188" y="338"/>
      <point x="182" y="340" type="curve" smooth="yes"/>
      <point x="175" y="343"/>
      <point x="175" y="343"/>
      <point x="180" y="343" type="curve" smooth="yes"/>
      <point x="368" y="343" type="line"/>
      <point x="424" y="318" type="line" smooth="yes"/>
      <point x="486" y="290"/>
      <point x="493" y="282"/>
    </contour>
    <contour>
      <point x="455" y="457" type="curve" smooth="yes"/>
      <point x="454" y="469"/>
      <point x="461" y="483"/>
      <point x="472" y="488" type="curve" smooth="yes"/>
      <point x="482" y="493"/>
      <point x="501" y="495"/>
      <point x="514" y="482" type="curve" smooth="yes"/>
      <point x="521" y="475"/>
      <point x="524" y="466"/>
      <point x="524" y="457" type="curve" smooth="yes"/>
      <point x="524" y="443"/>
      <point x="518" y="433"/>
      <point x="505" y="427" type="curve" smooth="yes"/>
      <point x="495" y="423"/>
      <point x="485" y="423"/>
      <point x="476" y="427" type="curve" smooth="yes"/>
      <point x="467" y="431"/>
      <point x="456" y="437"/>
    </contour>
  </outline>
</glyph>
